<?xml version="1.0" standalone="no"?>
<!DOCTYPE svg PUBLIC "-//W3C//DTD SVG 1.1//EN" "http://www.w3.org/Graphics/SVG/1.1/DTD/svg11.dtd" >
<svg xmlns="http://www.w3.org/2000/svg">
<metadata></metadata>
<defs>
<font id="gnutypewriterstandard" horiz-adv-x="1269" >
<font-face units-per-em="2048" ascent="1638" descent="-410" />
<missing-glyph horiz-adv-x="500" />
<glyph horiz-adv-x="2048" />
<glyph horiz-adv-x="2048" />
<glyph unicode="&#xd;" horiz-adv-x="2048" />
<glyph unicode=" " />
<glyph unicode="!" d="M520 1376q4 -40 4 -55q0 -57 -20.5 -109.5t-20.5 -62.5q0 -18 17 -35q-2 -4 -2 -16q0 -9 5 -34t5 -38q0 -19 -19 -35t-20 -28q43 -103 43 -150q0 -8 -1 -14.5t-2.5 -11t-4.5 -9.5l-4.5 -7.5t-6.5 -6.5t-7 -5.5t-8 -5.5t-7 -5v-11q24 -53 31 -53q56 -156 84 -156 q50 0 157 125q0 16 -43 31q0 86 43 86v29l-22 32q0 43 41 136q-9 0 -19 32v9q2 27 2 77q0 42 -4 102.5t-4 76.5q0 41 17 55q-2 5 -8.5 24.5t-8.5 24.5t-8 20.5t-9 21t-9.5 18t-12.5 19t-14.5 16t-18.5 17t-22 15.5l-53 -31h-4q-15 0 -39 -46t-25 -46q-2 2 -2 4zM586 434 q0 -48 147 -82l21 -43l-11 -51q31 -54 31 -86q-21 0 -74 -115h-10q0 21 -31 21l-73 -21q-4 0 -6.5 1t-4.5 3t-6.5 8.5t-10.5 15t-18.5 25t-27.5 35.5h-51v84q-5 0 -31 33q17 51 62 51v31h-21v10q3 23 21 23q46 -3 44 14l-4 2z" />
<glyph unicode="&#x22;" horiz-adv-x="1273" d="M711 1458q-45 -61 -60 -61q-16 8 -26 8q-2 -14 -14.5 -27t-23.5 -19.5t-14 -6.5l58 -35q-13 -23 -13 -39l21 -33v-14l-21 -27v-12q33 0 39 -29q0 -25 -32 -53l32 -39v-47h-32q-15 -4 -15 -12q19 -15 47 -15v-32q18 -62 39 -80q15 12 29 12l33 -6q12 93 33 133 q-16 8 -19 8v19l31 47v6l-12 20v19q0 20 20 53q-8 36 -8 49q11 33 20 33q0 139 -59 139q-3 17 -53 41zM444 1450h-6q-12 0 -100 -98l6 -49q-10 0 -20 -19q3 -17 34 -53v-47l-14 -21q27 0 33 -86q-12 0 -12 -20q12 -21 12 -39q-4 -33 -4 -53q4 0 39 -74l32 6l21 -12h18 q0 9 29 59l-8 39q4 0 20 8l-8 33q0 4 8 20l-8 13q0 25 -1 64t-1 53q0 55 27 71q0 12 -27 12l6 35q-10 0 -20 19l35 28q-5 4 -6.5 17t-6.5 36t-18 46h-6l-33 -8q0 11 -21 20z" />
<glyph unicode="#" d="M385 -342q-18 21 -28 41.5t-19 50t-16 47.5q1 3 2 5l1.5 3l1 2t0 2t-1 1.5l-2.5 2.5l-4 4l-6 6t-8 9l-2 43l29 35l-23 96l15 8l-23 95q4 6 8.5 14t5.5 10t5.5 6t9 6.5t14.5 6.5q-12 37 -12 67q0 27 16 64l-2 2l-39 14q-4 -6 -7.5 -10t-8 -7.5t-6.5 -5.5t-8 -4.5t-8 -3.5 t-10.5 -4t-12.5 -4l-17 39h-41l-36 39q0 62 16 117q-7 4 -11 6.5t-7.5 4.5t-5.5 5t-3.5 4.5t-3 6.5t-2 7t-2 10t-2.5 13l78 39q0 28 3.5 40.5t16.5 37.5q34 -3 46 -9t32 -30h17q24 31 38 33q-10 30 -10 47t10 47l-32 69q6 30 6 45q0 17 -2 29l-17 6q-3 -5 -6 -8t-6 -6.5 t-4.5 -5t-5.5 -4t-5.5 -3.5t-6.5 -3t-6.5 -2.5t-8.5 -3t-10 -3.5l-18 39h-39l-39 39q0 56 18 117q-7 4 -11 6.5t-7.5 4.5t-5.5 5t-3.5 4.5t-3 6.5t-2 7t-2 10t-2.5 13l76 39q0 27 3.5 40t17.5 38q34 -3 45.5 -8.5t31.5 -30.5h19q23 30 41 33q-7 16 -8 20.5t4 24.5l-39 86 q20 52 45 86q-6 4 -9.5 6t-7 4.5t-5 4.5t-3.5 3.5t-3.5 5t-2.5 5.5t-3.5 8t-4.5 10l27 76l-33 69q22 20 35 60l98 24l41 -2l8 -16q21 9 30.5 9.5t31.5 -3.5l32 -72q-1 -7 -2 -13.5t-1 -9t-1 -6.5t-1.5 -5t-2.5 -4.5t-3 -5.5t-5 -7l16 -35l-20 -8q2 -7 4 -15l3 -12t1 -8 q0 -11 -16 -32q10 -33 10 -43q0 -17 -14 -45l51 -62q-16 -26 -23 -30q-4 -3 -22 -11q10 -42 8 -59l16 4t19 4l39 -59l18 59l49 -33q2 3 8.5 13t10.5 16q-15 34 -15 39q0 14 4 22l-41 86q16 43 48 86q-21 13 -25.5 18.5t-15.5 29.5l28 75l-33 70q15 13 21 24t14 35l99 25 l41 -2l8 -17q22 10 29 10.5t30 -3.5l33 -72q-1 -7 -2 -13.5t-1 -9t-1 -6.5t-1.5 -5t-2.5 -4.5t-3 -5.5t-5 -7l16 -35l-19 -8q7 -32 7 -35q0 -13 -15 -33q11 -37 11 -43q0 -11 -17 -45l53 -61q-16 -26 -23 -30q-4 -3 -22 -11q9 -45 9 -52q0 -2 -1.5 -7t-1.5 -7q31 -4 95 -4 q30 -48 39 -78l20 39h18v-20q0 -28 9.5 -86t9.5 -88h-19v-97q-68 -20 -182 -20h-18l-6 -21q10 -23 10 -41q0 -12 -4 -22l41 -86q-16 -31 -25 -43q31 -4 94 -4q34 -55 41 -78l21 39h16v-21q0 -28 10.5 -86t10.5 -88h-21v-96q-66 -20 -176 -20l-18 -9l32 -71l-43 -43l41 -86 l-18 -11l41 -86q-7 -23 -14.5 -34t-22.5 -25l41 -88l-18 -94l-70 -33l-35 27l-104 -50q-18 21 -28.5 41.5t-20.5 51.5t-17 47q1 3 2 5.5t2 3t1 2t-0.5 1.5t-2 2t-3.5 4t-6 6.5t-9 9.5l-2 44l28 34l-22 97l16 8l-22 94q4 6 8.5 14t5.5 10t5.5 6t9 6.5t14.5 6.5q-13 41 -13 68 q0 26 15 61h-2q-28 -25 -99 -39q-18 12 -22 16q-9 -14 -35 -24l33 -72l-43 -43l41 -86l-21 -10l41 -86q-8 -24 -14 -35t-21 -24l41 -89l-18 -94l-72 -32l-35 26zM584 623q3 1 9 2t11 2l10 2l41 -60l17 60l30 -21q5 7 33 21q-14 44 -14 59q0 23 8 47l-33 70q9 35 9 47 q-24 -15 -78 -25q-26 16 -29 21l-35 -19l-8 -22q12 -27 12 -41q0 -8 -6 -23l41 -86q-15 -30 -18 -34z" />
<glyph unicode="$" d="M551 -424q-19 21 -29 41t-20 51t-17 47q1 4 4 8q2 4 -5 10q-2 3 -3.5 4.5l-5 5t-6.5 7.5v43l27 35l-21 96l14 6l-22 97l8 12q-24 6 -49 6h-33q-34 55 -41 78l-94 -19v-20l-20 -39q-13 -13 -20 -15.5t-25 -2.5h-13v77q-13 4 -22.5 9.5t-14.5 10t-20 19.5v76h16 q0 41 6.5 58.5t34.5 39.5q-20 43 -20 115q-17 9 -20 12.5t-17 26.5l16 98h21q0 28 3.5 40.5t16.5 37.5q18 -1 37 -5.5t31.5 -9t33.5 -12.5t33 -12l21 -20l-21 -39l58 -19l20 -98q29 -6 42 -12t36 -25l-20 -59q24 -8 29 -12t12 -27h12l6 8l-16 35l18 8q-6 24 -6 33 q0 14 14 35l-33 71q2 3 5 9q11 18 22 24q4 2 17 8h1q-14 44 -14 60q0 17 10 47l-32 70q6 27 6 38h-88q-34 55 -41 78q-24 -6 -37 -6q-14 0 -62 25v39l-57 18q-11 36 -37 78q-2 23 -7.5 39t-11 25t-22.5 34l21 76q34 55 41 78l12.5 12.5t9.5 8.5t10.5 8t10 5t14.5 5v59l57 57 h78l21 39h108l10 27l-32 70q15 13 21 24t14 35l98 22h41l8 -16q21 9 30 9.5t31 -3.5l33 -71q-5 -28 -6.5 -32.5t-11.5 -19.5l16 -34l-18 -9q1 -5 3 -12.5t2.5 -10.5t1.5 -7.5t0.5 -6.5l-1.5 -6t-3 -7.5t-5 -8.5h65v-21h99v19q0 28 16 59h98l21 -96h16l21 -59l-37 -117v-37 q12 -17 12 -31q0 -11 -12 -28l16 -78l-57 -57h-94l-21 18v117q-30 9 -78 39v10q0 10 -1.5 18.5t-7 19.5l-7 14t-11 17t-10.5 15q-6 -10 -32 -21q8 -40 8 -51q0 -27 -19 -61q11 -37 11 -43q0 -15 -15 -45l37 -80q12 -3 27 -6q20 24 32 30t46 9q12 -44 33 -64.5t65 -32.5 l37 -59v-57q20 -20 27.5 -34.5t13.5 -43.5q13 -4 22.5 -9.5t14.5 -10t20 -19.5v-78l37 -18v-60q-23 -32 -30 -53.5t-7 -61.5q-3 -5 -7.5 -11.5t-6 -9t-3.5 -6.5t-2 -8t-0.5 -9.5t-0.5 -14.5q-4 -3 -9 -6l-7.5 -4.5l-5 -3t-5 -2t-5 -1.5t-7 -1h-8h-11.5l-20 -78l-78 -78h-37 q-20 -29 -32 -37.5t-46 -19.5q-3 5 -6.5 10.5t-5.5 7.5t-3.5 5.5t-2 5.5t-1.5 6.5t-1 9v12.5l-58 -57l-14 -4l25 -56l-19 -8l41 -86q-12 -39 -35 -59l41 -88l-20 -95l-70 -32l-35 26zM549 1092q-14 32 -14 38q0 15 4 23l-37 78q-4 -1 -15 -2t-16 -2q-1 -29 -4.5 -41 t-15.5 -37h-78v-96l9 -13.5t6 -9.5t3 -7.5t2 -11v-16.5q29 -6 36.5 -10.5t21.5 -28.5h65q12 16 23 25l-35 27q18 48 45 84zM741 291h4q19 0 54 -12q10 29 17.5 36t39.5 21q-29 29 -29 57q0 8 6.5 33.5t6.5 44.5q26 13 38 16.5t40 4.5q-5 10 -15.5 26.5t-14.5 24t-7.5 20 t-3.5 25.5v20q-37 14 -52 27.5t-26 48.5l-70 -16q0 -1 -1 -3t-1 -3l41 -89q-19 -38 -32 -50q-8 -7 -21 -17l59 -78q-10 -38 -10 -53q0 -21 4 -35z" />
<glyph unicode="%" d="M991 -20h19q9 -4 9.5 -5.5t0.5 -15.5q-10 2 -14.5 4.5t-6.5 4.5t-8 12zM948 -74q3 3 7 1q1 -1 -1 -3q-3 -3 -7 -1q-1 1 1 3zM991 -109h29q0 -13 -1 -16t-9 -14h-11q-2 3 -3.5 5t-2.5 4l-1.5 3t-0.5 3v3.5v5v6.5zM844 -168l8 -10zM891 98q-2 -1 -5 -3.5t-3.5 -3t-3 -1.5 t-3 -1t-3.5 -0.5t-4.5 -0.5h-6.5q-10 -16 -31 -31v-39q-9 -2 -13 -4t-5.5 -3t-9.5 -11l-10 -51q4 -3 8 -5t5 -3t1 -4q0 -1 -4 -17v-20q7 -17 10 -50q14 -19 18 -38l31 -11h49v-10h60l10 10v39h49l21 21v8q0 1 10 51q-22 -3 -31 0l31 29q-2 10 -2 31q0 18 2 28l-70 70h-10 q-14 -9 -18 -17q-1 -3 -2 -4h-9q-14 20 -22 41h-39zM702 49q15 26 20 45q2 7 6 10t21 14q9 5 15 9v20l10 11h19v8h20q1 2 2 4.5t1.5 3.5t1.5 2.5t2.5 2.5t4 2.5t6.5 4.5q27 -3 41 -10q14 17 23 17q6 0 27 -7q3 3 30 21q19 -7 29 -21h57l52 -28v-21q5 -4 23 -16.5t26 -22.5 v-30q15 -4 30 -19v-59l19 -10v-39h10v-31q-1 -2 -3.5 -5t-3 -3.5t-1.5 -3t-1 -3t-0.5 -3.5t-0.5 -4.5v-6.5h-8q-3 -23 -11 -31v-38q-17 -17 -30 -21v-39q-20 -16 -29.5 -17.5t-19.5 -10.5v-21l-2 -3q-2 -2 -3.5 -3l-4.5 -3t-6.5 -3t-10 -3t-13.5 -3t-17.5 -1.5t-22.5 -0.5 l-29 -29h-51q-5 3 -6.5 4t-4 2.5t-3 3t-1 2t-2 3.5l-2.5 5h-39v9h-51q-2 3 -3.5 5t-2.5 4l-1.5 3t-0.5 3v3.5v5v6.5h-20l-11 11v8l-8 10h-20l-31 31v28l-21 11q-5 26 -18 49v39h10v59h-10v41q8 13 12 15l6 3v31zM408 1315h20q5 -2 5.5 -2.5t2 -2.5t1 -2.5t-0.5 -5v-8.5 q-14 3 -17 5.5t-11 15.5zM365 1260q3 3 7 0q1 -1 -1 -3q-3 -3 -7 0q-1 1 1 3zM408 1225h28v-7.5v-5.5v-3.5t-1.5 -4.5t-2.5 -4t-4 -6h-12q-3 4 -4 6t-2.5 4t-1.5 4.5v3.5v5.5v7.5zM260 1165l8 -10zM307 1432q-3 -2 -5.5 -4t-4 -3l-3 -2t-3.5 -1.5t-4.5 -0.5h-7.5 q-8 -13 -29 -28v-39q-5 -1 -8.5 -2t-6.5 -3t-4 -3.5t-4.5 -5.5t-5.5 -7l-12 -49q4 -3 8.5 -5.5t6 -4t1.5 -4.5q0 -1 -4 -17v-18q7 -17 10 -49q15 -20 19 -41l29 -10h51v-11h57l10 11v41h52l18 18v8q0 1 10 51q-20 -3 -28 0l28 31q-2 10 -2 29q0 20 2 30l-69 68h-11 q-4 -2 -7.5 -4.5t-4.5 -3t-3 -2t-2.5 -3t-2.5 -5.5h-8q-13 19 -21 39h-41zM121 1382q9 16 14.5 30t7.5 19t10 12t27 19v19l10 10h19v10h22q1 1 2 4q3 6 12 12q3 2 5 3q27 -3 39 -9q13 15 22 15q11 0 29 -6q2 2 29 20q19 -7 28 -20h60l49 -29v-21q6 -5 24.5 -16.5t26.5 -21.5 v-29q11 -3 29 -21v-59l18 -8v-41h10v-29q-10 -14 -10 -31h-8q0 -3 -0.5 -8t-1 -6t-1.5 -4t-2.5 -5t-4.5 -5v-41q-18 -18 -29 -21v-39q-20 -16 -30.5 -17.5t-20.5 -10.5v-21q-1 -1 -2 -2.5t-2.5 -2.5t-3.5 -3t-4.5 -3t-6.5 -2.5t-9.5 -2.5t-12.5 -2t-16.5 -1.5t-20.5 -0.5 l-31 -29h-49q-4 3 -6.5 4.5t-4 2.5t-2.5 2.5t-1.5 2.5t-1.5 4t-2 5h-41v8h-49q-7 10 -8 13.5t-1 17.5h-22l-10 10v8l-9 12h-20l-29 29v29l-20 10q-3 17 -21 49v41h13v59h-13v39q7 12 9.5 14.5t11.5 6.5v28zM958 1528l99 -21l37 -18v-19h16.5t10.5 -2t7 -3t9.5 -6l13.5 -9 v-78q-4 -6 -8 -12.5t-6 -9t-3 -5t-5 -4.5t-5.5 -3t-9.5 -5v-39h-20q-1 -5 -2.5 -13t-2 -10t-2 -7t-3 -6.5t-3.5 -4.5t-5.5 -5t-7.5 -4.5t-11 -6.5q-3 -33 -9.5 -45t-31.5 -33l20 -78q-5 -3 -10.5 -6.5t-7 -5t-6 -3t-5.5 -2t-6.5 -1t-9 -0.5h-12.5q-8 -38 -18.5 -56.5 t-38.5 -39.5q-3 -33 -9.5 -45t-31.5 -33v-98q-24 -13 -36.5 -16t-41.5 -3v-18q28 -12 33 -19.5t8 -40.5h-62l-16 -18q-2 -27 -5 -37t-16 -23v-96q-25 -20 -37 -26.5t-40 -12.5l20 -96q-16 -20 -21 -26.5t-10.5 -19.5t-9.5 -32l-78 -57l21 -60q-4 -3 -9 -6l-7.5 -4.5l-5 -3 t-5 -2t-5 -1.5t-7 -1h-8h-11.5v-78l-57 -20v-97h-20v-96q-19 -19 -29 -26t-29 -13v-96l-57 -78h-78l-20 39h-115q-8 31 -8 60q0 17 3.5 48.5t4.5 45.5q3 3 7 6q3 3 0 11q-1 3 -1.5 5.5t-2 7t-3.5 9.5l16 39l41 20l21 96h16l21 97q5 3 10.5 6.5t7.5 5.5t5.5 3.5t5.5 2 t6.5 1.5t9 1h12.5q5 41 17 67t40 50v57q5 8 8 13t5 8t5.5 5.5t5 3.5t8 4t9.5 5v39h21q1 4 2.5 12t2 10t2 6.5t3 6.5t3.5 5t5.5 5t7.5 5t11 7v78l13.5 9l9 6t7.5 2.5t11 1.5h16q3 36 11 56t30 42v78q20 24 25.5 35.5t11.5 39.5l57 21v96q29 29 62 39l-21 39q37 35 78 57v15v7 v6v4.5t0.5 5t1.5 4t2 4t2.5 4t4 5l5.5 5.5v96q37 35 78 57q-13 21 -14.5 27t-1.5 33l57 57v78q13 4 22.5 9.5t14.5 10t20 19.5z" />
<glyph unicode="'" d="M723 1708q-6 -6 -7.5 5t5.5 11q2 0 2.5 -4t0.5 -8zM713 1675l57 -18v-19q-5 1 -13 2.5t-10 2t-7 2t-6.5 3t-4.5 3.5t-5 5.5t-4.5 7.5t-6.5 11zM614 1618q20 24 32 30t46 9q25 -20 37.5 -26.5t40.5 -12.5q3 -12 7.5 -23t11.5 -22t11.5 -18t15.5 -19t15 -16.5t18.5 -18.5 t18.5 -18v-21l-20 -39l37 -37q-19 -59 -58 -98q11 0 15 -0.5t8.5 0t8.5 -2t5.5 -3t9 -5t11.5 -7.5v-39q-25 -14 -38 -17.5t-40 -3.5l20 -96l-77 -18v-99l-95 -18q-1 -29 -4.5 -41t-15.5 -37l-78 21q-2 -4 -4.5 -9.5t-3.5 -7l-3 -4.5t-5.5 -5t-8 -5t-12.5 -8l-78 -21l-61 78 v78h61l17 18q3 33 9.5 45t31.5 33q0 30 3.5 44t16.5 34l-20 78q-8 -2 -25 -2q-11 0 -23 2t-20.5 4t-24.5 6.5t-26 7.5v174q-24 6 -27.5 9.5t-9.5 29.5l98 21v18l58 21q0 28 3 40t17 37q52 -3 94 -20zM344 1366l21 -18z" />
<glyph unicode="(" d="M958 1528l99 -21l37 -18v-19h16.5t10.5 -2t7 -3t9.5 -6l13.5 -9v-78q-4 -6 -8 -12.5t-6 -9t-3 -5t-5 -4.5t-5.5 -3t-9.5 -5v-39h-20q-1 -5 -2.5 -13t-2 -10t-2 -7t-3 -6.5t-3.5 -4.5t-5.5 -5t-7.5 -4.5t-11 -6.5q-3 -33 -9.5 -45t-31.5 -33l20 -78q-5 -3 -10.5 -6.5 t-7 -5t-6 -3t-5.5 -2t-6.5 -1t-9 -0.5h-12.5q-8 -38 -18.5 -56.5t-38.5 -39.5q-3 -33 -9.5 -45t-31.5 -33v-98q-24 -13 -36.5 -16t-41.5 -3v-18q28 -12 33 -19.5t8 -40.5h-62l-16 -18q-2 -27 -5 -37t-16 -23v-96q-25 -20 -37 -26.5t-40 -12.5l20 -96q-16 -20 -21 -26.5 t-10.5 -19.5t-9.5 -32l-78 -57l21 -60q-4 -3 -9 -6l-7.5 -4.5l-5 -3t-5 -2t-5 -1.5t-7 -1h-8h-11.5v-78l-57 -20v-97h-20v-96q-19 -19 -29 -26t-29 -13v-96l-57 -78h-78l-20 39h-115q-8 31 -8 60q0 17 3.5 48.5t4.5 45.5q3 3 7 6q3 3 0 11q-1 3 -1.5 5.5t-2 7t-3.5 9.5 l16 39l41 20l21 96h16l21 97q5 3 10.5 6.5t7.5 5.5t5.5 3.5t5.5 2t6.5 1.5t9 1h12.5q5 41 17 67t40 50v57q5 8 8 13t5 8t5.5 5.5t5 3.5t8 4t9.5 5v39h21q1 4 2.5 12t2 10t2 6.5t3 6.5t3.5 5t5.5 5t7.5 5t11 7v78l13.5 9l9 6t7.5 2.5t11 1.5h16q3 36 11 56t30 42v78 q20 24 25.5 35.5t11.5 39.5l57 21v96q29 29 62 39l-21 39q37 35 78 57v15v7v6v4.5t0.5 5t1.5 4t2 4t2.5 4t4 5l5.5 5.5v96q37 35 78 57q-13 21 -14.5 27t-1.5 33l57 57v78q13 4 22.5 9.5t14.5 10t20 19.5z" />
<glyph unicode=")" d="M958 1528l99 -21l37 -18v-19h16.5t10.5 -2t7 -3t9.5 -6l13.5 -9v-78q-4 -6 -8 -12.5t-6 -9t-3 -5t-5 -4.5t-5.5 -3t-9.5 -5v-39h-20q-1 -5 -2.5 -13t-2 -10t-2 -7t-3 -6.5t-3.5 -4.5t-5.5 -5t-7.5 -4.5t-11 -6.5q-3 -33 -9.5 -45t-31.5 -33l20 -78q-5 -3 -10.5 -6.5 t-7 -5t-6 -3t-5.5 -2t-6.5 -1t-9 -0.5h-12.5q-8 -38 -18.5 -56.5t-38.5 -39.5q-3 -33 -9.5 -45t-31.5 -33v-98q-24 -13 -36.5 -16t-41.5 -3v-18q28 -12 33 -19.5t8 -40.5h-62l-16 -18q-2 -27 -5 -37t-16 -23v-96q-25 -20 -37 -26.5t-40 -12.5l20 -96q-16 -20 -21 -26.5 t-10.5 -19.5t-9.5 -32l-78 -57l21 -60q-4 -3 -9 -6l-7.5 -4.5l-5 -3t-5 -2t-5 -1.5t-7 -1h-8h-11.5v-78l-57 -20v-97h-20v-96q-19 -19 -29 -26t-29 -13v-96l-57 -78h-78l-20 39h-115q-8 31 -8 60q0 17 3.5 48.5t4.5 45.5q3 3 7 6q3 3 0 11q-1 3 -1.5 5.5t-2 7t-3.5 9.5 l16 39l41 20l21 96h16l21 97q5 3 10.5 6.5t7.5 5.5t5.5 3.5t5.5 2t6.5 1.5t9 1h12.5q5 41 17 67t40 50v57q5 8 8 13t5 8t5.5 5.5t5 3.5t8 4t9.5 5v39h21q1 4 2.5 12t2 10t2 6.5t3 6.5t3.5 5t5.5 5t7.5 5t11 7v78l13.5 9l9 6t7.5 2.5t11 1.5h16q3 36 11 56t30 42v78 q20 24 25.5 35.5t11.5 39.5l57 21v96q29 29 62 39l-21 39q37 35 78 57v15v7v6v4.5t0.5 5t1.5 4t2 4t2.5 4t4 5l5.5 5.5v96q37 35 78 57q-13 21 -14.5 27t-1.5 33l57 57v78q13 4 22.5 9.5t14.5 10t20 19.5z" />
<glyph unicode="*" d="M590 1579q25 -15 30 -22t11 -35l20 -19l97 -39q0 -95 18 -155l-2 -4q6 -2 24 -11l15 15q-9 9 -13.5 15t-5.5 9t-2.5 12.5t-3.5 18.5v29l19 20q-2 2 2 6h4q25 3 33 4t21.5 6.5t29.5 16.5l164 -164q-43 -29 -43 -74q0 -4 1 -12.5t1 -11.5l-11 -10h37q25 -20 37.5 -26.5 t40.5 -12.5v-234q-10 2 -29 2q-33 0 -59 -29q43 -19 43 -59q0 -23 -4 -39l27 -28l-2 -56q-13 -4 -23 -9t-16.5 -9.5t-11.5 -13.5t-7.5 -14t-4.5 -17t-2.5 -17.5t-1.5 -21t-1 -21.5q-30 -10 -43 -10q-20 0 -35.5 11t-44.5 40l-14 -14q-24 24 -35 36t-24.5 32.5t-22.5 42.5 l-39 -13l-14 15q0 4 -5 14q0 -3 1.5 -10t1.5 -11v-53l18 -18l37 18q12 -30 12 -49q0 -20 -11 -33.5t-38 -31.5v-39l-41 -39q-25 14 -49 14q-7 0 -12.5 -1t-12 -4.5t-11 -5.5t-12 -8.5t-11 -9.5t-13.5 -11.5t-14 -12.5q-39 18 -48.5 38t-9.5 66v13h-20q0 88 20 135l-36 18v21 q12 18 20 34l-39 19q-11 -29 -26 -48.5t-45 -49.5q-54 -13 -62 -13h-6l-27 -55q-41 19 -58.5 37t-37.5 61q4 4 9.5 8.5t8 7t6 7t5.5 8.5t3 11t1 16q0 5 -4 51q6 2 14 4t10 3t2 3t-1.5 5t-5.5 10t-7 14l98 43q-10 27 -10 33t2 8l-6 14q-41 -18 -119 -18q-5 3 -13.5 7.5 t-12.5 7t-10 6t-11 8t-10 10.5l-58 -21q-16 43 -16 68q0 26 16 69q3 0 9 -1t8 -1q9 0 16 1t13.5 4.5t10.5 6t10.5 10t9.5 10.5t11 13.5t11 14.5q7 -3 16 -9q8 -5 10 -3t7 17q1 2 1 3t0.5 3t1 3.5t1.5 3.5l98 -39q2 4 4.5 10.5t3.5 8.5l-92 120q-2 7 -3.5 16t-2.5 12t-3 8 t-6 9.5t-12 12.5l15 14l-8 8l-7 7l-5.5 5.5t-5 6t-4 6t-4 6t-3 7t-3 9.5t-3.5 11q14 4 32 4q11 0 37 -17l29 2l94 41q67 -67 123 -98l16 121l9 13.5t6.5 10t3 8t2 11t0.5 16.5h20v17q0 26 17 59zM1069 1090q-6 -6 4 -7.5t10 4.5q0 3 -6.5 4t-7.5 -1zM463 1425q9 9 10 9 q4 0 4 -7q0 -2 -4.5 -5t-7.5 -3q-2 0 -2 6zM887 1382q0 -4 2 -4q3 0 6.5 3t3.5 5q0 7 -2 7q-3 0 -6.5 -4.5t-3.5 -6.5zM422 961h-4q-11 -16 -29 -48q0 -4 4 -16q23 44 29 64zM528 780q2 6 17 56q-2 0 -4.5 1t-6.5 2.5t-6 2.5l-12 -11q3 -15 12 -51zM1001 862h-49l19 -18h24z M942 872l16 50q-17 0 -40.5 -3.5t-30.5 -3.5q23 -11 55 -43zM872 1098l9 -2q6 47 24 47t33 -47h20q0 11 0.5 16.5t2 10.5t3 7.5t6.5 9t9 13.5l-25 -25l-26 58q-22 -22 -30.5 -31.5t-16.5 -24.5t-9 -32zM743 1264q0 -2 -1 -6.5t-1 -6.5v-2l9 4q-1 2 -3.5 5.5t-3.5 5.5z M397 1133q-2 -11 -20 -37q18 5 45 16l-14 21h-11z" />
<glyph unicode="+" d="M1102 655q-6 -6 4 -7l8 1q6 6 -4 7zM623 1145q24 -15 29.5 -22.5t11.5 -35.5l20 -18l96 -39q0 -93 19 -156q-25 -40 -25 -57q0 -12 6 -39q-8 -23 -12 -27.5t-27 -11.5q25 -25 30.5 -35.5t8.5 -41.5q60 31 97 38q1 -4 3 -10q5 -17 13 -21q4 -2 16 -6q3 -1 4 -1q6 47 25 47 q18 0 33 -47h20q0 11 0.5 16.5t2 10.5t3 7.5t6.5 9t9 13.5l20 20h37q25 -20 37.5 -26.5t40.5 -12.5v-233q-10 2 -29 2q-22 0 -35.5 -8.5t-33.5 -32.5h-78l20 59q-35 0 -49 -1t-31.5 -9.5t-33.5 -27.5q-33 3 -49.5 9.5t-47.5 28.5l-22 -135q22 -34 22 -84v-53l19 -18l37 18 q12 -30 12 -49q0 -20 -11 -34t-38 -32v-39l-41 -38q-25 14 -49 14q-7 0 -12.5 -1t-12 -4.5t-11 -5.5t-12 -8.5t-11 -9.5t-13.5 -11.5t-14 -12.5q-39 18 -48.5 38t-9.5 66v12h-20q0 89 20 136l-37 18v20q22 30 37.5 85.5t20.5 68.5q-21 21 -28 34.5t-13 43.5q-35 -14 -45 -14 q-19 0 -33 34h-16q-35 -56 -41 -77h-17l-20 57q-43 -19 -119 -19q-5 3 -13.5 7.5t-12.5 7t-10 6t-11 8t-10 10.5l-58 -20q-16 43 -16 67q0 27 16 70q3 0 9 -1t8 -1q8 0 14.5 1.5t11.5 2.5t10.5 5t8.5 6.5t9 9t8.5 9.5t9.5 12t10 13l8 -4t6 -3.5t4.5 -2.5t3.5 -2t2.5 0t2 1.5 t1.5 3.5l2 6t2.5 9t3.5 11l99 -39q12 28 17.5 32t39.5 7v-16.5t-2 -10.5t-3 -7t-6 -9.5l-9 -13.5q58 15 118 57l58 -19q-8 40 -8 54q0 17 8 63l-41 39l20 154l9 13.5t6.5 10t3 8t2 11t0.5 16.5h20v16q0 27 17 60zM831 985h5q10 0 10 -4q0 -2 -2 -4h-4q-11 0 -11 4q0 2 2 4z " />
<glyph unicode="," d="M743 662q-6 -6 -7.5 5t5.5 11q2 0 2.5 -4t0.5 -8zM733 629l58 -19v-18q-5 1 -11.5 2.5t-9.5 2t-7.5 1.5t-6 2l-4.5 3t-4.5 3.5t-4.5 5.5t-5 7.5t-5 9.5zM635 571q20 24 32 30t46 9q25 -20 37.5 -26.5t40.5 -12.5q3 -12 7.5 -23t11.5 -22t11.5 -18t15.5 -19t15 -16.5 t18.5 -18.5t18.5 -18v-20l-21 -39l37 -37q-11 -35 -22.5 -55t-34.5 -43h16.5t10.5 -1.5t7.5 -2.5l9 -6l13.5 -9v-39q-25 -13 -37.5 -16.5t-40.5 -3.5l21 -96l-78 -19v-98l-94 -19q-1 -28 -4.5 -39t-16.5 -38l-77 20q-2 -4 -4.5 -9.5t-3.5 -7l-3 -4.5t-5.5 -5t-8 -5t-12.5 -8 l-78 -20l-62 78v77h62l16 19q3 33 9.5 45t31.5 33q0 29 4 43t17 34l-21 78q-8 -2 -24 -2q-14 0 -27 2.5t-35.5 9t-32.5 9.5v174q-24 6 -27 9.5t-9 29.5l98 20v19l57 20q0 27 3.5 40t17.5 38q49 -3 94 -21zM365 319l20 -18z" />
<glyph unicode="-" d="M885 647q60 -18 155 -18q34 -55 41 -78l21 39h16v-21q0 -28 10.5 -86t10.5 -88h-21v-96q-68 -20 -180 -20h-53q-14 -14 -19 -16.5t-22 -2.5h-17q-10 6 -14.5 8.5t-8 6.5t-4.5 5.5t-3.5 7.5t-5.5 11h-78q-28 -25 -99 -39q-10 6 -14.5 8.5t-8 6.5t-4.5 5.5t-3.5 7.5 t-5.5 11h-78v-20q-30 0 -44 3.5t-34 16.5h-21l-36 -20l-58 20q-4 -6 -7.5 -10t-8 -7.5t-6.5 -5.5t-8 -4.5t-8 -3.5t-10.5 -4t-12.5 -4l-17 39h-41l-36 39q0 62 16 117q-7 4 -11 6.5t-7.5 4.5t-5.5 5t-3.5 4.5t-3 6.5t-2 7t-2 10t-2.5 13l78 39q0 28 3.5 40.5t16.5 37.5 q34 -3 46 -9t32 -30h17q26 33 45 33t32 -33q50 12 58 12q24 0 41 -12h20q31 27 94 39l41 -60l17 60l61 -39l17 39l98 -21z" />
<glyph unicode="." d="M635 492l20 -21l13.5 9t9.5 6.5t7.5 3t11 2t16.5 0.5q9 -6 12.5 -8.5t7.5 -5t5.5 -5t3 -4t4 -7t4.5 -9.5h77q35 -69 78 -117l19 -57l-56 -39l56 -21q-6 -27 -12 -38.5t-27 -37.5h-37q-8 -26 -13 -30q-4 -3 -24 -9v-77h-98v-21h-176l-58 21l-20 77q-26 13 -35.5 22.5 t-22.5 35.5l-57 20q2 20 11.5 64t9.5 69v21q25 20 37 26.5t40 12.5l17 20v16.5t2 11t3 7.5t6 9.5l9 13.5l58 -21q6 16 17 26t21 14t29.5 9.5t30.5 10.5z" />
<glyph unicode="/" d="M958 1528l99 -21l37 -18v-19h16.5t10.5 -2t7 -3t9.5 -6l13.5 -9v-78q-4 -6 -8 -12.5t-6 -9t-3 -5t-5 -4.5t-5.5 -3t-9.5 -5v-39h-20q-1 -5 -2.5 -13t-2 -10t-2 -7t-3 -6.5t-3.5 -4.5t-5.5 -5t-7.5 -4.5t-11 -6.5q-3 -33 -9.5 -45t-31.5 -33l20 -78q-5 -3 -10.5 -6.5 t-7 -5t-6 -3t-5.5 -2t-6.5 -1t-9 -0.5h-12.5q-8 -38 -18.5 -56.5t-38.5 -39.5q-3 -33 -9.5 -45t-31.5 -33v-98q-24 -13 -36.5 -16t-41.5 -3v-18q28 -12 33 -19.5t8 -40.5h-62l-16 -18q-2 -27 -5 -37t-16 -23v-96q-25 -20 -37 -26.5t-40 -12.5l20 -96q-16 -20 -21 -26.5 t-10.5 -19.5t-9.5 -32l-78 -57l21 -60q-4 -3 -9 -6l-7.5 -4.5l-5 -3t-5 -2t-5 -1.5t-7 -1h-8h-11.5v-78l-57 -20v-97h-20v-96q-19 -19 -29 -26t-29 -13v-96l-57 -78h-78l-20 39h-115q-8 31 -8 60q0 17 3.5 48.5t4.5 45.5q3 3 7 6q3 3 0 11q-1 3 -1.5 5.5t-2 7t-3.5 9.5 l16 39l41 20l21 96h16l21 97q5 3 10.5 6.5t7.5 5.5t5.5 3.5t5.5 2t6.5 1.5t9 1h12.5q5 41 17 67t40 50v57q5 8 8 13t5 8t5.5 5.5t5 3.5t8 4t9.5 5v39h21q1 4 2.5 12t2 10t2 6.5t3 6.5t3.5 5t5.5 5t7.5 5t11 7v78l13.5 9l9 6t7.5 2.5t11 1.5h16q3 36 11 56t30 42v78 q20 24 25.5 35.5t11.5 39.5l57 21v96q29 29 62 39l-21 39q37 35 78 57v15v7v6v4.5t0.5 5t1.5 4t2 4t2.5 4t4 5l5.5 5.5v96q37 35 78 57q-13 21 -14.5 27t-1.5 33l57 57v78q13 4 22.5 9.5t14.5 10t20 19.5z" />
<glyph unicode="0" d="M799 1118q24 -8 29 -12t12 -27h-41v39zM643 1253q-5 -3 -10.5 -6.5t-7 -5t-6 -3t-5.5 -2t-6.5 -1t-9 -0.5h-12.5q-18 -18 -24.5 -28t-12.5 -29l-98 -21q-4 -7 -9 -13.5t-6.5 -9t-3 -7.5t-2 -10.5t-0.5 -16.5l-16 -21q-26 0 -33 -2t-29 -16q6 -35 6 -49q0 -33 -22 -68 l16 -78q-12 -10 -21 -22.5t-13.5 -21t-11.5 -26t-11 -26.5v-39l20 -18l-20 -78q31 -23 46.5 -37.5t31.5 -40.5l-58 18l37 -135l41 -39h78q1 -5 2.5 -13t2 -10t2 -7t3 -6.5t3.5 -4.5t5.5 -5t7.5 -4.5t11 -6.5l20 -78l99 -39q26 42 37 78q49 -31 77 -39l21 58l94 20v78 q30 9 78 39v96q-5 3 -10.5 6.5t-7 5t-6 3t-5.5 2t-6.5 1t-9 0.5h-12.5v39l77 21q0 14 2 39t2 37q0 34 -12.5 53.5t-48.5 23.5v21h14.5t9 0.5t7.5 2t5.5 2.5t9 5.5t11.5 7.5l-20 60l-12.5 12.5t-9.5 8.5t-10.5 8t-10 5t-14.5 5l20 96v39q-3 5 -6.5 10.5t-5.5 7.5t-3.5 5.5 t-2 5.5t-1.5 6.5t-1 9v12.5l-37 39q-33 13 -46.5 22.5t-31.5 34.5l-41 -18l-16 57q-38 -6 -62 0zM606 1430h99q10 -7 14.5 -9.5t8.5 -6.5t4.5 -5t3.5 -7.5t5 -10.5h78l58 -21q20 -29 31.5 -38t45.5 -19q10 -33 37 -60q2 -6 4.5 -13t4.5 -11.5t3 -9t1 -7.5q0 -4 -2 -9 t-5.5 -12t-5.5 -13q30 -9 78 -39l21 -99h20l20 -39v-57q17 -9 20.5 -12.5t18.5 -26.5q-10 -42 -10 -51q0 -12 10 -45v-21q-3 -5 -6.5 -10.5t-5.5 -7.5t-3.5 -5.5t-2 -5.5t-1.5 -6.5t-1 -9v-12.5q17 -9 20.5 -12.5t18.5 -26.5q-19 -65 -19 -117q-1 -2 -3 -4q-14 -22 -23 -27 q-1 -1 -6 -3q-4 -3 -7 -4q12 -24 14.5 -36t4.5 -40l-80 -78v-78l-37 -59q-13 -13 -20 -16t-25 -3h-12v-96l-41 -39h-94q-12 -21 -24.5 -32.5t-37.5 -26.5h-16.5t-10.5 2t-7 3t-9.5 6l-13.5 9q-6 -19 -12.5 -29t-24.5 -28q-5 2 -14 5l-12 4t-8 3.5t-8 5.5t-6.5 7.5t-8.5 11.5 l-78 -19l-21 58l-98 -19q-66 54 -135 78q-7 36 -19 59.5t-38 55.5v78q-18 14 -34 32t-36 45.5t-29 38.5q0 27 3.5 40t17.5 38q-24 8 -33.5 28.5t-14 55.5t-10.5 51q0 27 3.5 40t17.5 38l-41 39q9 25 15 33.5t26 23.5v99h16v75q29 29 62 39q-21 49 -21 99q19 19 29 26t29 13 v16.5t2 10.5t3 7t6 9.5l9 13.5q5 3 10.5 6.5t7 5t6 3t5.5 2t6.5 1t9 0.5h12.5l21 78l37 39q11 0 16.5 0.5t10.5 2t7.5 3t9 6.5t13.5 9h78v18h98v21z" />
<glyph unicode="1" d="M741 1411h58q20 -24 39.5 -34.5t58.5 -22.5l37 -39q0 -57 20 -135q-15 -24 -18 -27t-18 -12l16 -60v-18l-37 -19l37 -116q-8 -75 -16 -99q12 -15 14 -23t2 -34l-16 -18v-39q16 -29 16 -99l20 -18v-39q-20 -47 -20 -135l20 -21v-38q-20 -49 -20 -97q-3 -5 -6 -10.5t-4 -7 t-3 -6t-2 -5.5t-0.5 -6.5t-0.5 -9v-12.5q23 -19 28 -30.5t8 -47.5q-5 -3 -11.5 -7.5t-9 -6t-6 -3.5t-7.5 -2t-9 -0.5t-14 -0.5l-20 -97l-78 39h-21v-57q-32 3 -48 10t-46 29q0 10 -0.5 14.5t-0.5 9t-2 7.5t-3 5.5t-6 9t-8 11.5v96h-21v138h21v114h-21v78h21v19q0 52 20 77 v9.5v7t-0.5 6.5t-0.5 4.5t-1.5 4.5t-2 4t-2.5 5t-3 5t-4.5 6.5t-5.5 7.5v39q8 18 16.5 65.5t24.5 69.5l-21 57q21 62 21 137q-30 10 -38.5 18t-23.5 40l-78 -78q-35 -7 -94 -39h-41q-7 4 -10.5 6.5t-7.5 5.5t-5 3.5t-3.5 4t-3 4.5t-3 6.5t-4.5 8.5l-28 16q0 8 1 23t1 20 q0 6 -1 17.5t-1 17.5q0 36 8 80l41 39q46 -2 78 -18q6 21 12 30.5t24 26.5h58q13 27 57 78q54 21 98 57z" />
<glyph unicode="2" d="M528 1407h95v-18h98v18h98q51 -39 94 -57q3 -5 7.5 -11.5t6 -9t3.5 -7t2.5 -8t1 -9.5t0.5 -15h57q4 -10 13 -28t13 -28t9 -26t6 -32q26 -11 39.5 -22t38.5 -38l-20 -78q20 -28 20 -88v-86l-41 -18v-78l-57 -78q-45 -14 -66 -34t-33 -62l-94 39l-20 -60h-78v-18h-98 l-17 -78l-78 -18v-39l-20 -21q-43 -40 -78 -57q8 -27 8 -43q0 -14 -8 -35q112 -9 156 -39h20q13 9 25.5 13t19 4.5t33.5 1.5q17 -9 19.5 -11.5t17.5 -25.5v16.5t2 10.5t3 7t6 9.5l9 13.5h1l1 -1q23 -7 27 -15q2 -3 5 -14l3 -9h58q30 37 69 37q25 0 49 -18h58v20l98 -20v-154 q-3 -5 -7.5 -11.5t-6 -9t-3.5 -6.5t-2 -8t-0.5 -9.5t-0.5 -14.5l-99 20q-14 -10 -32 -16.5t-44.5 -13t-37.5 -9.5q-28 18 -81 20.5t-75 18.5h-21q-39 -28 -135 -28t-135 28h-20q-31 -20 -78 -20h-37q-48 30 -78 39v77q-15 9 -25 18t-15.5 16.5t-16.5 25.5v37q20 31 20 51v27 q45 53 58 116q41 39 77 58q0 26 1.5 31.5t15.5 27.5q32 16 78 18l20 21v57l135 78h99q2 4 5 10.5t3.5 7.5t4.5 5t8.5 6.5t14.5 9.5l119 18v39l17 21q30 30 61 39q3 35 8 45.5t29 30.5q-21 45 -21 116q-19 19 -24 31.5t-12 46.5q-24 8 -29 12t-12 27h-136q-13 22 -14.5 26.5 t-1.5 30.5q-34 -34 -61 -34q-21 0 -58 16q-4 -26 -13.5 -33.5t-31.5 -7.5q-5 0 -20.5 1t-28.5 1q-13 -25 -23 -33.5t-38 -23.5l-5.5 -16.5t-5 -14t-5 -9.5t-8.5 -10.5t-13 -9.5q3 -5 6.5 -10.5t5.5 -7.5t3.5 -5.5t2 -5.5t1.5 -6.5t1 -9v-12.5l-98 -78h-78q-22 35 -29.5 63.5 t-7.5 71.5h17v78q25 25 35.5 30.5t41.5 8.5q6 50 27.5 73.5t71.5 43.5h20v57q70 21 135 21v18z" />
<glyph unicode="3" d="M479 1407h99v-18h57q6 4 10.5 6.5t10 4.5t9 3t10.5 1.5t10 1t13 1t15 0.5v-18h98l16 -39h58l41 -39v-60q41 -22 78 -57v-78h20v-37q0 -47 -20 -78l20 -59q-22 -14 -29 -16t-32 -2l20 -78q-48 -30 -78 -39v-21l78 -18v-39l41 -18v-39h37q7 -23 41 -78v-19q0 -28 16 -59 v-117q-13 -22 -14.5 -26.5t-1.5 -30.5q-29 -29 -62 -39l21 -78q-43 -40 -78 -57v-78q-52 -29 -98 -39q-21 -38 -58 -78l-77 -18l-58 -78h-24q-27 0 -42 -7t-48 -32q-31 0 -45 3t-33 16h-41l-94 -58q-37 6 -70 6q-29 0 -66 -6q-3 5 -10 16t-10 15t-8 13t-7 14.5t-5 13.5 t-4 15.5t-1 15.5t4 32q-26 10 -31 20.5t-5 39.5v18q40 8 94 39h196q12 12 21 15t30 4h3.5h3.5l20 39h16.5t11 2t7.5 3t9.5 6l13.5 9h77q6 19 12.5 29t24.5 28l78 21v78l21 37h36l21 116q4 7 10.5 21t12 22.5t14.5 16.5v18q-13 11 -15 18t-2 27v12q-62 26 -98 78h-98l-37 -39 q-30 9 -78 39q-6 24 -19 46t-31.5 47.5t-27.5 41.5q48 30 78 39l21 60l135 -21q3 5 5.5 8t5.5 6.5t4.5 5t5 4t5 3.5t6.5 3t6.5 2.5t8.5 3t10 3.5q25 70 57 98q-18 44 -18 111q0 4 1 12.5t1 12.5q-29 6 -39 9.5t-20.5 14.5t-18.5 33q-76 0 -119 20l-36 -59h-58 q-6 11 -13.5 19.5t-12 12.5t-16.5 13t-19 14q-3 -27 -14 -48t-21 -31.5t-39 -36.5h-156l-20 116q24 12 36 14.5t42 4.5l37 117q26 0 32 2t29 16h74zM733 981l17 -18z" />
<glyph unicode="4" d="M655 1012q-13 -25 -16.5 -37.5t-3.5 -40.5l78 20q0 13 -1 20.5t-2 10t-7.5 12t-10.5 15.5h-37zM557 856l21 -57q-25 -10 -33 -24t-8 -38v-35h-37q-3 -45 -14 -68.5t-44 -47.5l37 -174q24 8 29 12t12 27h17q3 -5 5.5 -9t4 -7t4.5 -5.5t4 -4t4.5 -3t5 -2.5t6.5 -2.5t7 -1.5 t9.5 -1.5t10.5 -2.5l37 57l-21 78q30 9 78 39q-5 7 -12 16t-11 14t-7 11t-3 10q0 16 33 27q-14 31 -21.5 39t-35.5 18v20q7 6 13.5 11.5t9 8t5 4t5.5 1.5q6 0 24 -6q-10 28 -18.5 36.5t-38.5 22.5v19q30 9 78 39v18h-78q-30 -9 -78 -39zM655 508v-39h1l1 1q23 7 27 15 q2 3 5 14l3 9h-37zM692 1399q63 -19 158 -19v-96h18q0 -5 -0.5 -15t-1 -13t-1 -10t-1.5 -10.5t-3 -9t-4.5 -10t-6.5 -10.5v-20q18 -29 18 -96h-18v-97l35 -39q-1 -14 -7 -57.5t-6 -65.5q0 -39 13 -71l-17 -96q8 -4 9.5 -5t5.5 -3t5 -4.5t3 -5t6 -9t8 -12.5q-8 -27 -8 -41 q0 -16 8 -37v-39q-13 -25 -16.5 -37.5t-3.5 -40.5l98 39l21 -39h36q20 24 32 30t46 9q18 -45 21 -96h20v-117l-41 -57h-78l-16 39h-119q-22 -132 -37 -175q2 -1 5 -3q14 -7 20 -16q1 -2 4 -7q5 -7 8 -12l-20 -136l-17 -59l-57 -18h-61l-58 18q-20 67 -20 135h-17v78h17v117 q3 5 6.5 10.5t5.5 7.5t3.5 5.5t2 5.5t1.5 6.5t1 9v12.5q-44 -18 -94 -18v39h-139v-21h-58q-39 19 -77 21v-21h-156l-57 59v39q32 43 32 74q0 21 -12 62l21 18l36 20l21 19l-21 39q19 19 29 26t29 13l41 155l78 39l-9 13.5t-6.5 9.5t-3 7.5t-2 11t-0.5 16.5q44 52 57 116 q25 20 37.5 26.5t40.5 12.5v19q0 26 7 36.5t34 22.5l-20 76l20 39l17 20l61 19q5 41 14.5 59t42.5 39v37z" />
<glyph unicode="5" d="M1081 754l21 -21zM553 727q3 3 11 0q5 -2 1 -6q-3 -3 -11 0q-5 2 -1 6zM655 733q6 0 18 -0.5t15.5 -0.5t11 -1.5t10.5 -4t8 -6.5t8 -10.5t7 -15.5q-28 0 -40 3.5t-38 17.5v18zM434 1057q4 4 14 0q5 -2 1 -6t-14 0q-5 2 -1 6zM365 1432h57q46 -19 86 -19q41 0 90 19h16 q43 -24 58 -39h98l41 39q29 -6 41.5 -12.5t32.5 -26.5h78l61 -78q5 3 10.5 6.5t7.5 5.5t5.5 3.5t5.5 2t6.5 1.5t9 1h12.5q-3 -30 -12.5 -47t-20.5 -25t-44 -26h-119l-74 -57l-9 9l-8 8t-6 6.5t-6 7t-4.5 7t-4 9l-3.5 10.5h-15t-8.5 -0.5t-7.5 -2t-5.5 -2.5t-9 -5.5 t-11.5 -7.5h-41q-6 2 -12.5 4t-10 3t-6.5 1q-1 0 -2.5 -0.5t-3 -0.5t-2.5 -1.5t-2 -2t-3 -2.5l-3 -3t-2.5 -4t-3 -4.5t-3.5 -5t-4 -5.5q-30 8 -70 39t-65 39v-19l21 -16l20 -4l-135 -18l16 -78l-16 -39q13 -21 14.5 -26t1.5 -32q-4 -18 -4 -45q0 -33 4 -53h21v15q0 17 3 24 t17 21q7 -28 7 -33q0 -4 -1 -7t-3.5 -7t-5 -7.5t-8 -10.5t-9.5 -13q54 0 98 18h37q24 -13 35.5 -15.5t42.5 -2.5l20 39h17q32 -23 56 -31t63 -8q52 -39 114 -58l21 -98h98q6 -68 37 -117q-3 -53 -21 -96q23 -18 30 -40t7 -57.5t4 -55.5l-12.5 -12.5t-9.5 -8.5t-10.5 -8 t-10 -5t-14.5 -5l-20 -99l-41 -18v-60l-17 -18l-41 -18l-20 -60q-19 -6 -29 -13t-29 -26h-77l-17 -96q-25 -13 -37.5 -16.5t-40.5 -3.5v-16.5t-2 -11t-3 -7.5t-6 -9.5l-9 -13.5h-98v-18h-95q-9 -17 -13.5 -21t-27.5 -18h-57v18h-14.5t-9 -0.5t-7.5 -2t-5.5 -2.5t-9 -5.5 t-11.5 -7.5h-21q-5 3 -10.5 6.5t-7 5t-6 3t-5.5 2t-6.5 1t-9 0.5h-12.5v97h20v116q42 11 50 11q22 0 45 -29q31 31 57 31q17 0 61 -13q2 4 4.5 8.5t2.5 6t2.5 4.5t3.5 3.5t5.5 4t7.5 5.5t11 7h58v21h61v39l94 18l21 18v60q48 30 78 39q-14 26 -17.5 38t-3.5 40q43 13 59 38 t19 76h20v117h-20v78l-21 18h-57q-3 5 -7.5 12t-6 9t-3.5 6.5t-2 8.5t-0.5 9.5t-0.5 14.5h-95v18h-118q-4 -3 -9 -6l-7.5 -4.5l-5 -3t-5 -2t-5 -1.5t-7 -1h-8h-11.5q0 -9 -0.5 -14.5t-0.5 -9.5t-2 -8.5t-3.5 -6.5t-6 -9t-7.5 -12q-28 4 -33 4q-9 0 -41 -4l-20 -96 q-29 0 -41 3t-37 17l20 58q-24 -8 -37 -8q-14 0 -41 8v18h-16.5t-12 2.5t-8 3t-10.5 6.5t-14 9l61 174v18l-41 21q6 29 13.5 43.5t27.5 34.5q-16 29 -16 36q0 9 16 41l-9 13.5t-6 9.5t-3 7.5t-2 11v16.5l37 78h-37q11 27 21.5 40.5t35.5 36.5l-37 19v20l78 76q13 0 20.5 1 t10 2t12 7.5t15.5 10.5z" />
<glyph unicode="6" d="M840 317l16 -20zM631 111q6 6 8 -6q1 -6 0 -7q-6 -6 -8 6q-1 6 0 7zM375 684q-4 -4 -10.5 -9.5t-8.5 -7t-6 -5.5t-5 -6t-3 -6.5t-3 -9.5t-3 -13q17 7 25 11t14 10t6 14q0 12 -6 22zM565 647l-16 -78l-21 -20l-57 -19q-5 -9 -13 -22t-11.5 -20t-8 -17t-6.5 -19t-2 -20v-18 h-16t-10 -1.5t-7 -3t-9 -6t-13 -8.5v-14v-6q0 -15 2.5 -22t13.5 -17v-19q-16 -26 -16 -59v-18q17 -14 27.5 -30t14.5 -27t13 -40q43 -12 52 -21q10 -11 10 -38q57 -3 94 -18q40 4 61 4q18 0 58 -4q35 15 94 18q13 33 23 47t34 31l-16 78h14.5t9 0.5t7.5 2t5.5 2.5t9 5.5 t11.5 7.5v156q-37 35 -78 57v78q-39 0 -60 7.5t-54 31.5l-99 -19q-11 36 -41 78zM799 1421h78l20 -57q32 22 46.5 28t47.5 9q0 -8 2 -24.5t2 -24.5q0 -74 -20 -125h-16.5t-10.5 2t-7 3t-9.5 6l-13.5 9q-21 -26 -41.5 -32.5t-57.5 -6.5h-20q-2 -4 -4.5 -9.5t-3.5 -7l-3 -4.5 t-5.5 -5t-8 -5t-12.5 -8h-119l-16 -77l-78 -19l16 -78l-73 -20q-7 -23 -12 -27t-29 -12v-76l-76 -39v-98l16 -18l39 18l41 -57l21 77h94l41 39q114 -20 172 -20l20 -57l58 18l20 -39h37l57 -57v-39l41 -39l58 -19l-21 -77h16.5t12 -2.5t8 -3t10.5 -6.5t14 -9 q-2 -27 -4.5 -35.5t-15.5 -21.5v-39q13 -14 15.5 -22.5t4.5 -34.5h-20l20 -97q-23 -33 -30 -49t-10 -49q-4 -3 -9 -6l-7.5 -4.5l-5 -3t-5 -2t-5 -1.5t-7 -1h-8h-11.5l-20 -21l-21 -96q-65 -19 -114 -19l-21 -39h-94l-21 -38h-98v18h-135q-5 3 -10.5 6.5t-7.5 5.5t-5.5 3.5 t-5.5 2t-6.5 1.5t-9 1h-12.5q-60 31 -99 39q-37 48 -57 97l-57 18q-9 38 -9 51q0 17 9 47q-22 13 -33 24t-25 34v78h-20v77l-21 19v39q21 54 21 127v67q7 23 12 27t29 12v19l-21 39q8 24 11 27.5t26 10.5q-16 37 -16 97h37v78l57 96l57 20l39 39v57l60 78q49 31 77 39l21 19 v39l37 38h78q2 5 3.5 7t3 5t2.5 4l3 3l3 3t4 3t5.5 3.5l7.5 4.5t9 6q29 -2 39 -4t34 -14z" />
<glyph unicode="7" d="M326 1384h22q33 -26 51 -26q5 0 35 10l45 -10l45 26h31q40 -34 61 -34q11 0 27 8l53 -8q37 26 66 26h4q8 -16 10 -26h12q30 0 46 8l55 -8h8q20 0 35 10q32 -19 45 -19q55 17 80 17h12q21 -82 21 -94q0 -57 -154 -336q-45 -143 -86 -195l8 -63q-22 -4 -72 -146l19 -35 q-37 -60 -37 -79q8 -44 8 -72v-4h-6q-17 0 -29 -64l27 -37v-10q-25 -25 -45 -153q16 -4 16 -23q-46 -129 -96 -129h-2q-77 37 -88 37h-6v22q5 19 18 21q-7 86 -39 111q31 41 31 63q0 4 -20 74q47 15 47 57l-11 16q11 67 11 105q0 18 -2 34t-2 17q0 7 10 17h2q2 0 2 4v6 l-19 69h7q11 0 62.5 96t76.5 169v24q0 4 -4 4h-12q67 70 90 144h4q12 0 12 12v16l-10 21q63 31 65 84q-46 15 -88 51q-84 -17 -135 -45l-53 27q-15 -9 -29 -9l-55 11h-17q-102 -28 -102 -76v-2q0 -11 -57 -82l18 -25v-2q0 -1 2 -3.5t2 -4.5q0 -13 -112 -47q-23 0 -60 129 q4 10 10.5 30t11 32t5.5 16q-12 30 -21 30h-6v7q0 52 37 180l62 -8q8 14 47 34z" />
<glyph unicode="8" d="M578 27v39l-21 18v-57h21zM733 588h37q5 -2 11 -5q8 -3 9 -5.5t1 -15.5v-13q-31 6 -38 10.5t-20 28.5zM848 569v-39h-19v58zM713 530l20 -20zM520 471l17 -18zM713 471l20 -18zM324 395l20 -20zM557 336q6 -8 7.5 -15t1.5 -10t-3.5 -14t-5.5 -18l-20 -21l-58 -18v18 l13.5 9t9.5 6.5t7.5 3t11 2t16.5 0.5v16.5t2 10.5t3 7t6 9.5zM422 279l20 -21zM692 279q24 -8 29 -12t12 -27q-24 8 -29 12t-12 27zM840 272q3 3 13 0q8 -1 3 -6q-3 -3 -13 0q-8 1 -3 6zM500 647q-43 -22 -66 -22q-4 0 -15 1t-18 1q-16 -31 -16 -60v-18l-20 -19 q-27 -2 -36 -4.5t-22 -15.5l58 -57l-99 18l-20 -57q34 -55 41 -78l78 -39l-21 -57q26 -14 38 -17.5t40 -3.5l4 -35l29 -4l24 21q21 -8 37 -8q14 0 41 8l21 -19q-9 -30 -9 -43q0 -3 6 5q7 12 11 3l18 9l10 45q5 -8 8 -13t5 -8t5.5 -5.5t5 -3.5t8 -4t9.5 -5q25 12 37 15.5 t41 4.5l10 -32h21q2 6 4 8.5t3.5 2.5t3 -0.5t2.5 0t1 3.5q0 13 -8 37q54 0 115 18q12 38 26 52t52 26q-3 32 -8.5 43.5t-28.5 34.5h16.5t10.5 2t7 3t9.5 6l13.5 9v19q-32 16 -78 18l41 98q-28 10 -36.5 16.5t-8.5 20.5q0 25 4 41q-120 0 -192 39l-41 -39q-15 15 -58 39h-36 q-30 -10 -37 -10q-8 0 -41 10zM692 1169h41q-7 -23 -12 -27t-29 -12v39zM479 995q24 -8 29 -12t12 -27h-41v39zM750 1227q-46 -19 -95 -19q-4 -3 -10 -6.5t-8 -5t-5 -3.5t-4.5 -3.5l-3 -3t-3.5 -4.5t-3 -5.5t-4 -7.5q-34 17 -77 19l-17 -58h-20v78q-29 -12 -33.5 -19 t-7.5 -40l-115 -19q0 -11 0.5 -16.5t2 -10.5t3 -7.5t6.5 -9t9 -13.5l-78 -39v-20l37 -19l-17 -77q30 -20 39 -32.5t19 -45.5q62 -19 114 -19v-20q30 0 44 3.5t34 16.5h21q17 -12 41 -19t64 -12.5t50 -7.5q24 17 33 22.5t24.5 10t38.5 6.5q3 5 8.5 13.5t6 9.5t2.5 7.5t2 11 v16.5q26 14 35 22.5t22 34.5l-37 -18v18q17 26 17 29q0 4 -17 30q29 23 29 41q0 12 -29 56q25 11 25 30q0 18 -19.5 37t-44.5 29v-16.5t2 -11t2.5 -7.5t6 -9.5t8.5 -13.5q-28 9 -32.5 14t-4.5 25v19q-30 30 -61 39zM422 1364q102 -19 156 -39q18 23 30 28.5t47 10.5 q31 -21 37 -21t41 21l17 -21h20v21h21h38q52 -39 117 -59v-78l17 -19h77l41 -39q0 -28 3.5 -39.5t17.5 -37.5q-2 -26 -5 -35.5t-16 -22.5v-39q13 -19 16 -32.5t5 -44.5l-62 -19q0 -4 -0.5 -11t-0.5 -9.5t-0.5 -7.5t-1.5 -7t-2 -6t-3 -6t-4.5 -5.5t-5.5 -6.5v-78 q-3 -5 -6.5 -10.5t-5 -7t-3 -6t-2 -5.5t-1 -6.5t-0.5 -9v-12.5q28 -8 77 -39l21 -19v-59q14 -10 24.5 -20.5t28 -31.5t21.5 -26v-16.5t2 -10.5t3 -7t6 -9.5l9 -13.5v-21q-8 -24 -8 -35q0 -14 8 -41q-4 -6 -8 -12.5t-6 -9t-3 -5t-5 -4.5t-5.5 -3t-9.5 -5l17 -98l-58 -18 l-37 -97q-3 -1 -16.5 -6.5t-17.5 -7t-15.5 -5.5t-17 -5.5t-15.5 -4.5t-17.5 -4t-17 -2.5t-18.5 -2.5l-20 -60l-135 -18q-3 2 -8 4.5t-7 3t-5 3t-4.5 4t-4.5 5t-5.5 8t-6.5 11.5l-5.5 -16.5t-5 -14t-5 -9.5t-8.5 -10.5t-13 -9.5q3 -5 6.5 -10.5t5.5 -7.5t3.5 -5.5t2 -5.5 t1.5 -6.5t1 -9v-12.5l-20 27l-19 57q-6 0 -19.5 -13.5t-19.5 -13.5q-44 0 -77 21l-13.5 -9t-9.5 -6.5t-7.5 -3t-11 -2t-16.5 -0.5l-20 39l-99 -18q-18 23 -24 35.5t-12 42.5h-119q-6 19 -12.5 29t-24.5 28v78q-33 3 -49.5 10t-48.5 29q-3 34 -9.5 49.5t-27.5 46.5l20 135 q14 23 17 26.5t20 12.5v78q60 39 115 59v58l20 18h58v20q-36 12 -44.5 24.5t-13.5 53.5l-78 19v78q-19 6 -28.5 12.5t-28.5 25.5v19l12.5 12.5t9.5 8.5t10.5 8t10 5t14.5 5q-12 39 -36 78q21 30 27 46t9 50q52 34 119 39v78q61 19 115 59z" />
<glyph unicode="9" d="M791 -23q11 28 17.5 32t39.5 7q-15 -24 -21.5 -28.5t-35.5 -10.5zM635 754q-9 -25 -41 -25q-33 0 -69.5 19.5t-45.5 42.5q-22 -5 -45 -5q-24 0 -49 5q-2 27 -11.5 52t-18.5 39.5t-31 45.5q28 13 37 22t24 35h-16q-26 0 -45 21q30 22 77 36q-21 18 -25.5 25.5t-10.5 34.5 l77 18q-14 24 -17 35.5t-3 42.5h78q13 27 57 78l78 -39q6 26 9.5 29.5t27.5 9.5q12 -35 24 -43.5t54 -13.5l41 -39l-21 -39q33 -18 78 -60q3 -35 8 -45t29 -30l-17 -78q13 0 20.5 -1t10 -2t12 -7.5t15.5 -10.5q-10 -10 -29.5 -26t-29.5 -25.5t-22 -27t-18 -37.5l-114 -37 l20 -60q-11 3 -45.5 31.5t-50.5 28.5h-2zM741 1401q-22 0 -49 -8q-2 4 -4.5 8.5t-2.5 6t-2.5 4.5t-3.5 3.5t-5.5 4t-7.5 5.5t-11 7q-11 0 -16.5 -0.5t-10.5 -2t-7.5 -3t-9 -6.5t-13.5 -9l-98 21l-41 -39h-94q-16 -20 -21 -26.5t-10.5 -19.5t-9.5 -32l-78 -21v-114h-37v-99 q-6 -2 -11 -4t-9 -3.5t-7 -3.5t-5.5 -3.5t-5 -4.5t-3.5 -5t-3.5 -6.5t-3.5 -7t-4 -9t-5 -10.5q20 -34 20 -51q0 -7 -4 -27q12 -40 12 -49q0 -11 -5.5 -34.5t-6.5 -33.5q45 -28 78 -38l-17 -58q22 -29 34 -37.5t44 -19.5v-17v-6.5t1 -6t1.5 -5t2 -5t2.5 -5t4.5 -7t5.5 -8.5 q10 -5 30 -16t29.5 -15.5t24.5 -9t30 -4.5q25 0 41 7q2 -8 3.5 -14.5t4 -12.5t3.5 -9t6 -9.5t6 -8.5t8.5 -10.5t9.5 -11.5h17q27 0 38.5 6.5t22.5 32.5q37 -11 45 -11q3 0 49 11q31 -25 78 -39q4 7 12 19l12 18t8.5 16.5t8.5 22.5h37q9 -32 20 -50.5t37 -46.5h-15t-8.5 -0.5 t-7.5 -2t-5.5 -2.5t-9 -5.5t-11.5 -7.5q4 -28 4 -33q0 -7 -4 -27l37 21q-13 -23 -24.5 -34t-33.5 -25v-39l-57 -19q-20 -68 -20 -117q-51 -3 -70 -16.5t-25 -60.5h-77q-21 -19 -27.5 -25t-15 -19t-15.5 -32h-20q-2 25 -5 33.5t-16 23.5q-33 -10 -45 -10q-7 0 -49 10l-41 -39 v-57l-37 -39l-61 -20v-78h98q4 -7 6.5 -11t4.5 -7.5t5 -5.5t4.5 -3.5t6.5 -3t7 -2t10 -2t13 -2.5q-16 -26 -16 -43v-17h16l41 97q42 0 57.5 5.5t37.5 33.5l9 -6t8 -5t5.5 -3t5.5 -2.5t5.5 -1.5t7.5 -1h8.5h11.5q16 26 16 41v17q50 0 84.5 7.5t71.5 30.5v78h98q3 6 10 19 t10 19t7 16.5t6.5 20.5t3.5 22l78 20l21 96l57 21q0 29 -3.5 42.5t-17.5 33.5q17 31 17 38q0 5 -17 39l62 60q0 10 -2 28t-2 25q0 9 -12.5 26t-12.5 25t4 12l41 37h-37l21 117q-5 8 -7.5 11.5t-5.5 7.5t-4 5.5t-4.5 4t-4.5 3t-6.5 3.5t-8.5 4l20 78q-4 4 -9.5 10.5t-7 8.5 t-5.5 6t-6 5t-6.5 3t-9.5 3t-13 3q17 35 57 78q-11 24 -15.5 32.5t-14.5 19.5t-27 23q0 122 -20 195l-78 18v39q-19 6 -29 13t-29 26q-27 0 -49.5 14.5t-77.5 14.5z" />
<glyph unicode=":" d="M596 604l18 -20l13.5 9t9.5 6t7.5 3t11 2h16.5q23 -15 26.5 -18.5t12.5 -20.5h77q34 -67 78 -116l19 -58l-58 -39l58 -20q-6 -27 -12 -38.5t-27 -37.5h-37q-7 -23 -11.5 -27.5t-27.5 -11.5v-78h-98v-20h-174l-58 20l-20 78q-27 14 -36 22.5t-22 34.5l-57 21q2 20 11.5 64 t9.5 69q0 3 -1 10t-1 11q24 20 36.5 26t40.5 12l19 21v16.5t2 10.5t3 7t6 9.5l9 13.5l58 -20q6 16 17 26t21 13.5t29 9t31 10.5zM614 1229l19 -21q7 4 13.5 9t9 6.5t7.5 3t10.5 2t16.5 0.5q23 -15 26.5 -18.5t12.5 -20.5h78q35 -69 78 -117l18 -57l-57 -39l57 -21 q-4 -19 -9 -31t-9.5 -18t-20.5 -26h-37q-7 -23 -11.5 -27t-27.5 -12v-78h-98v-21h-174l-57 21l-21 78q-26 14 -34.5 22.5t-22.5 34.5l-57 21q2 20 11 64t9 69q0 3 -1 9.5t-1 10.5q25 20 37.5 26.5t40.5 12.5l18 21q0 11 0.5 16.5t2 10.5t3 7.5t6.5 9t9 13.5l57 -21 q6 16 17 26t21 14t29.5 9.5t30.5 10.5z" />
<glyph unicode=";" d="M614 1229l19 -21q7 4 13.5 9t9 6.5t7.5 3t10.5 2t16.5 0.5q23 -15 26.5 -18.5t12.5 -20.5h78q35 -69 78 -117l18 -57l-57 -39l57 -21q-4 -19 -9 -31t-9.5 -18t-20.5 -26h-37q-7 -23 -11.5 -27t-27.5 -12v-78h-98v-21h-174l-57 21l-21 78q-26 14 -34.5 22.5t-22.5 34.5 l-57 21q2 20 11 64t9 69q0 3 -1 9.5t-1 10.5q25 20 37.5 26.5t40.5 12.5l18 21q0 11 0.5 16.5t2 10.5t3 7.5t6.5 9t9 13.5l57 -21q6 16 17 26t21 14t29.5 9.5t30.5 10.5zM743 662q-6 -6 -7.5 5t5.5 11q2 0 2.5 -4t0.5 -8zM733 629l58 -19v-18q-5 1 -11.5 2.5t-9.5 2 t-7.5 1.5t-6 2l-4.5 3t-4.5 3.5t-4.5 5.5t-5 7.5t-5 9.5zM635 571q20 24 32 30t46 9q25 -20 37.5 -26.5t40.5 -12.5q3 -12 7.5 -23t11.5 -22t11.5 -18t15.5 -19t15 -16.5t18.5 -18.5t18.5 -18v-20l-21 -39l37 -37q-11 -35 -22.5 -55t-34.5 -43h16.5t10.5 -1.5t7.5 -2.5l9 -6 l13.5 -9v-39q-25 -13 -37.5 -16.5t-40.5 -3.5l21 -96l-78 -19v-98l-94 -19q-1 -28 -4.5 -39t-16.5 -38l-77 20q-2 -4 -4.5 -9.5t-3.5 -7l-3 -4.5t-5.5 -5t-8 -5t-12.5 -8l-78 -20l-62 78v77h62l16 19q3 33 9.5 45t31.5 33q0 29 4 43t17 34l-21 78q-8 -2 -24 -2 q-14 0 -27 2.5t-35.5 9t-32.5 9.5v174q-24 6 -27 9.5t-9 29.5l98 20v19l57 20q0 27 3.5 40t17.5 38q49 -3 94 -21zM365 319l20 -18z" />
<glyph unicode="&#x3c;" d="M623 -127l139 -106l-4 4q0 11 70.5 26t70.5 17t-4 2l18 96q-20 25 -26.5 37.5t-12.5 40.5l-77 57l20 59q-4 3 -10.5 6.5t-8 5t-5.5 3.5t-6 2.5t-7 1t-9.5 0.5h-12.5v78l-58 20v96h-18v97q-31 31 -59 39v96l-58 78l62 16q-3 33 -8 40.5t-33 19.5v18q30 0 42 2.5t36 15.5 v99q25 21 31.5 33t9.5 45q28 21 38.5 39.5t18.5 56.5h14.5t9 0.5t7.5 2t5.5 2.5t9 5.5t11.5 7.5l-20 78q25 21 31.5 33t9.5 45q7 4 11 6.5t7.5 4.5t5.5 5t3.5 4.5t3 6.5t2 7t2 10t2.5 13h20v39q8 4 9.5 5t5.5 3t5 4.5t3 5t6 9t8 12.5v78q-5 3 -10.5 6.5t-7.5 5.5t-5.5 3.5 t-5.5 2t-6.5 1.5t-9 1h-12.5v19l-37 18l-99 21l-12.5 -12.5t-9.5 -8.5t-10.5 -8t-10 -5t-14.5 -5v-78l-57 -57q0 -27 1.5 -33t14.5 -27q-41 -22 -78 -57v-96l-5.5 -5.5t-4 -5t-2.5 -4t-2 -4t-1.5 -4t-0.5 -5v-4.5v-6v-7v-15q-41 -22 -78 -57l21 -39q-33 -10 -62 -39v-96 l-57 -21q-6 -27 -39.5 -87.5t-54.5 -86.5q-3 -13 31 -40.5t34 -35.5q0 -17 3.5 -48.5t4.5 -45.5q3 -3 7 -6q3 -3 0 -11q-1 -3 -1.5 -5.5t-2 -7t-3.5 -9.5l19 -39l39 -20l20 -96h19l18 -97q5 -3 11.5 -7.5t9 -6t6.5 -3.5t8 -2t9.5 -0.5t14.5 -0.5q5 -41 17.5 -67t40.5 -50 v-57l6 -10.5l4 -7t4 -5.5l3.5 -3.5t4 -3t4 -2.5t6 -3.5t7.5 -3.5v-39z" />
<glyph unicode="=" d="M897 1214q60 -18 156 -18q30 -48 39 -78l20 39h18v-20q0 -28 9.5 -86t9.5 -88h-19v-97q-68 -20 -182 -20h-51q-14 -14 -20 -16.5t-23 -2.5h-14l-10.5 6l-7 4t-5.5 4l-3.5 3.5t-3 4t-2.5 4t-3.5 6t-3.5 7.5h-78q-29 -25 -96 -39l-10.5 6l-7 4t-5.5 4l-3.5 3.5t-3 4t-2.5 4 t-3.5 6t-3.5 7.5h-78v-20q-30 0 -44 3.5t-34 16.5h-18l-39 -20l-58 20q-3 -5 -6 -8t-6 -6.5t-4.5 -5t-5.5 -4t-5.5 -3.5t-6.5 -3t-6.5 -2.5t-8.5 -3t-10 -3.5l-18 39h-39l-39 39q0 56 18 117q-7 4 -11 6.5t-7.5 4.5t-5.5 5t-3.5 4.5t-3 6.5t-2 7t-2 10t-2.5 13l76 39 q0 27 3.5 40t17.5 38q34 -3 45.5 -8.5t31.5 -30.5h19q26 33 45 33q20 0 33 -33q50 12 57 12q22 0 39 -12h20q30 26 97 39l39 -59l18 59l59 -39l19 39l98 -20zM885 647q60 -18 155 -18q34 -55 41 -78l21 39h16v-21q0 -28 10.5 -86t10.5 -88h-21v-96q-68 -20 -180 -20h-53 q-14 -14 -19 -16.5t-22 -2.5h-17q-10 6 -14.5 8.5t-8 6.5t-4.5 5.5t-3.5 7.5t-5.5 11h-78q-28 -25 -99 -39q-10 6 -14.5 8.5t-8 6.5t-4.5 5.5t-3.5 7.5t-5.5 11h-78v-20q-30 0 -44 3.5t-34 16.5h-21l-36 -20l-58 20q-4 -6 -7.5 -10t-8 -7.5t-6.5 -5.5t-8 -4.5t-8 -3.5 t-10.5 -4t-12.5 -4l-17 39h-41l-36 39q0 62 16 117q-7 4 -11 6.5t-7.5 4.5t-5.5 5t-3.5 4.5t-3 6.5t-2 7t-2 10t-2.5 13l78 39q0 28 3.5 40.5t16.5 37.5q34 -3 46 -9t32 -30h17q26 33 45 33t32 -33q50 12 58 12q24 0 41 -12h20q31 27 94 39l41 -60l17 60l61 -39l17 39 l98 -21z" />
<glyph unicode="&#x3e;" d="M590 -127l-139 -106l4 4q0 11 -71 26t-71 17q2 2 6 2l-20 96q16 20 21 26.5t10.5 19.5t9.5 32l78 57l-21 59q5 3 13.5 8.5t9.5 6t7.5 2.5t11 2h16.5v78l57 20v96h20v97q19 19 29 26t29 13v96l57 78l-59 16q0 4 1 11q2 25 7 31.5t31 17.5v18q-30 0 -42 2.5t-36 15.5v99 q-24 20 -30 32t-9 46q-28 21 -38.5 39.5t-18.5 56.5q-11 0 -15 0.5t-8.5 0t-8.5 2t-5.5 3t-9 5.5t-11.5 7l19 78q-24 20 -30 32t-9 46q-24 13 -28.5 20t-10.5 37h-19v39q-1 1 -4 2q-15 8 -22 18q-1 2 -5 8q-4 7 -7 11v78q5 3 10.5 6.5t7.5 5.5t5.5 3.5t5.5 2t6.5 1.5t9 1 h12.5v19l39 18l98 21l12.5 -12.5t9.5 -8.5t10.5 -8t10 -5t14.5 -5v-78l58 -57v-12.5t-0.5 -9.5t-1 -7t-2.5 -6.5t-3 -6t-5.5 -8t-6.5 -10.5q41 -22 78 -57v-96q13 -13 16 -20t3 -25v-15q38 -21 77 -57l-20 -39q28 -8 59 -39v-96l58 -21q6 -27 39.5 -87.5t54.5 -86.5 q3 -13 -31.5 -40.5t-34.5 -35.5q0 -17 -3.5 -48.5t-4.5 -45.5q-3 -3 -7 -6q-3 -3 0 -11q1 -3 1.5 -5.5t2 -7t3.5 -9.5l-16 -39l-41 -20l-21 -96h-16l-21 -97q-5 -3 -10.5 -6.5t-7.5 -5.5t-5.5 -3.5t-5.5 -2t-6.5 -1.5t-9 -1h-12.5q-5 -41 -17 -67t-40 -50v-57q-5 -8 -8 -13 t-5 -8t-5.5 -5.5t-5 -3.5t-8 -4t-9.5 -5v-39z" />
<glyph unicode="?" horiz-adv-x="1310" d="M494 215q14 11 24 16t13.5 5t8 3t11.5 11q0 8 0.5 12t1.5 5.5t4.5 6.5t5.5 9l35 -13q5 12 11.5 17.5t25 11t22.5 6.5l13 -12q4 3 8.5 6l6 4t5.5 1.5t12 0.5q15 -10 23 -22h47q23 -44 47 -68l10 -33l-32 -22l32 -13q-4 -22 -22 -45h-23q-4 -14 -6.5 -16t-15.5 -6v-45h-60 v-12h-104l-35 12l-12 45q-15 8 -21 14t-14 21l-35 10q1 12 7 37.5t6 40.5v12zM508 1083q-18 -33 -23.5 -89.5t-12.5 -91t-32 -34.5q-16 0 -38 -1t-25 -1q-30 -18 -55 -18q-24 0 -39 18q-19 9 -24 40.5t-11 41.5q-20 35 -35 48t-39 24q3 10 9.5 29t12.5 37t11 36q-1 6 -6 101 l-31 28h51q22 0 46.5 18t44.5 40.5t49.5 43t58.5 23.5q28 33 88 33h27q11 0 20.5 1.5t16.5 4.5t12 6t8.5 7t5.5 6.5t4 5.5l2 4h10q27 0 69.5 -19.5t49.5 -19.5q11 0 31 20l67 -32q38 -15 72 -15h21v-20q0 -15 10 -23t28.5 -17.5t30.5 -21.5q6 -2 19 -2h14l14 -41v-26l2 -13 q25 -24 31 -61.5t11.5 -69t31.5 -45.5l25 -12l-21 -20q-19 -19 -61 -95t-80 -108q-23 -73 -107 -121l-45 -29q-70 -43 -86 -58t-16 -32q0 -25 16.5 -50.5t16.5 -43.5q0 -5 -1 -9l-1 -3q0 -44 -64 -72q-19 8 -49.5 10.5t-53 10t-36.5 30.5q-37 26 -37 80q0 16 16 94 q10 4 15 4q-1 3 -4 9.5t-5.5 14.5t-2.5 15v2q15 57 77 105q5 4 25.5 31.5t42.5 39.5q77 23 104 23q8 0 23 -1t20 -1q27 0 27 25q0 71 6 77q8 10 19.5 16.5t23 10t15.5 6.5q-2 9 -22 35.5t-36 58.5q-14 10 -14 29q0 10 5 20.5t11.5 20t7.5 10.5q-4 2 -24 7.5t-32.5 14.5 t-12.5 25v2l8 41q-12 4 -31 4q-8 0 -22 -1t-21 -1q-17 0 -55 -19.5t-55 -19.5q-37 0 -58 37q-65 -21 -95 -44.5t-30 -41.5q0 -8 10.5 -19t28 -28.5t27.5 -34.5zM877 1167l10 7l-4 2z" />
<glyph unicode="@" d="M1133 225q0 -64 -45.5 -101.5t-108.5 -37.5q-31 0 -96.5 16t-104.5 17q-101 4 -176.5 7.5t-104 5t-46.5 2.5t-29 1q-33 0 -82 -2h-10q-56 0 -92 31q-41 1 -56.5 24.5t-17.5 65.5q-5 16 -7.5 35t-5 51.5t-4.5 48.5q-61 35 -61 113v18q-14 50 -14 135q0 59 2 90 q-2 6 -9 25.5t-9.5 27t-7 22t-6 26t-1.5 22.5q0 38 18 70q3 65 45 192q-8 19 -8 44q0 50 70 83q31 11 50.5 42t33.5 40q49 41 74 41q8 0 16 -4q24 6 51 6q15 0 47 -4q35 -35 68 -35q26 0 51 25q13 -1 37 -8.5t37 -7.5q17 0 49 22.5t63 22.5q40 0 88 -39q45 -6 99 -25 q1 0 4 -1t4 -1q7 0 20.5 8.5t20.5 8.5q2 0 12 -5q5 -3 9 -53t8 -53q7 -6 28.5 4.5t26.5 3.5q23 -31 41 -90q45 -51 45 -84q0 -19 -14 -27l8 -266q-4 -26 -31 -55t-35 -47q0 -13 2 -35t2 -31q0 -41 -37 -73l-40 -13v-69q-6 -15 -9 -18t-18 -9l12 -55l-12 -13h-11.5t-8 1.5 t-5.5 2t-6.5 4t-9.5 5.5q-13 -13 -31 -13h-10q-5 1 -12 3.5t-11 4t-8 1.5q-1 0 -37 -9q-29 29 -41 56q-1 -2 -5 -6.5t-5 -5.5t-3.5 -4t-3.5 -3.5t-4 -2.5t-5.5 -3t-6 -2t-8.5 -2q-12 29 -22 29q-4 0 -8 -2t-9.5 -7.5t-8.5 -9t-10 -12.5t-9 -12l-53 28q-3 -23 -23 -35 t-47 -12q-43 0 -68 19l-41 -13q-2 3 -4 6.5t-3 5t-2 3.5t-1.5 4t-1 3.5t-0.5 4.5v5.5v8.5h-12t-7.5 -1.5t-5.5 -2.5t-7 -4t-9 -6h-12q-3 2 -8 5t-6.5 4t-5 2.5t-6 1.5t-7 0.5t-10.5 0.5l-39 27l-41 82q-2 30 -14 53l14 41l-27 14q7 29 13.5 41.5t25.5 26.5v27l29 28q4 2 8 5 t5.5 4t4 2t5 1.5t6 0.5h10.5l-39 67v68q-14 14 -14 33v22l26 12v56h27l14 26q16 6 19.5 9.5t9.5 17.5h53q7 21 27 41q60 0 96 14q50 -14 127 -14h35q34 -20 53 -27q32 -35 41 -53q26 -6 39.5 -14t30.5 -29v-94q5 -3 7.5 -4t4.5 -3.5t3 -3.5t4.5 -6t6.5 -10v-94q-2 -3 -5 -8 t-4 -6.5t-2.5 -5t-1.5 -6t-0.5 -7t-0.5 -10.5q13 -10 17 -15.5t10 -23.5q-3 -2 -7 -4.5t-5 -3.5t-4 -2t-3.5 -1t-4 -0.5t-6 -0.5h-9.5q8 -19 53 -70q0 19 32 69.5t48 112.5q-2 3 -9 10t-10.5 11t-6.5 12t-3 17q0 31 37 86q-13 30 -31 50t-31 27t-22.5 15t-9.5 18t22.5 27 t22.5 26q0 16 -31 44.5t-35 37.5q-15 6 -34.5 28.5t-34.5 25.5q-6 -10 -25 -17.5t-39 -7.5q-116 14 -194 57q-8 -2 -11.5 -8t-5.5 -12t-14 -11t-35 -5q-13 0 -39 2t-37 2q-3 0 -9 -1t-9 -1q-67 -8 -164 -11q-32 -52 -42.5 -147.5t-27.5 -138.5q17 -67 17 -136 q0 -82 -29 -180q6 -68 17.5 -112.5t39.5 -100.5q53 -22 79 -42t26 -48q0 -9 -3 -22t-3 -19q0 -23 33 -33q79 33 118 33q24 0 45 -8q4 0 11.5 1t11.5 1q51 0 104 -31q157 35 271 35q8 0 23 -1t22 -1q22 4 60.5 31.5t53.5 27.5q21 0 34.5 -29.5t13.5 -62.5zM514 659 q17 -11 20.5 -16t8.5 -25q-21 9 -24.5 13.5t-4.5 27.5zM637 686l-27 -27l-41 15h-82q-2 -2 -7.5 -6.5t-7 -5.5l-6 -4t-7 -4t-6.5 -3t-8.5 -3.5t-10.5 -2.5l12 -41q-17 10 -26 10q-12 0 -27 -10l15 -41h26q2 3 4 6.5t3 5t2 3.5t1.5 4t1 3.5t0.5 4.5v5.5v8.5h15v-55l14 -12 h109v55q18 -6 41 -29q9 3 26 9t27 9.5t25.5 6.5t29.5 4l12 82l-12 12h-28q-28 -8 -31 -8q-5 0 -37 8zM543 944q12 -14 14 -41q-4 3 -9 6t-6.5 4.5t-3 3.5t-1.5 5q0 2 2.5 8.5t3.5 13.5zM692 930l13 -12zM610 874h27v-24q24 1 35.5 5.5t32.5 18.5q6 -17 10.5 -23t17.5 -15 q4 7 6 11.5t3 10t1.5 7.5t1 11t0.5 13q-12 23 -12 55q-42 0 -69 12l-54 -12q-5 4 -9.5 6t-10 3t-8 1.5t-11.5 1t-14 0.5l-43 -12l-12 -94h8.5h5.5t4.5 0.5t3.5 1t4 1.5t3.5 2t5 3t6.5 4q3 -5 4.5 -8.5t4 -6t4 -3.5t5 -2.5t5.5 -2t8 -1.5t10 -2q3 2 6.5 5t5 4t4 3t3 3.5 t2 3.5t2 5t1.5 6t2 8z" />
<glyph unicode="A" d="M586 260q30 -21 39.5 -33t19.5 -45l-18 -18h-41q-13 33 -13 47q0 17 13 49zM586 899l20 -18zM645 899v-57h19l20 57h-39zM645 821q-7 -4 -16.5 -9.5t-13 -7.5t-9 -6t-8 -8t-5.5 -10.5t-7 -15.5h78q-28 -28 -37 -59q-4 2 -9.5 6t-7.5 5l-6 3t-6 2.5t-5.5 1.5t-7.5 1.5 t-8.5 0.5h-11.5q-30 -65 -37 -156q76 0 136 -18q49 31 77 39v18l-57 21l21 76q-21 46 -21 116h-39zM741 395q-12 -5 -33 -12t-36 -13t-27 -14h-59q-26 17 -41 17q-14 0 -53 -17q3 -5 5.5 -8t5.5 -6.5t4.5 -5t5 -4t5 -3.5t6.5 -3t6.5 -2.5t8.5 -3t10 -3.5q-8 -5 -21.5 -14 t-19 -13t-14 -11.5t-13.5 -17t-10 -21.5l78 -19v-57l16 -21l99 -18l20 96h78l39 39q-23 77 -23 135h-37zM801 8q-27 12 -52 15.5t-36.5 3t-24 8t-24.5 31.5h-99l-16 -58q-57 0 -119 19q-25 -8 -29 -15l-8 -24q-37 3 -56.5 10t-41.5 29h-250l-41 39l41 116l57 58 q24 -6 27.5 -9.5t9.5 -29.5h21q10 29 18 37t39 22q24 67 57 96q0 27 -1.5 32t-14.5 26v39q11 27 15 52t4.5 37t8.5 24.5t29 23.5q3 35 8 45.5t29 30.5v116h41v35q0 26 6.5 40t30.5 24q-16 37 -16 96q14 23 17 26.5t20 12.5v57q5 8 8 13t5 8t5.5 5.5t5 3.5t8 4t9.5 5v156h36 l37 39v18h21v21l41 36q14 -2 37 -2q27 0 41 2l16 -114q11 0 16.5 -0.5t10.5 -2t7.5 -3t9 -6.5t13.5 -9v-30q0 -24 23 -66v-78h18v-78q8 -4 9.5 -5t5.5 -3t5 -4.5t3 -5t6 -9t8 -12.5v-96h21v-78h20v-116h21v-76q13 -4 22.5 -9.5t14.5 -10t20 -19.5q0 -7 -2 -17t-2 -14 q0 -31 20 -67v-115h21v-78l118 -20l17 -19v-39l61 -18v-39q13 0 20.5 -1t10 -2t12 -7.5t15.5 -10.5q-6 -19 -14 -33.5t-22 -26.5t-22.5 -18.5t-30 -19t-30.5 -18.5h-78v20h-37q-48 0 -78 19l-135 -19h-18z" />
<glyph unicode="B" d="M545 436q7 7 9 -6q0 -5 -1 -6q-7 -7 -9 6q0 5 1 6zM578 934v-39l-60 -21v-18q34 -10 80 -39l74 21v-39h41q47 36 98 57l16 57h58l20 21q6 27 12.5 39t28.5 39v39l-41 18v78l-20 18q-33 3 -43 8.5t-31 30.5l-41 -18v39h-156l-16 -60h-80l-18 -135q5 -3 10.5 -6.5t7 -5 t6 -3t5.5 -2t6.5 -1t9 -0.5h12.5q-20 -25 -26.5 -37.5t-12.5 -40.5h60zM598 662v-76h-41v-117h-39v-78q-14 -10 -20 -17.5t-8.5 -13t-10.5 -26.5l13.5 -9t9.5 -6.5t7.5 -3t11 -2t16.5 -0.5l-9 -13.5l-6 -9t-2.5 -7.5t-1.5 -11v-16q40 -12 64 -12q18 0 53 12q9 -31 37 -59 q3 2 7.5 4t6 3t4 2.5t4 3l3.5 3.5t4.5 5.5l5 7t6.5 10.5q34 2 51 5.5t35.5 16.5t27.5 37q26 -14 38 -17.5t40 -3.5q-2 6 -3.5 11t-2.5 7.5l-2 5t-1.5 3.5t-0.5 2t1 2t2 1.5t3 2.5l4 4q48 10 99 39l-21 58l-78 -19q0 13 1 20.5t2 10t7.5 12t10.5 15.5l78 -19l-21 78l-57 -39 v96l-58 58h-16.5t-10.5 2t-7 3t-9.5 6l-13.5 9h-98v19h-115zM94 1399q59 -5 115 -39l20 39h17q33 -33 41 -60q42 18 98 21v18h74l20 -18h39q4 4 7 6.5t7 4.5t6.5 3t8 1.5t8 1t11 1t12.5 0.5q24 -13 35 -15.5t42 -2.5v18h213v-18h78l17 -39h41l57 -57l41 -117 q13 -4 22.5 -9.5t14.5 -10t20 -19.5q-12 -63 -41 -96v-156q-5 -3 -10.5 -6.5t-7 -5t-6 -3t-5.5 -2t-6.5 -1t-9 -0.5h-12.5v-16.5t-2 -11.5t-3.5 -8t-6.5 -10t-9 -14q41 -22 78 -57v-59q19 -6 29 -13t29 -26q0 -26 -1.5 -31t-15.5 -27l58 -18v-98h20v-97l-41 -18v-78l-78 -20 l21 -78l-99 -97h-77q-6 -19 -12.5 -29t-24.5 -28q-37 7 -58 14.5t-41 24.5q-27 -18 -28 -18q-2 0 -29 18h-20l-17 -39l-155 19q-3 -5 -5.5 -9t-4.5 -7t-5 -5.5t-4 -4t-4.5 -3t-5 -2.5t-6.5 -2.5t-6.5 -1.5t-8.5 -1.5t-10 -2.5l-5 7.5t-4 6.5t-3 4.5t-2.5 4.5t-1.5 4t-1 4.5 t-0.5 4.5t-0.5 6.5v7v9.5q-70 -20 -189 -20h-24v20h-58q-24 -18 -41 -18q-12 0 -36 18h-21l-20 -39q-70 30 -70 117q0 60 33 135l114 -39q17 21 41.5 27t58.5 6t56 6q-4 20 -4 59v29q0 47 -16 86v19q3 5 7.5 11.5t6 9t3.5 6.5t2 8t0.5 9.5t0.5 14.5q-20 26 -20 57 q0 24 20 78q-17 9 -20 12.5t-17 26.5v39q14 23 17 26.5t20 12.5v18l-20 39l20 57q-20 26 -20 78q0 49 20 78l-20 78q3 5 6.5 10.5t5.5 7.5t3.5 5.5t2 5.5t1.5 6.5t1 9v12.5q-24 6 -27.5 9.5t-9.5 29.5q-50 0 -73 -6t-46 -33q-34 3 -45.5 8.5t-31.5 30.5h-37l-41 39 q7 20 10.5 27t10 15t20.5 18z" />
<glyph unicode="C" d="M877 1317l20 -21zM121 715q11 27 15.5 52t5 37t9 24.5t29.5 23.5l-20 76q31 31 59 39l-20 39l59 59q-3 5 -6.5 10.5t-5.5 7.5t-3.5 5.5t-2 5.5t-1.5 6.5t-1 9v12.5q31 31 59 39q0 11 0.5 15t0 8.5t2 8.5t3 5.5t5 9t7.5 11.5q58 37 117 59q3 33 9.5 48t29.5 48h174v19h96 l21 -37h76v-21h77q12 12 60 39h96l39 -39v-57l-39 -21v-16t1.5 -11t2.5 -7.5l6 -9l9 -13.5v-39q-19 -46 -19 -96h-18v-98q13 -4 22.5 -9.5t14.5 -10t20 -19.5v-76h-96q-14 -14 -21 -17.5t-24 -3.5h-15l-10.5 6l-7 4t-5.5 4l-3.5 3.5t-3 4t-2.5 4t-3.5 6t-3.5 7.5 q-29 0 -40.5 3t-36.5 16q4 15 16 53.5t17.5 65.5t5.5 57h-19v76h-78q-30 53 -39 98q-27 -6 -55 -6q-16 0 -48 3t-50 3q-1 -28 -4.5 -40t-16.5 -38h-78l-18 -20v-58l-7.5 -5t-6.5 -4t-4.5 -3t-4.5 -2.5t-4 -1.5t-4.5 -1t-4.5 -0.5t-6.5 -0.5h-7h-9.5l20 -59q-48 -30 -78 -39 v-19l19 -39q-8 -26 -13 -30q-4 -3 -24 -9q6 -24 6 -41q0 -21 -27 -55v-20q23 -31 24 -115.5t15 -116.5q0 -25 -2 -30.5t-16 -28.5q13 -4 22.5 -9.5t14.5 -10t20 -19.5v-37l39 -20l19 -97q44 -3 68 -14.5t48 -44.5q39 39 70 39q22 0 47 -19h18q9 9 18 12.5t14.5 4.5t27.5 2 q8 23 12 27.5t27 11.5v39l12.5 12.5t9.5 8.5t10.5 8t10 5t14.5 5q3 34 8.5 45.5t30.5 31.5v78l18 19h195l18 -39l-18 -39q17 -9 20.5 -12.5t18.5 -26.5v-18q-3 -4 -11.5 -14.5t-11 -13.5t-8.5 -9.5t-12.5 -11t-15.5 -9.5q-3 -36 -8 -47.5t-29 -30.5v-77q-25 -20 -37.5 -26.5 t-40.5 -12.5v-39h-60l-18 -78q-64 -19 -184 -19h-49q-13 -13 -21 -16.5t-25 -3.5h-12l-10.5 6l-7 4t-5.5 4l-3.5 3.5t-3 4t-2.5 4t-3.5 6t-3.5 7.5h-116q-25 20 -37.5 26.5t-40.5 12.5v39l-19 20q-78 27 -78 105v10h-16.5t-10.5 2t-7 3t-9.5 6l-13.5 9q-20 70 -20 187v26 q-22 13 -33 24t-25 34v116l-20 19v39z" />
<glyph unicode="D" d="M696 1434q81 -13 122 -21.5t99.5 -30.5t102.5 -55q133 -97 168 -254q38 -69 53 -264q8 0 8 -10q-20 -39 -20 -117q0 -38 12 -96q-20 -39 -20 -82v-23q0 -10 8 -10q-77 -265 -180 -328q-46 -74 -283 -137h-33l-33 23h-41q-8 0 -8 -13l-24 13h-54l-28 -23h-13l-81 23h-13 q-24 -24 -147 -33q-58 33 -86 33q-29 -9 -29 -23q-127 0 -127 74v22q9 70 21.5 111t23.5 41q10 0 33 -27.5t33 -27.5q1 0 2 -20q0 -5 2 -3l20 -12h21q73 0 94 117q12 0 12 10v12q0 12 -20 82q17 0 33 33l-33 106q20 33 20 62q-20 0 -20 22v64q74 41 74 106q-36 31 -66 31v20 l25 31v23q-33 54 -33 84q0 14 8 63q-15 201 -82 201h-12l-27 43l-6 -29q-12 1 -29 16t-24 15q-18 0 -39.5 -1t-26.5 -1q-8 0 -18 -5t-12.5 -3t-2.5 16q14 22 18 47t3.5 37.5t11.5 21.5t41 9q28 -17 127 -17q0 16 33 33l49 -10l86 20q33 -20 66 -20q21 0 41 10l61 -10z M545 1208l-21 -127v-41q0 -18 29 -32q-21 -34 -21 -62v-12q33 0 33 -21v-10l-53 -10v-21q41 -49 41 -63l-41 -53v-31l53 -86v-21h-33v-63l-20 -31v-12q0 -28 20 -61q-16 0 -32 -33q0 -40 65 -84v-10l-53 -13v-30q44 -95 127 -95l20 31l-8 53h8q68 0 127 -53q21 0 21 21 q-12 20 -12 65l-29 51l41 -30h33q87 0 110 84q33 10 33 63q0 24 -53 33v20h86v21q0 53 -21 53l-8 135l-12 127q27 0 33 53l-74 64l12 53v31q-160 160 -221 160q0 24 -45 30zM709 307h20q21 -3 21 -20v-13h-21q-20 0 -20 23v10zM557 279h12q21 -3 21 -21v-20h-12 q-21 0 -21 20v21z" />
<glyph unicode="E" d="M666 217l18 -18zM549 274l16 -18zM1130 313l17 -18zM991 586l21 -21zM586 565l20 -18zM666 489q29 -14 37 -22t18 -37q-25 13 -32.5 22t-22.5 37zM565 334l21 -21zM643 721l23 -19zM975 1399q24 -19 29 -30.5t8 -47.5q21 8 45 8q20 0 40 -9.5t31.5 -19.5t38.5 -36 l-20 -78q16 -24 16 -43q0 -16 -16 -53l41 -39q-2 -8 -2 -23q0 -17 3.5 -35.5t9.5 -41t9 -36.5q-28 -28 -61 -38v-60h-17l-20 60l-98 18q-8 33 -8 51t8 45l-58 60v18h1l1 1q23 7 27 15q2 3 5 14l3 9l-94 39l21 59h-312l-20 -20h-37q-5 3 -10.5 6.5t-7.5 5.5t-5.5 3.5t-5.5 2 t-6.5 1.5t-9 1h-12.5q-2 -32 -5 -45.5t-16 -32.5v-59l37 -78v-18q-13 -21 -14.5 -26t-1.5 -32l57 -20l-21 -96q95 18 156 18l-18 78l55 20q-23 19 -27 26t-10 32l115 39l20 57h21q6 -19 12.5 -29t24.5 -28v-97h20v-98h-20v-57h-21v-58q16 -24 16 -45q0 -16 -16 -53l78 -39 v-18q-37 -10 -53.5 -24.5t-40.5 -53.5q25 12 37 15.5t41 4.5q13 -21 14.5 -26.5t1.5 -32.5q-36 3 -41 8q-6 7 -16 31h-21q-1 -6 -2 -9.5t-2 -7.5t-2 -6.5t-2 -4.5t-3 -4.5t-3 -4t-4 -4t-4.5 -4t-6.5 -6t-8 -6.5h-20l-58 39v16q0 24 -7 39t-29 41l16 78q-33 10 -38.5 16 t-16.5 41q-41 -25 -60 -25q-27 0 -41 45h-16q-7 -21 -19.5 -39.5t-23.5 -28.5t-35 -30q2 -1 6 -2q29 -11 40 -23q4 -5 11 -14q-51 -32 -75 -39v-18l96 -39q-20 -29 -32 -37.5t-46 -19.5q25 -55 25 -78t-4 -39q28 -22 28 -37q0 -1 -12 -41l135 -18q4 39 14.5 51t47.5 24 l-21 -57q29 6 35.5 10.5t21.5 28.5h58q14 -23 24.5 -33.5t32.5 -23.5q-13 22 -14.5 26.5t-1.5 30.5l16 18l98 -18q18 60 21 117l16 18v39q-9 8 -12.5 15t-3.5 10.5v19.5v14l78 37l16 78h41l78 -115q-3 -33 -9.5 -44.5t-31.5 -32.5l20 -99l-3 -9q-6 -19 -13 -23q-4 -2 -19 -6 l-1 -1h-1l58 -75q-14 -22 -20.5 -32.5t-12.5 -28.5t-8 -38l-78 -96q-25 14 -45 14q-16 0 -45 -13.5t-45 -18.5q-13 22 -14.5 26.5t-1.5 30.5q-58 -11 -119 -39h-13q-18 0 -25.5 3t-19.5 16h-20q-5 -10 -7 -19q-1 -2 -2 0q-2 9 -7 19q-27 -9 -58 -9q-18 0 -58 4.5t-61 4.5 l-13.5 -9l-9 -6t-7.5 -2.5t-11 -1.5h-16q-24 8 -29 12t-12 27q-37 -37 -65 -37q-27 0 -50 17q-30 -15 -41 -15q-9 0 -36 15q-30 -19 -86 -19h-50q-8 31 -8 62q0 17 3.5 48.5t4.5 45.5q-26 6 -30.5 10.5t-10.5 28.5q39 8 58.5 18.5t40.5 38.5h20q20 -24 32 -30t46 -9v57h37 v78q7 23 12 27t29 12q-26 26 -33.5 43.5t-7.5 54.5h41q0 81 -21 136v12q0 17 3.5 24t17.5 21l-21 78q13 32 13 49q0 15 -13 47v21l37 135v18l-37 21q12 76 37 135q-42 10 -49 10q-12 0 -45 -10h-20l-136 39v96q8 4 12 6.5t8 6.5l5.5 5.5t3.5 7t2.5 7.5t2.5 11.5t3 14.5 q37 -12 47.5 -24.5t14.5 -52.5h16q3 25 12.5 38t20.5 13q13 0 25.5 -13.5t19.5 -37.5h20q2 17 6 27.5t7 16.5t15.5 8.5t19 3t30.5 1.5q0 -11 0.5 -16.5t2 -10.5t3 -7.5t6.5 -9t9 -13.5l16 57l98 -39q-3 5 -7.5 11.5t-6 9t-3.5 6.5t-2 8t-0.5 9.5t-0.5 14.5q56 -3 98 -20 q-4 -28 -4 -37t4 -41h21q3 37 10 56.5t29 41.5l5 -7.5t4 -6.5t3 -4.5t2.5 -4.5t1.5 -4t1 -4.5t0.5 -4.5t0.5 -6.5v-7v-9.5l94 39l21 -57q31 22 54 29t65 9q4 8 8.5 14t7.5 9.5t8.5 8.5t8.5 7.5t11 8.5t13 10zM741 1167l21 -20zM840 1167l16 -20zM643 1147l23 -19zM729 1057 q6 6 6 -4l-2 -9q-6 -6 -6 4zM762 1069l16 -18zM627 991l39 -18v-19l-39 -20v57zM926 864q4 0 4 -8v-6l-4 -2q-4 0 -4 10q0 6 4 6z" />
<glyph unicode="F" d="M885 926q3 -9 7.5 -16t8 -11.5t10.5 -9t11 -6.5t13.5 -4.5t13.5 -3.5t17 -3.5t17 -3.5l-20 58h-78zM713 1061l18 -19zM578 965q24 11 35 13.5t42 4.5q-10 -33 -18.5 -44t-38.5 -32zM537 1196l-37 -115h16.5t10.5 -2t7 -3t9.5 -6l13.5 -9q-4 -13 -9.5 -22.5t-10 -14.5 t-19.5 -20q3 -11 7 -22q4 -8 0 -11t-7 -6v-21h19v-18l-19 -19q17 -34 19 -78h118q11 36 37 78v16.5t-2 11t-3 7.5t-6 9.5l-9 13.5q37 27 59 57h39v20l78 19l57 -117q32 11 41 25t17 53h-16.5t-11 2t-7.5 3t-9.5 6l-13.5 9l21 78q-24 13 -29.5 20.5t-11.5 37.5q-52 0 -94 18 h-60v-18h-59v18h-135zM713 1409q4 -1 12 -2.5t10 -2t6.5 -2t6.5 -3t5 -3.5t5 -5.5t5 -7.5t7 -11q42 17 66 17t49 -17h20q12 12 21 15t30 4h7v-19h61q13 13 21 15t36 4l78 -117q-3 -56 -20 -96q28 -22 28 -48q0 -18 -8 -49q5 -5 7.5 -9.5t4.5 -7t2.5 -8t1 -8.5t1 -12t0.5 -14 h-17v-57h17v-9q-2 -37 -13 -60q-2 -4 -4 -9q8 -4 9.5 -5t5.5 -3t5 -4.5t3 -5t6 -9t8 -12.5l-37 -135q-25 -14 -38 -17.5t-40 -3.5l-20 60q-37 4 -45 12t-12 45h-99l9 -9l8 -8t6 -6.5t6 -7t4.5 -7t4 -9l3.5 -10.5q-49 -15 -49 -68q0 -13 4 -42t4 -44q0 -29 -20 -59l20 -99 q-7 -23 -10.5 -26.5t-26.5 -10.5q14 -22 15.5 -27.5t1.5 -31.5q-19 5 -49 15.5t-55 16.5t-50 7l-59 39v14q0 17 3 23t17 20v60q-13 20 -16.5 33.5t-3.5 43.5l-17 19h-118q12 -41 12 -90q0 -34 -6 -103t-6 -98l-9 -13.5l-6 -9t-2.5 -7.5t-1.5 -11v-16q45 -14 80 -39h74 q20 -18 28 -25.5t16 -20.5t15 -32q31 -2 44 -4.5t36 -13.5v-99h-139q-6 -7 -13.5 -13t-12 -8.5t-16 -8.5t-16.5 -9h-114v21q-76 0 -115 18q-11 -26 -22.5 -32.5t-38.5 -6.5h-17l-20 39h-21q-24 -28 -53 -28q-9 0 -30.5 4.5t-30.5 5.5q-14 -14 -21.5 -17.5t-24.5 -3.5h-12v78 h-20v98q19 6 29 12.5t28 24.5h193l20 21v96h-20v68q0 60 20 88v18q-20 28 -20 78v20h-17v76h17v117q-17 9 -20 12.5t-17 26.5v39l37 20l-17 58q16 26 17 33v24h-17l17 98q-26 19 -36 32t-22 44q-55 -10 -86 -10q-38 0 -69 10q-17 55 -17 117q26 42 37 78q59 -5 115 -39 q34 41 114 41q14 0 41 -1t41 -1l17 -39h20q33 41 99 41q40 0 94 -21h20z" />
<glyph unicode="G" d="M492 1458h75v-20h138v-19q31 -2 42.5 -4.5t30.5 -15.5h41q31 20 82 20h53l58 -39q-9 -117 -37 -155l16 -78l-37 -19v-20q41 -34 41 -100q0 -8 -2 -26.5t-2 -27.5q-27 -43 -37 -77h-77l-21 38h-16v19h-21l-41 39v96q-19 19 -25 32t-12 46q-8 3 -11 3.5t-8 3t-5.5 3t-3 4.5 t-2.5 5.5t-2.5 8.5t-3.5 11l-99 -19v97q-70 -21 -135 -21v-37l-57 -59l-78 -19l37 -38v-21l-58 -57v-78q4 -7 9 -13.5t6.5 -9t3 -7.5t2 -10.5t0.5 -16.5q-33 -52 -62 -78q5 -7 10.5 -14.5t8 -11t2.5 -5.5t-2.5 -4.5t-8 -8.5t-10.5 -14q30 -9 78 -39q-6 -34 -6 -63 q0 -23 6 -53l-57 -78q22 -3 37 -12.5t21.5 -19.5t18.5 -30.5t21 -33.5l-20 -99q39 -8 58 -18.5t40 -38.5h37q9 19 10 19q4 1 31 1q23 -7 26 -10.5t11 -27.5l98 18q31 88 57 117v78l21 57q-24 20 -34.5 39t-22.5 57q-29 -29 -62 -39q-21 30 -28 38.5t-24.5 20.5t-41.5 19 q5 13 10 22t13.5 17t14 12t19.5 13t21 14h16.5t10.5 2t7 3t9.5 6l13.5 9l57 -20q20 29 32 37.5t46 19.5q6 -7 11.5 -13t13.5 -10.5t12.5 -8t14.5 -7t14 -5t16.5 -4t16 -3t18.5 -3t18 -3.5q20 24 32 30t46 9l37 -58l78 19q7 -23 41 -78v-18q-32 -35 -60 -47.5t-75 -12.5 q-13 -32 -26 -40.5t-52 -16.5q10 -34 10 -68q0 -33 -10 -67l37 -21v-18l-37 -21v-37q18 -15 25.5 -30t9 -24.5t2.5 -43.5h20v-96q-48 -30 -78 -39h-57q-5 -3 -10.5 -6.5t-7 -5t-6 -3t-5.5 -2t-6.5 -1t-9 -0.5h-12.5q-30 22 -53 28t-66 8l-57 -57l-115 21v18h-119 q-32 22 -47 36.5t-31 41.5h-37l-41 39l-36 57v78l-78 39v78q-19 6 -29 13t-29 26v12q0 17 3.5 24t17.5 21v57q-25 35 -25 101q0 17 2 48.5t2 45.5h-20v57q20 51 20 127v68q19 21 25 28.5t11 20.5t5 29q0 3 -2 8.5t-2 9.5q29 29 62 39v96l37 21v39l36 38h78l41 97h99v20z" />
<glyph unicode="H" d="M874 272q-10 17 -40 47v29h4q26 0 26 17v67q-25 4 -61 74q-12 4 -12 16q0 25 30 27v14l-41 68l-71 -8l-107 10l-22 10h-62q-6 0 -6 -4v-10q-41 24 -84 24v-47q-14 -35 -63 -37l-13 -141l-10 -180v-10q0 -15 27 -15q23 10 32 10h5q27 -53 90 -53q18 10 32 10h4l4 -54 q3 -54 12 -95t25 -45q1 0 2.5 -1t2.5 -1q8 0 10 18t3 41t19 45t54 29q37 45 137 63q4 29 73 82zM1090 1411q1 0 9.5 -4t14 -7t13 -8.5t13 -11t7.5 -12.5l102 2l37 -55l2 -8l-4 2q-74 -45 -82 -60v-2l10 -4l-106 -47q-92 -111 -92 -143v-19q30 -40 30 -65v-2q-20 -31 -20 -49 q20 -103 20 -127v-5q-20 -4 -20 -16v-18q16 -3 16 -29q-6 -92 -6 -100l10 -54l-10 -147q0 -14 10 -31l-10 -63q0 -36 31 -121h61q17 -8 78.5 -49t61.5 -52v-4h-17q-22 11 -37 11v-84q-89 -21 -100 -32q-5 -5 -4 -11q-152 20 -203 20q-5 -16 -35 -31h-12l-53 31 q-82 -13 -94 -20l-66 10h-8l-62 -37l3 -4h-7q-19 0 -55 51q-88 -11 -125 -43q-76 34 -170 43l-51 -31h-2q-4 0 -15.5 3t-33.5 8.5t-37 9.5q-3 1 -29 -10h-2q-14 0 -27 16t-21.5 40t-13 40t-7.5 29q48 13 88 41t66.5 50.5t45.5 24.5v6q0 33 -32 74l32 43v29l-10 65 q10 17 10 31q-10 105 -32 127q34 38 43 125q-21 40 -21 53q10 66 10 82l-20 43q10 71 10 115l-20 31v14l20 31v57q-50 3 -82 74l-49 -10h-12q-45 14 -45 100q0 10 3 17t6.5 11t14 14.5t19.5 20.5l53 -10l41 31h14l72 -21q37 12 37 25v6q14 -2 36.5 -4.5l36 -4t17.5 -1.5 l65 10q101 0 145 -16t44 -68q10 -27 55 -27q18 0 39 89l45 22l213 -20q33 20 55 20h4q8 -31 56 -33q5 9 35 33zM502 1364h-10v-21h10v21zM414 1034q-16 -12 -54 -12v-16q0 -5 5 -5h10l-37 -61v-12l76 10v-29l-31 -41q15 -12 118.5 -34.5t149.5 -24.5q19 28 78.5 60.5 t126.5 45.5l8 19v4q-37 5 -67 63h8q14 0 26 35q-30 43 -40 146l-127 67l-23 25l-180 -84q-28 0 -43 -12t-15 -45v-7h-6q-24 0 -26 33h-4q-19 -3 -19 -16v-19q66 -50 66 -86v-4z" />
<glyph unicode="I" d="M1053 1311l16 -21zM201 1446h135q41 -23 57 -39q27 8 41 8q13 0 37 -8q2 4 4.5 8.5t2.5 6t2.5 4.5t3.5 3.5t5.5 4t7.5 5.5t11 7l98 -39q13 24 20 28.5t38 10.5l20 -39l94 18l62 -36q6 19 12.5 29t24.5 28h41l16 -39q48 15 119 18q3 -7 8.5 -16t7.5 -13t4 -10t3 -10.5 t1 -9.5t-8 -37q38 -23 53 -40.5t25 -55.5q-97 0 -156 -21l-73 21q-20 -13 -34.5 -17t-43.5 -4q-5 3 -12 7.5t-9.5 6t-7 3.5t-8.5 2.5t-10 1t-15 0.5q-5 -38 -14 -51.5t-43 -26.5q18 -60 18 -156h21v-114h-21v-60q23 -33 23 -77q0 -46 -23 -76v-21q25 -40 25 -119 q0 -25 -2 -70.5t-2 -62.5h18v-116h119l57 -19l21 39h37l98 -59q-4 -13 -10.5 -23.5t-10 -14l-20.5 -20.5q30 -9 78 -39v-77l-17 -19h-98v-20h-155l-21 20h-37q-31 -20 -82 -20h-37l-16 -19h-41l-13.5 9l-9 6t-7.5 2.5t-11 1.5h-16q-33 -23 -86 -23q-56 0 -86 23h-21 q-19 -13 -33 -16t-45 -3l-20 19h-37q-19 -13 -33 -16t-45 -3l-57 58v20q24 35 30.5 67.5t6.5 86.5v20l155 39q26 -2 35 -4.5t23 -15.5h20q13 13 22 15.5t36 4.5l57 -20v84q0 75 -21 129v20q23 41 41 57q-8 27 -8 52q0 11 8 65q-20 28 -20 78v18h20v99h-20v135h20v78l21 57 q-35 14 -46.5 27.5t-15.5 50.5l-151 -39h-21q-5 3 -10.5 6.5t-7 5t-6 3t-5.5 2t-6.5 1t-9 0.5h-12.5q-19 -13 -32.5 -15.5t-45.5 -2.5l-41 39q0 11 0.5 16.5t2 10.5t3 7.5t6.5 9t9 13.5h-21v117q33 10 62 39zM1130 1389q16 -13 17 -17v-22h-37z" />
<glyph unicode="J" d="M674 348l18 -18zM539 483h57v-14.5t-0.5 -9t-2 -7.5t-2.5 -5.5t-5.5 -9t-7.5 -11.5h-21q-3 5 -6.5 10.5t-5 7t-3 6t-2 5.5t-1 6.5t-0.5 9v12.5zM578 387l10 -5l6 -2l2 -3q2 -3 1 -5t-1 -9.5v-14.5h-39zM467 1343q-3 -3 0 -12q1 -7 6 -2q3 3 0 12q-1 7 -6 2zM500 1413h78 l18 -57l39 57q49 -2 60 -10q14 -11 18 -47l57 57h21l18 -37h20q23 29 54 29q9 0 30.5 -4.5t30.5 -5.5v18h60q27 -8 45 -8t51 8q17 -42 20 -96h19l18 -96q-26 -13 -34.5 -22t-22.5 -36h-39l-19 58q-44 -14 -116 -21q-6 -30 -10.5 -37t-28.5 -20q18 -51 18 -156h21 q-2 -31 -5 -44t-16 -32q10 -42 10 -53q0 -12 -10 -45q23 -32 23 -98q0 -17 -1 -48.5t-1 -45.5h18q0 -50 21 -99v-18q-21 -56 -21 -125v-49h-18v-78q-4 -5 -10 -13t-8.5 -11t-7.5 -8.5t-8.5 -8.5t-9.5 -7.5t-14 -8.5v-39q-20 -25 -26.5 -37.5t-12.5 -40.5q-73 -13 -137 -60 q-47 0 -96 21h-18l-21 -39q-3 1 -14 3t-14.5 2.5t-13.5 2.5t-14.5 3.5t-13 3.5t-13.5 4.5t-11.5 5.5t-12 6.5t-10.5 7.5l-75 -21l-21 39h-39l-39 39q-2 3 -5 8q-10 15 -11.5 21.5t-1.5 30.5q-42 8 -96 39v96l-39 18v156h18v96l78 78q5 3 10.5 6.5t7.5 5.5t5.5 3.5t5.5 2 t6.5 1.5t9 1h12.5q6 24 9.5 27.5t29.5 9.5l21 -57h77l37 -18v-21h9.5h7t6.5 -0.5t4.5 -0.5t4.5 -1t4 -1.5t5 -2.5t5 -3t6.5 -4l7.5 -5q-10 -33 -20 -45t-40 -33q3 -9 7.5 -19t7 -16t2.5 -10q0 -6 -17 -33v-39h39v-39l-18 -18q-7 2 -11.5 3t-8.5 2t-7.5 3.5t-5.5 3t-5.5 4.5 t-5 5.5t-6.5 8t-8 9.5q-6 -24 -6 -43q0 -29 25 -95h96v16.5t2 11.5t3.5 8t6.5 10t9 14h116v96q17 8 21 10t14 5.5t18 4t23 1.5v114q-28 0 -38.5 3t-37.5 18q26 103 76 153l-39 156v20l39 19q-10 34 -10 67q0 34 10 68l-8 4t-6.5 3.5t-4.5 3t-4.5 3.5t-4 5.5t-5 8t-6.5 11.5 l21 59q-39 8 -53 17t-25 41h-117l-57 39v96q-28 9 -35 16.5t-19 34.5q-3 5 -4 8q37 16 97 19v18z" />
<glyph unicode="K" d="M442 383q37 -4 45 -13t13 -46q-33 10 -40 17.5t-18 41.5zM557 383h39v-39h-39v39zM655 287q39 -2 78 -21v-18h-20q-27 0 -37.5 6.5t-20.5 32.5zM672 53q8 -13 8 -26q0 -11 -9.5 -17t-35.5 -14q1 6 2 9.5t2 7.5t2 6.5t2 4.5t3 4.5t3 4t4 4t4.5 4t6.5 6t8 6.5zM539 653 q-15 -43 -15 -53q0 -12 15 -63l-117 -19v-18h78v-78q-47 -6 -61 -26.5t-17 -71.5q24 -13 36 -16t42 -3q0 -31 2.5 -42.5t15.5 -35.5q28 -9 36 -12.5t23.5 -12.5t22.5 -21t14 -31q5 0 11.5 0.5t9.5 1t7.5 1t6 1.5t4.5 2t4.5 3l3 4t3.5 6.5t3.5 8l4.5 10.5q8 -2 20 -2 q29 0 41 18t17 62l61 -18l37 76h-78l-20 77l-78 39q-3 70 -17 117l-80 -20v59l60 -21q-12 33 -32 47.5t-64 30.5zM1217 788l20 -18zM479 1061l21 -21zM1184 1280q7 7 9 -6q0 -5 -1 -6q-7 -7 -9 6q0 5 1 6zM500 1196h39v-39h-39v39zM596 1139q14 31 22 39t37 18 q-10 -33 -17 -39.5t-42 -17.5zM459 1040q13 24 20.5 28.5t38.5 10.5q-6 -30 -10.5 -37t-28.5 -20zM811 1370l16 -18zM1024 1352l16 -21zM1130 1325q-6 -6 6 -7q9 -1 11 1q6 6 -6 7q-9 1 -11 -1zM131 1391q20 24 32 30t46 9q19 -9 19.5 -10t0.5 -29h17q2 5 3.5 7t3 5t2.5 4 l3 3l3 3t4 3t5.5 3.5l7.5 4.5t9 6l155 -21l17 -78h20q0 48 21 99q19 -4 31 -9t18 -9.5t26 -20.5v-78h-18q-3 -61 -18 -96l-97 18q0 -9 1 -26t1 -23q0 -54 -41 -68q2 -8 8.5 -28t6.5 -29q0 -18 -15 -39v-18q8 -14 14.5 -32.5t14 -46.5t10.5 -38l76 18l21 21l18 78l78 18 l-39 18v21q47 13 66 38t30 79l9 9l8 8t6 6.5t6 7t4.5 7t4 9l3.5 10.5q-60 18 -158 18v21l60 18l-21 117q50 -21 50 -59q0 -10 -4 -35.5t-5 -40.5q19 19 29 26t29 13v78l20 18q82 0 152 21l20 -99h21q0 28 3.5 40.5t16.5 37.5q36 -3 54 -10t40 -29h21l20 39l95 -18l41 -21 v-39q-62 -43 -115 -57l16 -57q-31 0 -42.5 2.5t-35.5 15.5q5 22 0 57l-77 -153q-41 -14 -61.5 -34t-23.5 -36.5t-18.5 -35t-48.5 -29.5l-20 -78q-14 -14 -21.5 -17.5t-24.5 -3.5h-12v-78l37 -18v-78q5 -2 11 -5q8 -3 9 -5.5t1 -15.5v-13h36q3 -11 15.5 -47t18 -59.5 t7.5 -48.5q36 -11 78 -37q9 -33 20.5 -52.5t37.5 -46.5l-7 -14q-6 -11 -4 -13.5t22 -8.5l9 -3v-18q-12 -9 -12 -16q0 -10 12.5 -23.5t30.5 -29.5t26 -27q28 6 40.5 12.5t37.5 26.5l78 -21v-194q-62 -19 -176 -19l-21 -18h-36q-7 4 -17 9l-15 7.5t-12.5 8t-13.5 12.5 q-4 -1 -11.5 -3.5t-8.5 -3t-5.5 -2.5t-5 -3.5t-3 -5.5t-4 -8t-3.5 -11q-66 18 -172 18l-98 58l-39 -76q-22 5 -57 0q-27 9 -80 9t-74 9l-20 -39h-21q-17 25 -78 25q-18 0 -51 -2t-45 -2l-18 -39h-41q-37 35 -78 57v97l20 59q4 3 9 6l7.5 4.5l5 3t5 2t5 1.5t7 1h8h11.5 q-14 22 -15.5 28t-1.5 32h76l-18 -39h57q-4 24 -4 39q0 45 24 135q-16 22 -16 29q0 6 16 28l-20 78q3 5 6.5 10.5t5.5 7.5t3.5 5.5t2 5.5t1.5 6.5t1 9v12.5q-13 12 -16.5 19.5t-3.5 25.5v15l37 57q-29 23 -29 33q0 6 12 24v21q-12 18 -12 35q0 24 29 61v21q-21 33 -21 84 q0 8 2 25t2 26l17 57q-15 15 -22.5 31t-10 28t-4.5 40q-28 -7 -41 -7q-41 0 -74 43q-27 -18 -33 -18q-1 0 -28 18v21q27 18 28 18q6 0 33 -18l-61 117q30 6 53 6q18 0 45 -6z" />
<glyph unicode="L" d="M905 354q7 -23 12 -27t29 -12v39h-41zM246 414l20 -21zM614 393q10 -20 8.5 -23t-24.5 -16zM1159 432l17 -18zM274 1176q6 6 6 -5q1 -8 -1 -10q-6 -6 -6 5q-1 8 1 10zM905 723q20 -15 26 -23.5t15 -33.5q-5 2 -11.5 3.5t-9.5 2.5l-7.5 2.5t-6.5 2.5t-4.5 2.5t-3.5 3 t-1.5 4t-0.5 5.5t4 31zM1237 627l16 -21zM598 606h1l1 -1q23 -7 27 -15q2 -3 5 -14l3 -9h-37v39zM791 606q8 -3 11 -3.5t8 -3t5.5 -3t3 -4.5t2.5 -5.5t2.5 -8.5t3.5 -11q-8 3 -11 3.5t-8 3t-5.5 3t-3 4.5t-2.5 5.5t-2.5 8.5t-3.5 11zM209 1284l20 -18zM16 1284q7 -5 11.5 -9 t7.5 -6.5t5.5 -8.5t3.5 -8t4 -11.5t5 -13.5l-10.5 4.5t-8 3.5t-6 3.5t-4 3t-3 4t-2 4.5t-1.5 6t-0.5 7t-1 9.5t-0.5 11.5zM344 1323l21 -18zM307 1169v39q23 8 26.5 11t10.5 26l-78 -37h-20q-26 13 -37 13q-18 0 -41 -13l-94 19v116l37 78h57l20 -39q29 6 36.5 10.5 t21.5 28.5q32 -4 49 -4q13 0 49 4l21 -98q3 5 11 20.5t10.5 19.5t9.5 14.5t11.5 14.5t12.5 10.5t17.5 10.5t21.5 8q3 -5 7.5 -11.5t6 -9t3.5 -6.5t2 -8t0.5 -9.5t0.5 -14.5h41q0 10 0.5 15t0.5 9t2 8l3 6t5.5 9t7.5 12q5 0 38 -3t50 -3q27 0 65 6l21 -59q25 20 37.5 26.5 t40.5 12.5l20 -19q-5 -19 -16 -49t-18 -55.5t-7 -50.5h-20q-5 23 -5 43q0 24 5 53h-17l-20 -78l-41 -37l-94 19q-20 -20 -33 -26.5t-43 -12.5v-78q26 -13 34.5 -22t22.5 -35q-17 -8 -27 -27.5t-17 -48.5t-13 -41l37 -18v-39l-37 -21v-39q18 -15 25.5 -29.5t9 -24t2.5 -42.5 q13 -14 15.5 -22.5t4.5 -34.5l-39 -39q13 0 20.5 -1t10 -2t12 -7.5t15.5 -10.5q-19 -64 -19 -135q-7 -23 -11.5 -27t-27.5 -12q12 -35 12 -43q0 -16 -12 -35l9 -13.5l6 -9t2.5 -7.5t1.5 -11v-16l75 18q20 -29 32 -37.5t46 -19.5q-16 24 -16 29q0 4 16 28l156 -77 q15 50 37 77v78q28 6 40.5 12.5t37.5 26.5l-78 21v57q27 18 28 18q6 0 33 -18q-3 9 -21 50t-20 67l21 -21q5 6 13 16t11 14l7.5 10t6 10t2.5 9t1 11q0 2 -4 26q51 21 118 21q6 -19 12.5 -29t24.5 -28q12 -32 22.5 -46t35.5 -32l-17 -99q22 -5 58 0l20 -114v-21l-41 -18v-98 l9 -13.5t6.5 -9.5t3 -7.5t2 -11t0.5 -16.5q-4 -3 -9 -6l-7.5 -4.5l-5 -3t-5 -2t-5 -1.5t-7 -1h-8h-11.5q-2 -23 -7.5 -39.5t-11 -26t-22.5 -33.5q-42 -2 -57 -7t-37 -31q-38 3 -57 9.5t-41 28.5h-21q-12 -30 -37 -30q-9 0 -27.5 5t-29.5 7q-20 -13 -34 -16.5t-44 -3.5 l-98 38q-22 -27 -38 -32.5t-58 -5.5v20h-80l-17 57h-20q-10 -34 -37 -77q-49 15 -78 38q-24 -8 -37 -8q-14 0 -41 8q-13 -30 -22 -38t-39 -19l-16 78q-28 -21 -39.5 -29t-33.5 -17.5t-46 -12.5l41 98l-58 18l37 117q16 -2 45 -2q65 0 111 20h20l78 -38q17 87 17 233h-17v57 q17 47 17 111v27l-37 18v18q20 31 20 52v26q12 25 14 97t23 98v16.5t-2 10.5t-3 7t-6 9.5l-9 13.5v39q17 40 20 98h-37z" />
<glyph unicode="M" d="M307 1114q29 6 36.5 10.5t21.5 28.5q-4 0 -11.5 -0.5t-9.5 -1t-7 -1t-6.5 -1.5t-4.5 -2t-4 -3.5t-3 -4.5t-4 -6.5t-3.5 -8zM326 1057q7 -23 11.5 -27t27.5 -12v-60l-39 -18q6 -20 6 -41t-6 -37v-39q3 -5 6.5 -10.5t5.5 -7.5t3.5 -5.5t2 -5.5t1.5 -6.5t1 -9v-12.5h-20v-59 q20 -54 20 -125v-50q9 -7 15.5 -13.5t12 -14.5t8 -12.5t9.5 -17.5t10 -19q-27 -2 -34.5 -4t-20.5 -15l-20 -96l75 -21l-36 -96l135 -20q-6 29 -13.5 43.5t-27.5 34.5v20q29 12 33.5 18.5t7.5 38.5l-13.5 9t-9.5 6.5t-7.5 3t-11 2t-16.5 0.5q9 30 9 39q0 10 -9 37 q21 33 21 80q0 6 -2 18t-2 18h-17q0 66 -20 117l-37 -20l-20 59h57v18q-8 26 -13 30q-4 3 -24 9l16 78q-13 21 -14.5 26t-1.5 32q16 24 16 57q0 14 -2.5 29.5t-7 36.5t-6.5 32q-25 0 -30.5 -2t-28.5 -16zM926 1057l20 -21zM868 958v-18q41 -18 54 -18q28 0 41 36 q-30 -6 -45 -6q-23 0 -50 6zM860 856q-6 -6 4 -7q6 -1 8 1q6 6 -4 7q-6 1 -8 -1zM848 784l-21 -57q33 -10 45 -10t54 10v18zM827 688v-57h99q0 11 -0.5 16.5t-2 10.5t-3 7.5t-6.5 9t-9 13.5h-78zM827 592q-18 -44 -18 -113q0 -4 1 -12t1 -12h-20q-2 -23 -7.5 -39.5 t-10.5 -24t-23 -33.5v-18l41 -21v-57l-41 -20v-19l41 -39h20q21 20 31 28t25.5 16t37.5 14v77h21v78l-99 -18v18l99 19q-17 49 -17 78q0 24 17 77zM152 827v35l16 19v39q-12 14 -19.5 31.5t-9.5 27t-8 39.5q14 23 17 26.5t20 12.5v114q-11 0 -16.5 0.5t-10.5 2t-7.5 3 t-9 6.5t-13.5 9l-17 39l-78 18q4 40 16 62.5t42 54.5h114l21 18h37q46 -18 127 -18h69l37 -39v-16.5t-2 -10.5t-3 -7t-6 -9.5l-9 -13.5h78q-1 -27 -2 -36.5t-6.5 -21t-16.5 -15t-33 -5.5q8 -31 8 -64q0 -32 -8 -71q19 -6 29 -13t29 -26v-9q-2 -37 -13 -60q-2 -4 -4 -9h94 l21 -78h-78q8 -24 8 -33q0 -15 -12 -41t-16 -43q51 -6 71.5 -25.5t26.5 -70.5q22 14 34 30.5t23.5 44t20.5 42.5q-34 11 -41 17.5t-17 39.5l78 21q-8 32 -8 43q0 13 3.5 36.5t4.5 34.5h-16.5t-12 2.5t-8 3t-10.5 6.5t-14 9v39l98 39l-20 57l41 39h36l41 -39l-20 -57h78 q-39 52 -58 114h-98q-29 13 -44 25t-34 35l99 39v96h77v18q44 0 95 21l98 -21v-18h98l58 -18l20 -78l-41 -39h-78q-3 -36 -8 -47.5t-29 -30.5l19 -57q-13 -24 -16 -36.5t-3 -41.5h1l1 -1q23 -7 27 -15q2 -3 5 -14l3 -9q-7 -4 -13.5 -9t-9 -6.5t-7.5 -3t-10.5 -2t-16.5 -0.5 q8 -31 8 -57t-8 -57q17 -9 20.5 -12.5t18.5 -26.5v-12.5t-0.5 -9.5t-1 -7t-2.5 -6.5t-3 -6t-5.5 -8t-6.5 -10.5l58 -18q-2 -11 -7.5 -50.5t-12.5 -64t-19 -41.5v-18q18 -29 18 -98h-18v-58q4 -6 6.5 -10.5t4.5 -10t3 -9t1.5 -10.5t1 -10t1 -13t0.5 -15q20 -20 27.5 -34 t13.5 -43q44 -2 78 -19v-33q0 -87 16 -141h-16.5t-10.5 -2t-7 -3t-9.5 -6l-13.5 -9h-37v39q-30 -9 -78 -39q-29 0 -40.5 3t-36.5 17q-4 -13 -10 -23t-11 -15.5t-20 -20.5q-28 19 -56.5 27.5t-49.5 10t-66 1.5l20 116q-17 -14 -29 -32.5t-16.5 -31t-12.5 -42.5q-2 -7 -3 -10 q-28 -6 -40.5 -12.5t-37.5 -26.5l-74 20l-61 39q-7 25 -30 64.5t-28 50.5h-20l-37 -96q24 -6 27.5 -9.5t9.5 -29.5h-172v-19q-9 0 -27.5 -1t-26.5 -1q-48 0 -81 21l-58 -19l-9 6t-8 5t-5.5 3t-5.5 2.5t-5.5 1.5t-7.5 1h-8.5h-11.5q20 73 20 194l99 39v12v7v6v4.5t0.5 5 t1.5 4t2 4t2.5 4t4 5l5.5 5.5v21q-7 6 -12.5 13t-8 12.5t-7.5 15t-9 16.5v39q25 57 25 142q0 22 -2 65.5t-2 63.5h16v59q-16 23 -16 61z" />
<glyph unicode="N" d="M643 61h39v-38h-39v38zM549 -16l16 -21zM762 313l16 -20zM561 461q3 3 11 0q5 -2 1 -6q-3 -3 -11 0q-5 2 -1 6zM643 467l21 -18zM582 422l12 -6q-3 -3 -11 0q-5 2 -1 6zM643 371l7.5 5t6.5 4t4.5 3t4.5 2.5t4 1.5t4.5 1t4.5 0.5t6.5 0.5h7h9.5v-57q-25 0 -30.5 2 t-28.5 16v21zM895 487l23 -20zM565 506l21 -19zM627 506l16 -19zM840 602l16 -18zM895 565l-18 -59q28 22 28 33q0 6 -10 26zM778 913q24 -8 29 -12t12 -27q-24 8 -29 12t-12 27zM528 797l21 -19zM778 797q6 0 18 -0.5t15.5 -0.5t11 -1.5t10.5 -4t8 -6.5t8 -10.5t7 -15.5 l-78 20v19zM492 700l16 -20zM528 700h37v-38q-23 7 -26 10.5t-11 27.5zM451 952v-24q0 -30 -21 -74q34 -27 50 -45.5t28 -50.5q-21 -1 -26.5 -2t-13.5 -4.5t-17 -12.5q6 -28 9.5 -38.5t14.5 -20.5t33 -18q-12 -40 -12 -64q0 -18 12 -53q-29 -23 -29 -39t29 -39l-37 -135 l21 -58q53 19 94 19q-4 -7 -9 -13.5t-6.5 -9t-3 -7.5t-2 -10.5t-0.5 -16.5q9 0 15 -0.5t10 -1t8.5 -2.5t7 -3.5t9.5 -6t12 -7.5l55 21q9 -30 39 -60l98 21v18l-78 21v192q-11 7 -34.5 29.5t-42.5 29.5q0 65 -21 136l-57 -21q4 7 8.5 13t6 9t4 4.5t-1 4t-5 3t-12.5 5.5v59 q-2 8 -3 18.5t-2 14.5t-4.5 9t-9.5 8.5t-18 7.5q16 37 16 63q0 35 -41 35q-2 0 -7.5 -1t-8.5 -1l41 78zM840 991l16 -20zM459 1055q-4 -4 -1 -13q1 -4 5 0t1 13q-1 4 -5 0zM819 1106h37v-39h-1l-1 1q-23 7 -27 15q-2 3 -5 14zM451 1126v-39q24 8 29 12t12 27h-41zM139 1417 q24 -6 62 0l12.5 -12.5t9.5 -8.5t10.5 -8t10 -5t14.5 -5l16 39q74 -12 99 -12q35 0 78 12l-21 -20q46 -25 74 -25q21 0 45 6q33 -24 54.5 -31.5t60.5 -7.5v-16q0 -37 -6 -56t-31 -44h16t10 -1.5t7 -3t9 -6t13 -8.5v-20q-24 -13 -36 -16t-40 -3v-20h16.5t11 -2t7.5 -2.5 t9.5 -6t13.5 -8.5v-59l77 -18v-97h-59v-20q28 -6 42 -13t38 -26v-135l78 -19l-21 -77q8 -6 13 -10t8.5 -10.5t5 -9.5t5 -13.5l5.5 -16.5q30 48 39 78q-23 8 -27.5 12t-11.5 27l62 20q-41 41 -41 107v47h18v59q-18 24 -18 49q0 33 41 48q-23 53 -23 96l-76 20q-8 25 -24 42 t-29 23t-41.5 16t-42.5 16q10 33 19.5 44.5t39.5 32.5l-9 13.5t-6 9.5t-3 7.5t-2 11v16.5q10 -3 25 -9t23.5 -8t16.5 -2q23 0 54 19l37 -39v39h18v-39q31 31 39 31t20 -31h58q11 28 18 32t41 7l-18 -58q11 7 29 21t32.5 23t32.5 14l20 -19l-20 -39l78 -20q-2 -41 -8.5 -62.5 t-28.5 -52.5h-96v-78h-21v-116l39 -39v-39h-39q14 -47 14 -70q0 -26 -14 -45v-20l39 -19q-4 -28 -4 -37q0 -21 24 -61q-12 -22 -18 -69t-20 -66v-39q14 -14 38 -57v-21q-5 -7 -10.5 -14t-7.5 -10t-2 -5q0 -1 1.5 -3.5t4 -5t6.5 -8t8 -11.5v-21q-3 -5 -6.5 -10.5t-5.5 -7.5 t-3.5 -5.5t-2 -5.5t-1.5 -6.5t-1 -9v-12.5l37 -39q-24 -37 -30.5 -67.5t-6.5 -86.5l-5 -7.5t-4 -6.5t-3 -4.5t-2.5 -4.5t-1.5 -4t-1 -4.5t-0.5 -4.5t-0.5 -6.5v-7v-9.5q-55 0 -101 20q-14 -24 -20.5 -28t-36.5 -10q-13 22 -14.5 26.5t-1.5 30.5h-78q-34 55 -41 78 q-27 -8 -41 -8q-16 0 -37 8l-19 -39h-59l-16 -19v-20l-21 -19l-9 -3l-7.5 -2.5t-5.5 -2t-4.5 -2t-3.5 -3t-3 -4t-2 -5.5t-3 -7l-3 -9q-97 18 -250 18q-5 3 -10.5 6.5t-7.5 5.5t-5.5 3.5t-5.5 2t-6.5 1.5t-9 1h-12.5q-15 -35 -28 -45t-50 -14l21 21q-30 25 -119 57l-37 39 l16 78q11 3 37.5 11.5t40.5 13t36 9t42 5.5q-13 22 -14.5 26.5t-1.5 30.5h57v-16.5t-2 -10.5t-3 -7t-6 -9.5l-9 -13.5q24 20 34.5 39t22.5 57q-17 9 -20 12.5t-17 26.5v18l37 21q-12 22 -12 36q0 17 12 41h-21l21 58q-17 9 -20 12.5t-17 26.5q1 4 2.5 12t2 10t2 6.5t3 6.5 t3.5 5t5.5 5t7.5 5t11 7q-14 26 -17.5 38t-3.5 40q7 23 12 27t29 12q-14 13 -23 28t-13 25.5t-10 30.5t-11 32v39q13 21 14.5 26t1.5 32l-36 20v19q20 31 20 51v26q13 21 14.5 26t1.5 32l-73 59l16 -39q-33 10 -45.5 19t-32.5 39q-29 0 -41 3t-37 17q12 29 23.5 43t38.5 33 q0 59 16 98zM1221 1358q0 -7 -2 -6q-5 2 -4 12l2 4q4 0 4 -10zM702 1165q8 23 12 27t27 12l21 -39h-60z" />
<glyph unicode="O" d="M535 1221l7.5 5t6.5 4t4.5 3t4.5 2.5t4 1.5t4.5 1t4.5 0.5t6.5 0.5h7h9.5v-57q-25 0 -30.5 2t-28.5 16v21zM352 551h58v-16.5t-1.5 -10.5t-2.5 -7.5l-6 -9l-9 -13.5h-20l-9 13.5l-6 9t-2.5 7.5t-1.5 10.5v16.5zM391 455q4 -2 10 -4.5t6.5 -2.5t2 -3t1 -4.5t-0.5 -9.5v-15 h-39zM881 993h57v-14.5t-0.5 -9t-2 -7.5t-2.5 -5.5t-5.5 -9t-7.5 -11.5h-21q-3 5 -6.5 10.5t-5 7t-3 6t-2 5.5t-1 6.5t-0.5 9v12.5zM920 897l10 -5l6 -2l2 -3q2 -3 1 -5t-1 -9.5v-14.5h-39zM666 1458q151 -43 235.5 -80t118.5 -88q24 0 47 -59t69 -217q17 -59 27 -92 l-20 -33v-31l31 -61q-21 -37 -21 -84q21 -67 21 -82q-21 -34 -21 -62v-53q0 -8 10 -8q-37 -58 -82 -229q-44 -68 -94 -103q-102 -96 -102 -125l-54 10h-10q-33 -41 -196 -41l-21 9q-31 0 -31 -29h-20q-9 0 -64 61h-10l-30 -20h-11q-33 47 -111.5 111.5t-113.5 64.5q0 4 7 10 t7 15q0 23 -47 98q-14 39 -25.5 65t-16.5 33.5t-8 14.5t-3 18v160l-31 61q31 64 31 74v22q0 22 3 47t7.5 45t8.5 36.5t7 26.5t3 11q6 0 7.5 3t1.5 19q2 59 15 130q64 47 133 197q46 0 125 104q191 36 228 51zM573 1262l-53 12q-6 -10 -6 -35q0 -13 4 -44t4 -44 q0 -38 -24 -51q0 -15 -31 -15q-12 0 -38 3.5t-36 3.5q-13 0 -16 -7l59 -43q0 -8 -28 -54.5t-61.5 -102.5t-41.5 -82l60 -66q-6 -10 -23.5 -16.5t-32 -11t-14.5 -9.5q10 0 42.5 -36.5t43.5 -69.5q-7 -12 -36.5 -16t-29.5 -13q32 -26 41 -135q59 -115 166 -197q0 -12 15 -12 q7 0 25 4t28 4q6 0 14 -4q11 7 38 56t36 49h2l131 -43q0 -12 -57 -41l-58 -29h21q73 0 168 92l-13 23v8q24 12 40 38t21.5 45.5t17.5 73.5q3 14 5 21q11 0 11 10v11l-21 30v11l21 30q0 37 -11 105l11 51q-10 33 -21 33q6 10 19 20t22.5 17t9.5 12l-10 41l10 20 q-3 24 -11.5 42.5t-24.5 35t-28 26.5t-36.5 27.5t-36.5 26.5v20q0 11 10 11q-27 67 -51 73h-12q-8 0 -13 16q-1 3 -2 -1q0 -3 -1 -12l-17 24l-29 -68l11 41q-15 48 -62 72l-30 -67l2 -7q4 0 4 45q0 29 -6 29q0 30 -4 40.5t-15 10.5h-10q-62 -6 -62 -32zM893 309h33v23h-13 q-20 -3 -20 -23z" />
<glyph unicode="P" d="M778 1053h39v-39h-39v39zM61 102l21 -18zM643 1247q-5 -3 -10.5 -6.5t-7.5 -5.5t-5.5 -3.5t-5.5 -2t-6.5 -1.5t-9 -1h-12.5l-37 -39v-117l78 -39l-78 -37q5 -65 15 -85q13 -21 40 -31v-78q30 11 38.5 19t21.5 38q5 -8 8 -13t5 -8t5.5 -5.5t5 -3.5t8 -4t9.5 -5h112l10.5 6 l7 4t5.5 4l3.5 3.5t3 4t2.5 4t3.5 6t3.5 7.5h78l57 98q0 27 -1.5 32t-14.5 26v96l-9 13.5t-6.5 10t-3 8t-2 11t-0.5 16.5l-57 39h-119v19q-48 0 -94 20h-41zM139 1421l176 -20l21 -19h37q31 19 98 19v20h57q40 -16 58 -16q17 0 57 16h21q43 -20 114 -20q12 12 23 15t39 5 q55 -31 94 -39q3 -5 7.5 -11.5t6 -9t3.5 -6.5t2 -8t0.5 -9.5t0.5 -14.5h78l58 -57q-1 -28 -4.5 -40t-16.5 -38h11.5h8.5t7.5 -1t5.5 -1.5t5.5 -2.5t5.5 -3t8 -5l9 -6l19 -20v-57q11 -6 19.5 -13.5t12.5 -11.5t13.5 -16.5t13.5 -18.5v-18q-5 -8 -7.5 -11.5t-5.5 -7.5t-4 -5.5 t-4.5 -4t-4.5 -3t-6.5 -3.5t-8.5 -4v-96h-18v-78l-59 -19l-37 -39v-38l-62 -60l-14 -3.5t-12 -3.5t-9 -3.5t-8.5 -5.5t-8 -5.5t-10 -8t-11.5 -9.5l-140 21l-16 -39h-21q-24 16 -41 16q-14 0 -57 -16l-12.5 12.5t-9.5 8.5t-10.5 8t-10 5t-14.5 5v-9.5v-7t0.5 -6.5t0.5 -4.5 t1 -4.5t1.5 -4t2.5 -5t3 -5t4 -6.5l5 -7.5v-18q-20 -47 -20 -96q0 -52 20 -99v-14.5t-0.5 -9t-2 -7.5t-2.5 -5.5t-5.5 -9t-7.5 -11.5q31 -6 45 -13t33 -26q27 13 38 16.5t39 4.5l21 -39h37q13 24 20 28.5t37 10.5q21 -56 21 -127v-50l-37 -57l-78 21q-28 -21 -49 -21t-49 21 l-78 -21q-55 21 -135 21l-37 -39q-21 6 -83 16t-93 23q-27 -38 -58 -60l-78 78v135l78 78q42 -2 57 -7.5t37 -31.5q27 8 41 8q13 0 37 -8q1 18 7 49t6 47q0 23 -13 60v18q3 5 7.5 11.5t6 9t3.5 7t2.5 8t1 9.5t0.5 15l-21 18v39q21 55 21 135l-21 21v38q21 54 21 125v50 l41 57q-33 10 -62 39q8 40 8 55t-8 61q5 8 8 13t5 8t5.5 5.5t5 3.5t8 4t9.5 5l-9 13.5t-6 9.5t-3 7.5t-2 11v16.5q-80 -35 -111 -35q-41 0 -82 35h-78l-20 96l20 39h21q0 27 1.5 32.5t14.5 26.5z" />
<glyph unicode="Q" d="M1034 -238h17q2 0 4.5 -1t3.5 -1q4 -1 5 -3t-0.5 -3.5t-4.5 -1.5q-6 0 -10 2l-5 -2l-32 21h-25q-28 -21 -41 -21h-4l-154 119q-40 110 -124 162h-5q-38 -23 -55 -23h-8v10q-2 6 -31 29q-27 -16 -61 -16h-4q-64 58 -135 92q-36 43 -97 132t-61 112q0 30 -49 110 q12 24 12 31l-20 72l10 51q-11 33 -21 43h-16q2 4 8.5 14t10 16.5t7 17.5t3.5 21q0 4 -2.5 9l-6 12t-4.5 10l11 23q-3 20 -11 28h-14q41 77 53 269q133 180 133 231v8h8q39 0 125 72h5q42 0 135 43q176 -30 257.5 -63.5t86.5 -75.5q25 -25 37 -33l36 29h39l-26 -43v-11 q33 -13 56.5 -125t47.5 -301q0 -7 21 -61q-7 -16 -7.5 -26t2.5 -18.5t3 -14.5q8 -49 8 -84q-19 -103 -42 -184t-37.5 -118t-14.5 -38q-6 -26 -156 -195l-8 -31l4 -2q18 33 86 58q17 -9 44.5 -23t44 -22.5t35.5 -20t29.5 -22.5t14.5 -23v-2q0 -114 -111 -238zM705 252 q-7 22 -27 22q-4 0 -12.5 -1t-12.5 -1h-6q-1 -8 -5 -12.5t-22 -16.5t-34 -24q11 -6 43 -33h4zM475 498q29 -6 29 -31v-6l-35 -19l-16 33v23h22zM690 1151h-6v-4q3 -1 7.5 -2t6.5 -2l2 2zM780 1217h-2q-7 -17 -26 -17l-43 10l-7 -12v-20q61 -13 68 -50h2q0 3 8 89zM518 1118 q12 30 76 62l49 -9l2 5q-11 11 -110 63q-11 -44 -97 -57v-21l11 -57v14h69zM633 1284q-8 0 -19 -24v-17q24 3 39 21q-1 3 -4 10t-4 10h-12zM975 569q0 14 -47 23v39h41l35 -27v8l-29 113h10q10 0 10 10v10q-11 59 -23 95t-17.5 43.5t-8.5 7.5h-20l14 16q27 35 27 43 q-14 60 -97 111v6q0 92 -39 92q-20 0 -20 -104v-8h-10q-35 0 -39 51h-27l-57 -47q-20 67 -35 67h-39v-41h-39q-20 0 -20 37q0 27 6 27q2 0 2 -17v-10h-59l-45 -16h-11q-32 0 -51 -135h-39l-14 8q-23 -42 -23 -185v-41q0 -49 -26 -75q10 -27 16 -27h12q-1 -5 -4 -23l-5.5 -33 t-2.5 -18q0 -133 59 -133q31 -6 31 -33v-18h-31v-25l37 -6q15 23 27 23q2 0 11.5 -2t17.5 -2q6 0 26 4q4 18 42 64t65 57q57 -29 90 -29q6 0 11.5 1t6.5 1q3 0 6 -6l29 -64l68 -26l1 -3q0 -2 7.5 -10.5t23.5 -19.5h21l68 117q3 30 57 65v45z" />
<glyph unicode="R" d="M895 713v-31h33v10q0 21 -23 21h-10zM690 1053h39v-39h-39v39zM25 100l20 -18zM555 1247q-5 -3 -10.5 -6.5t-7.5 -5.5t-5.5 -3.5t-5.5 -2t-6.5 -1.5t-9 -1h-12.5l-39 -39v-117l78 -39l-78 -37q2 -28 3.5 -40t7 -30.5t17 -29t29.5 -16.5v-78q29 10 37 18t22 39l6 -10.5 l4 -7t4 -5.5l3.5 -3.5t4 -3t4 -2.5t6 -3.5t7.5 -3.5h115l10.5 6l7 4t5.5 4l3.5 3.5t3 4t2.5 4t3.5 6t3.5 7.5h78l57 98q0 11 -0.5 15t0 8.5t-2 8.5t-3 5.5t-5 9t-7.5 11.5v96q-3 4 -6.5 10.5t-5 8t-3.5 5.5t-2.5 6t-1 7t-0.5 9.5v12.5l-59 39h-117v19q-50 0 -96 20h-39z M690 627l-18 -39h-19q-24 16 -41 16q-14 0 -57 -16l-12.5 12.5t-9.5 8.5t-10.5 8t-10 5t-14.5 5v-9.5v-7t0.5 -6.5t0.5 -4.5t1 -4.5t1.5 -4t2.5 -5t3 -5t4 -6.5l5 -7.5v-18q-20 -47 -20 -96q0 -52 20 -99v-14.5t-0.5 -9t-2 -7.5t-2.5 -5.5t-5.5 -9t-7.5 -11.5 q30 -6 43.5 -12.5t33.5 -26.5q20 10 -13 14q-9 1 -10 1l11 1l19 -38h39q13 24 19.5 28t37.5 10q20 -54 20 -127q0 -5 -18 -17t-18 -17q0 -10 36 -15l-39 -57l-77 20q-27 -20 -50 -20q-5 0 1 2q41 13 44 18q1 2 -2 5l-77 -21q-55 21 -136 21l-38 -39q-19 5 -43 10.5 t-39.5 10.5t-40.5 15q-24 -33 -60 -59l-78 78v135l78 78q42 -2 58.5 -7.5t38.5 -31.5q27 8 41 8q-19 0 -20 -3q0 -1 5 -3q1 17 5.5 48.5t4.5 47.5q0 31 -10 60v18q3 5 7.5 11.5t6 9t3.5 7t2.5 8t1 9.5t0.5 15l-21 18v39q21 55 21 135l-21 21v38q21 54 21 125v50l39 57 q-30 9 -60 39q6 30 6 55q0 27 -6 61l6 10.5l4 7t4 5.5l3.5 3.5t4 3t4 2.5t6 3.5t7.5 3.5q-3 4 -6 9l-4.5 7.5l-3 5t-2 5t-1.5 5t-1 7v8v11.5q-13 -6 -20.5 -12t-9 -9.5t-7 -5.5t-17.5 -2q-40 0 -81 35h-78l-19 96l19 39h20q0 10 0.5 15t0.5 9t2 8l3 6t5.5 9t7.5 12l114 -26 l21 -19h39q31 19 96 19v20h57q40 -16 60 -16q17 0 57 16h20q43 -20 115 -20q13 13 22.5 15.5t37.5 4.5q54 -31 96 -39q6 -9 15.5 -13t17 -4t13 -5t5.5 -17l45 -20l59 -57q-1 -16 6.5 -22.5t11.5 -7.5t-3 -19q15 0 15.5 -8.5t-3 -19t11.5 -20.5l19 -20v-57q11 -6 19.5 -13.5 t12.5 -11.5t13.5 -16.5t13.5 -18.5v-18q-15 -23 -18.5 -26.5t-20.5 -12.5v-96h-20v-78l-58 -19l-38 -39l-35 -135l73 -264l84 -115q16 0 48.5 14.5t46.5 14.5q19 0 32 -16l29 -25l29 -49q2 0 2 -2q0 -1 -14.5 -26.5t-14.5 -45.5q0 -10 2 -16q-10 -23 -10 -31l-76 10 q-15 -43 -74 -43q0 19 -41 33q-33 -20 -63 -20q-46 46 -160 94q0 15 -10 33q10 5 10 94h-43l13 53v31l-33 53q10 65 10 86q-53 27 -53 94h-10l10 53v11q-1 6 -6.5 5.5t-12.5 -4.5z" />
<glyph unicode="S" d="M414 1421h172l20 -20h37q12 12 23 15t39 5q18 -18 24 -27.5t12 -29.5h78v-21h99v19q0 28 16 59h98l21 -96h16l21 -59l-37 -117v-37q12 -17 12 -31q0 -11 -12 -28l16 -78l-57 -57h-94l-21 18v117q-30 9 -78 39v10q0 29 -25.5 68t-31.5 57h-98l-99 39q-22 -22 -40 -29 t-54 -10q-1 -29 -4.5 -41t-15.5 -37h-78v-96l9 -13.5t6 -9.5t3 -7.5t2 -11v-16.5q29 -6 36.5 -10.5t21.5 -28.5h77q22 -14 25 -17t12 -21q48 15 119 18q52 -44 115 -57q20 24 32 30t46 9q12 -44 33 -64.5t65 -32.5l37 -59v-57q20 -20 27.5 -34.5t13.5 -43.5q13 -4 22.5 -9.5 t14.5 -10t20 -19.5v-78l37 -18v-60q-23 -32 -30 -53.5t-7 -61.5q-3 -5 -7.5 -11.5t-6 -9t-3.5 -6.5t-2 -8t-0.5 -9.5t-0.5 -14.5q-4 -3 -9 -6l-7.5 -4.5l-5 -3t-5 -2t-5 -1.5t-7 -1h-8h-11.5l-20 -78l-78 -78h-37q-20 -29 -32 -37.5t-46 -19.5q-3 5 -6.5 10.5t-5.5 7.5 t-3.5 5.5t-2 5.5t-1.5 6.5t-1 9v12.5l-58 -57l-98 -21q-22 13 -32.5 24.5t-24.5 35.5h-37l-21 -39h-20q-37 18 -82 18h-33q-34 55 -41 78l-94 -19v-20l-20 -39q-13 -13 -20 -15.5t-25 -2.5h-13v77q-13 4 -22.5 9.5t-14.5 10t-20 19.5v76h16q0 41 6.5 58.5t34.5 39.5 q-20 43 -20 115q-17 9 -20 12.5t-17 26.5l16 98h21q0 28 3.5 40.5t16.5 37.5q18 -1 37 -5.5t31.5 -9t33.5 -12.5t33 -12l21 -20l-21 -39l58 -19l20 -98q29 -6 42 -12t36 -25l-20 -59q24 -8 29 -12t12 -27h57l16 -39h21q4 13 10 23t11 15.5t20 20.5q3 -1 10.5 -4t9.5 -3.5 t7 -2.5t6.5 -3.5t5 -4t6 -5t5.5 -6.5t7 -9q40 12 61 12q19 0 54 -12q10 29 17.5 36t39.5 21q-29 29 -29 57q0 8 6.5 33.5t6.5 44.5q26 13 38 16.5t40 4.5q-5 10 -15.5 26.5t-14.5 24t-7.5 20t-3.5 25.5v20q-37 14 -52 27.5t-26 48.5l-156 -37q-13 21 -14.5 26t-1.5 32 q-39 3 -58.5 10t-40.5 28h-114q-34 55 -41 78q-24 -6 -37 -6q-14 0 -62 25v39l-57 18q-11 36 -37 78q-2 23 -7.5 39t-11 25t-22.5 34l21 76q34 55 41 78l12.5 12.5t9.5 8.5t10.5 8t10 5t14.5 5v59l57 57h78z" />
<glyph unicode="T" d="M799 1069h39v-39h-39v39zM762 817q13 24 20 28.5t37 10.5q-12 -28 -17.5 -32t-39.5 -7zM471 1223l-20 -39h41q0 27 -1 28.5t-20 10.5zM393 1204l21 -20zM315 1415h37q24 -13 35.5 -15.5t42.5 -2.5v18h62l114 -37q9 17 11.5 19.5t25.5 17.5l156 -37h20l19 37q4 0 9 -0.5 t8 -0.5t6.5 -0.5t5.5 -0.5t5 -1t5 -1.5t4.5 -2l5 -3t5 -3.5t5.5 -5h37q3 3 6 5.5t5.5 4.5t6 3t5.5 2t6.5 1.5t7 0.5t9.5 0.5t11 0.5l21 -37h20v-18h21v-21h16v-18h21l40 -39q10 -50 37 -98l-20 -135h20q0 -48 21 -97v-20q-21 -51 -21 -96q24 -8 29 -12t12 -27l-61 -19 q-9 -33 -20 -52t-37 -46h-99l-37 39q-6 30 -12 42.5t-24 35.5v14v7v6v4.5t0.5 5t1.5 4t2 4t2.5 4t4 5l5.5 5.5v18q-22 27 -37 78v19l37 20l-16 58l36 59q-30 19 -44.5 33t-32.5 43l-58 -19l-12.5 12.5t-9.5 8.5t-10.5 8t-10 5t-14.5 5q-5 -64 -39 -117q27 -24 27 -38 q0 -15 -27 -39q16 -32 18 -78l-18 -19v-39q12 -17 12 -28q0 -12 -12 -29v-20l18 -39l-18 -58q27 -38 39 -77l-39 -117v-39q12 -17 12 -29q0 -11 -12 -28v-39q18 -29 18 -97q35 -3 46.5 -8.5t31.5 -29.5q44 18 115 18l20 -57l21 -19l78 -20l37 -97q-25 -13 -37.5 -16.5 t-40.5 -3.5v-18q-28 -6 -40.5 -12.5t-37.5 -26.5h-78v18h-78l-16 21h-39q-14 -14 -22 -17.5t-25 -3.5h-12q-44 18 -78 18t-78 -18h-16q-55 23 -140 23q-18 0 -57 -1t-57 -1l-37 38v78l12.5 12.5t9.5 8.5t10.5 8t10 5t14.5 5v76h39v-57l96 77q27 -43 37 -77q22 37 38 46.5 t60 10.5v18q0 51 21 80q0 13 -1 20.5t-2 10t-7.5 12t-10.5 15.5l21 77q-26 22 -33.5 41.5t-7.5 55.5v20q-13 21 -14.5 26t-1.5 32l36 38q-34 13 -43 26.5t-14 51.5q38 11 47.5 31t9.5 63v21q-29 20 -37.5 32t-19.5 46q5 3 10.5 6.5t7.5 5.5t5.5 3.5t5.5 2t6.5 1.5t9 1h12.5 q-8 31 -8 58q0 28 8 59q-23 7 -25.5 10t-10.5 27h-78q-3 2 -8 4.5t-7 3t-5 3t-4.5 4t-4.5 5t-5.5 8t-6.5 11.5q-25 -66 -25 -94q0 -27 4 -41q-24 -22 -24 -60q0 -11 4 -36t4 -40h-21v-96q-9 -17 -13.5 -21t-27.5 -18q24 -8 29 -12t12 -27l-114 -59h-78l-41 39l20 98h-20v76 l-9 13.5t-6.5 10t-3 8t-2 11t-0.5 16.5q41 60 62 135q-7 23 -12 27t-29 12q11 34 19.5 46t37.5 32v78l78 78q21 6 23 9t-2 28q30 0 41.5 2.5t35.5 15.5z" />
<glyph unicode="U" d="M848 1163q-12 0 -17 8q-37 -18 -81 -18h-17v61q-11 2 -33 13l-32 14l-95 -16q-119 -12 -196 -60l8 -61q-10 -18 -10 -29l10 -69h-4q-16 0 -16 -25q0 -17 20 -63q-10 -71 -10 -115q0 -27 22 -64q-3 -5 -8.5 -14.5t-7.5 -13.5t-5.5 -10.5t-2.5 -8t2 -4.5q24 -11 26 -13 l-20 7h4q-1 -4 6 -24.5t14 -49.5t7 -53q0 -21 -6 -39q6 -2 -8 -9q-23 -12 -23 -18v-61q0 -10 14.5 -37.5t11.5 -48.5q7 -12 7 -31q0 -16 -8 -37.5t-7 -27.5h53q12 -24 27.5 -45t24.5 -30l10 -9l-8 61q15 9 58 16t60 7l-45 -64q3 -8 11 -8q9 0 40 18.5t40 18.5q15 4 28.5 8 t23 6t18.5 4.5t14.5 3.5t10.5 2.5t7.5 2.5t4.5 2t2.5 2.5t0.5 3.5q0 1 -4 18t-4 37q0 1 40 42t42 60q-21 9 -21 19l4 2l-40 25l49 4v8q0 46 8 82q-8 36 -8 82v2l28 102q-1 2 -6 17.5t-9.5 27.5t-8.5 14h-4l20 99q-12 94 -12 114v162zM762 1333q-17 -3 -17 -14v-14h41v14 q0 14 -16 14h-8zM512 1333q0 17 -12 17l-8 -17v-4h20v4zM119 1397q78 0 78 16v8l24 -14h86l74 -21q112 11 115 11q100 -28 102 -115l20 25q88 90 164 90q102 -9 168 -31q62 10 94 10h54q15 0 19 -0.5t5 -4.5t1.5 -10t10.5 -19t29 -29h8q25 9 25 16v10l66 -55 q-99 -50 -99 -70v-2l29 -4q2 0 2 -4q0 -2 -2 -4t-4 -2h-8l-74 -31l-29 19l-37 -96v-11q3 -16 13 -16h8q-37 -80 -41 -107l29 -63q-21 -86 -21 -105l33 -53q-33 -42 -33 -73v-115q0 -99 -8 -187q8 -33 8 -104q-90 -239 -192 -244q-39 -63 -66 -63l-41 20q-29 -10 -29 -16v-8 q-44 24 -86 24l-45 -30h-32q-302 118 -353 286l13 54v10q0 45 -17 45h-8l12 57v33q0 31 -32 72l45 86v26l-33 43v13l20 32v60l-20 78h4q10 0 18.5 31t10.5 65q-18 4 -33 35l33 43v10q0 27 -33 69v3q0 25 20 63q-7 25 -45 45l-41 -29h-12q-78 38 -78 140q3 53 58 98z" />
<glyph unicode="V" d="M520 1104q10 47 70 47h8l-39 -74q-39 14 -39 27zM647 870q-12 0 -14 -4v-39l59 -30q3 -2 9.5 5.5t13.5 22.5v19q0 16 -15 16q-4 0 -23 5t-30 5zM741 1180q-3 0 -15 3.5t-28.5 9t-25.5 7.5q-8 -19 -45 -41l-43 21l-95 -11q-34 21 -59 21l-8 -16q6 -19 94 -111v-27 q-41 -5 -41 -28v-66q51 -4 51 -68v-4q-12 -4 -19.5 -8t-8.5 -6l-2 -2q55 -107 73 -266q37 -29 64 -29q10 17 10 25l-12 22q43 65 43 92v17l-41 10l-31 88l-43 41v55q0 13 55 13h11q71 0 112 8v16l-22 31v2q0 11 63 74v61q0 4 -4 4h-10l35 58q-2 9 -27 24h-14q-2 -20 -17 -20 zM731 1372h-6v-20h23v4q0 16 -17 16zM92 1434h12q105 -9 166 -9h41l74 19l41 -21l53 21q12 0 96 -41l54 10l12 -24v-25l-49 -57q15 -9 24 -9q31 0 60 115h2q37 0 37 17v6l59 -11h8l41 29h35q44 -29 72 -29l20 9l64 -11l30 21h25q1 -1 48.5 -5.5t51.5 -4.5h2q93 -66 93 -127 q0 -69 -115 -142l-109 19l-71 -260l10 -21q-34 -59 -86 -252h-4q-4 -1 -13 -14.5t-14 -24.5v-102q-29 -33 -31 -66q31 -2 31 -26v-15h-4q-49 0 -49 -88v-16h10v-45l-4 -4l-6 4q0 16 -14 16h-11q-16 -3 -16 -16v-94q-63 -160 -174 -160q-152 48 -152 262l-30 41l10 53 q-45 69 -62 275l-1 1q-3 2 -5.5 5t-10 21.5t-15.5 48.5q10 15 10 41q-41 60 -72 274q-22 3 -22 25q10 44 10 81q-47 82 -57 89h-72q-107 0 -119 88v10q0 93 86 119zM741 1180z" />
<glyph unicode="W" d="M586 958l20 -18zM627 958v-38q23 7 26 10.5t11 27.5h-37zM819 958q13 -23 19.5 -27.5t38.5 -10.5v10.5v8v5t-0.5 3.5t-1.5 2.5t-2.5 2t-3.5 1t-5.5 2t-7.5 3.5h-37zM844 868q-3 -3 1 -11q3 -5 7 -1q3 3 -1 11q-3 5 -7 1zM819 727l21 -20zM430 1192l21 -21zM352 1229 l21 -58l-21 -18l-57 18q4 -9 5.5 -13t3.5 -9t5 -6.5t4 -3.5t6.5 -2.5t7.5 -1t11 -1.5t14 -1q-1 -14 -4.5 -42.5t-3.5 -43.5q0 -32 8 -50l-5.5 -5.5t-4 -5t-2.5 -4t-2 -4t-1.5 -4t-0.5 -5v-4.5v-6v-7v-12l57 -117q26 14 35.5 23t22.5 35l-37 -19v19q28 28 28 55q0 11 -6 21.5 t-20.5 28.5t-22.5 30h135v20h78v19h-114q6 30 12 42.5t24 35.5q-21 30 -28.5 54t-7.5 62h-99zM778 1249l21 -78l-58 -18q8 -26 13 -30q4 -3 24 -9v-78l119 -20v137l-78 18v21q51 15 78 37q-51 20 -119 20zM1053 1384q20 25 31.5 30.5t45.5 8.5l37 -96q41 -2 78 -20v-78 q-30 -21 -47 -27.5t-51 -9.5q-33 -86 -37 -137h-20v-135q13 -14 15.5 -23t4.5 -35q-27 -37 -34 -68t-7 -87q-4 -6 -8 -12.5t-6 -9t-3 -5t-5 -4.5t-5.5 -3t-9.5 -5v-37q0 -49 -20 -80v-19q16 -21 16 -38q0 -18 -16 -39l20 -78q-27 -37 -34 -67.5t-7 -86.5q25 -21 31.5 -33 t9.5 -45q-24 -8 -29 -12t-12 -27l-16 -20h-21l-20 -57h-12q-19 0 -26.5 2.5t-18.5 15.5h-37q-19 -13 -32.5 -15.5t-45.5 -2.5v96l-41 20v97q-33 21 -42.5 38t-14.5 58l57 20q-16 37 -16 97l-41 39v16.5t2 10.5t3 7t6 9.5l9 13.5q-16 22 -16 31q0 6 16 28v39q-13 20 -16.5 34 t-3.5 44l-21 37h-16q-2 -31 -5 -44t-16 -32v-39q13 -15 16 -24t5 -35q-24 -13 -36.5 -16t-41.5 -3q22 -31 28.5 -52.5t8.5 -63.5q25 -21 31.5 -33t9.5 -45h-78l16 -96q-26 -42 -37 -78q25 12 37 15.5t41 4.5l21 -20q-1 -28 -4.5 -40t-16.5 -38q-24 8 -29 12t-12 27h-37 q-1 -4 -3.5 -11t-2.5 -8.5t-2.5 -5.5t-3 -4.5t-5.5 -3t-8 -3t-11 -3.5v-19q9 -5 14 -9t8 -6.5t5.5 -8t3 -8t2.5 -12t3 -15.5h-98l-16 -37h-62l-37 37q0 11 0.5 16.5t2 11t3 8t6.5 10l9 13.5q-33 10 -62 39q0 76 -16 117l16 96q-32 25 -32 43q0 13 16 35v39q-18 16 -41 57 v213l-37 39v25q0 19 -20 53q7 23 41 78q-21 17 -29 26.5t-8 20.5q0 3 16 49q-37 27 -37 64q0 9 17 71h-99q0 38 -5.5 52t-30.5 45v59l77 57l99 -18l37 39h36v-39l99 39v-78l57 -20q3 3 7 6q3 3 0 11q-1 3 -1.5 5.5t-2 7t-3.5 9.5q21 -3 37 -3q17 0 41 3v20l41 18h16 q6 -4 14.5 -9.5t10 -6t5.5 -4.5t5.5 -7l5.5 -11q28 8 58 38q39 -24 69 -24q7 0 22.5 2.5t22.5 3.5l9 -13.5t6.5 -10t3 -8t2 -11t0.5 -16.5l135 39v16.5t2 11.5t3 7.5t6.5 10t8.5 13.5z" />
<glyph unicode="X" d="M737 1118q-12 29 -16 29h-8q12 24 12 35q-9 59 -27 59h-16l-23 -53h-14l-51 31q-21 -38 -62 -41v-66l43 -10q-20 -70 -20 -88q0 -7 15.5 -22t31.5 -25q30 24 113 51q0 29 22 100zM553 287q27 -10 27 -19q0 -3 -9 -5.5t-22.5 -5.5t-20.5 -7l-24 8h-15v-49l-30 -41 q23 -25 55 -44t50 -25.5t28 -8.5l20 -20l-61 20l65 -37l-30 -26q-89 -29 -144 -66h-14l-41 31h-18l-33 -21q-14 2 -35 4.5t-34.5 4.5t-16.5 2l-68 -11q-6 31 -59 31l-45 -20l-35 47l10 73q-10 23 -10 33v4h14q8 0 13 10t10.5 17t15.5 2q17 6 28.5 11t12.5 5l33 17l-16 4 l20 12q4 31 14.5 50.5t27 28t31 11t36.5 2.5h47q3 82 129 273q26 53 41 166q-29 77 -80 77h-4v39l20 31v8q-51 48 -76.5 87t-26.5 55t-6.5 24t-25.5 8h-4v58q-46 82 -164 82h-2q-5 3 -15 10.5t-16 11.5t-14.5 10.5t-13 10.5t-9.5 9t-7.5 8.5t-2.5 6.5v10q0 77 111 101 q56 -11 84 -11q39 0 39 17v8l26 -14h31q12 0 40 -4.5t40 -4.5q7 0 16 3l-10 16q47 -20 87.5 -41t70.5 -39t37 -22l127 57l-13 35q6 2 35 20t58.5 31.5t48.5 13.5q29 0 32 -35l2 -20l213 -21q57 0 99 -77v-33q0 -16 -78 -70l-74 23q-157 -162 -157 -258v-4h-5 q-38 0 -120 -181h4l3 -1q2 -1 3.5 -1.5l4.5 -1.5t4.5 -2t4 -3.5t3.5 -4.5t2 -5t1 -7v-13q-62 -41 -65 -59q51 -59 63 -145q23 -14 86 -222q23 -15 137 -126q21 -9 29 -9h6l-10 -53h4q45 30 49 37v6q74 -25 74 -92v-62q0 -20 -37 -38q-51 10 -84 10q-35 -21 -65 -21h-13 q-27 21 -39 21l-45 -21q-35 21 -63 21h-8l-33 -21h-35q-75 49 -80 95l-51 -11q-14 23 -14 39q16 55 96 107v8l-10 57h6q10 0 27 29q0 6 1 18t1 17q0 36 -64 43v4q0 13 -12 37l8 2l-10 53h6q16 0 16 14v17h-16q-52 0 -135 -154v-4q15 -3 12 -35z" />
<glyph unicode="Y" d="M330 150q0 20 3 31.5t15.5 27.5t44.5 26t84 15l12 -17v23q-30 44 -30 82q20 0 20 20v23q0 46 -30 70q20 36 20 84q-9 30 -20 30q30 53 30 82q-42 33 -51 135q-16 13 -61 13v8q6 11 11.5 31t9 33.5t5.5 13.5q-6 53 -71 53v196h-11q-17 0 -114 -20q0 20 -11 20q23 15 23 41 q0 3 -1 10.5t-1 10.5v20q0 11 -41 41l-51 -10h-11q-10 0 -51 84v21q0 68 164 92l328 -2q13 0 29.5 -23.5t37.5 -58.5t39 -51h11q11 28 36 28q8 0 10 15t1.5 33.5t9.5 33.5t31 15l161 20q2 0 6 2t7 2q6 0 31 -5t44 -5q22 0 43 6q5 -16 70 -16q17 0 36.5 1t32.5 2t15 1 q41 -16 41 -45q0 -13 -10 -38t-10 -34q0 -34 -99 -88h-74q-87 -124 -141.5 -250.5t-71.5 -220.5q-83 -59 -83 -176q0 -43 -31 -82q26 -87 41 -94l-31 -62q6 -18 6 -33q0 -10 -2 -25t-2 -20q0 -28 43 -57q94 -18 94 -53h72q20 -3 20 -21q-48 -94 -133 -94h-10l-63 33 q-2 0 -2 -2q0 -1 1 -4.5t1 -5.5q0 -19 -58 -33q-19 0 -63 20l-51 -8l-52 8l-51 -28q-51 10 -82 21t-44.5 27t-17 29t-3.5 37v11zM621 1223l10 -21q0 -22 -21 -22h-30l-52 12v-33q40 0 52 -102q-11 -49 -11 -72l31 -22h10q87 0 105 188q-33 10 -33 61q20 0 20 21v31h-40 q-11 0 -41 -41zM651 1098h21v-8q0 -18 -41 -33v20q3 21 20 21z" />
<glyph unicode="Z" d="M442 1430q63 -19 156 -19v19q44 -2 59 -10q6 -3 15 -9q10 0 15 0.5t9 0.5t8 2l6 3t9 5.5t12 7.5h12.5t9.5 -0.5t7 -1t6.5 -2.5t6 -3t8 -5.5t10.5 -6.5q21 16 36 16q20 0 41 -16l78 19q41 -19 115 -19q8 -40 8 -63q0 -22 -4 -66t-4 -65q-18 -18 -24.5 -28t-12.5 -30h-61 l-17 -117q-27 -18 -33 -18q-1 0 -28 18v-96q-44 -63 -58 -117l-96 -38q-8 -38 -19 -57t-40 -40v-78q-27 -43 -37 -77l-13.5 -9l-9 -6t-7.5 -2.5t-11 -1.5h-16l36 -78q-54 -28 -114 -39q3 -5 6.5 -10.5t5.5 -7.5t3.5 -5.5t2 -5.5t1.5 -6.5t1 -9v-12.5l-20 -20h-58l-20 -58 q52 16 115 19v-19h77l21 -39h20q18 22 31.5 32t44.5 26h19q25 -13 36.5 -16t40.5 -3q7 23 12 27t29 12l-9 13.5t-6 9.5t-3 7.5t-2 11v16.5q19 19 28.5 25.5t28.5 12.5l-37 58v117q24 -6 27.5 -9.5t9.5 -29.5h21q5 48 33 63.5t77 15.5q10 0 33 -1t33 -1l18 -18q0 -93 19 -156 l-3 -9q-6 -19 -13 -23q-4 -2 -19 -6l-1 -1h-1q18 -27 18 -28q0 -2 -18 -29q18 -28 18 -84v-53q-40 -25 -80 -37q16 -27 22 -39.5t12 -33t7 -44.5h-77v-20q-36 0 -122 5t-132 5q-124 0 -193 -29h-20q-39 16 -95 19v20q-83 0 -135 -20h-20l-13.5 9t-9.5 6t-7.5 3t-11 2h-16.5 l-9 6t-8 5t-5.5 3t-5.5 2.5t-5.5 1.5t-7.5 1h-8.5h-11.5l-37 39q7 32 12.5 45t24.5 32v78l20 19l41 20l17 19v59l20 18l41 21l17 18v39l41 19v59l12.5 12.5t9.5 8.5t10.5 8t10 5t14.5 5l20 96q5 3 13.5 8.5t9.5 6t7.5 2.5t11 2h16.5l20 98q19 19 29 26t29 13v39l20 18l57 19 q3 36 8 47.5t29 30.5l-20 59q47 36 98 57q5 57 41 117q-67 -20 -139 -20v20h-94v-20h-119q-5 -3 -13.5 -8.5t-9.5 -6t-7.5 -2.5t-11 -2h-16.5q4 -7 9 -13.5t6.5 -9t3 -7.5t2 -10.5t0.5 -16.5l-57 -21l20 -78q-12 -40 -12 -45q0 -1 12 -51l-9 -9l-8 -8t-6 -6.5t-6 -7t-4.5 -7 t-4 -9l-3.5 -10.5q-55 -3 -115 -21q-41 68 -41 101q0 28 21 55l-21 117v18q21 55 21 135q27 27 37 60q35 17 78 57l77 -18l5.5 11t5 6.5t5.5 4.5t10 6t15 9zM692 655h39v-39h-39v39z" />
<glyph unicode="[" d="M958 1528l99 -21l37 -18v-19h16.5t10.5 -2t7 -3t9.5 -6l13.5 -9v-78q-4 -6 -8 -12.5t-6 -9t-3 -5t-5 -4.5t-5.5 -3t-9.5 -5v-39h-20q-1 -5 -2.5 -13t-2 -10t-2 -7t-3 -6.5t-3.5 -4.5t-5.5 -5t-7.5 -4.5t-11 -6.5q-3 -33 -9.5 -45t-31.5 -33l20 -78q-5 -3 -10.5 -6.5 t-7 -5t-6 -3t-5.5 -2t-6.5 -1t-9 -0.5h-12.5q-8 -38 -18.5 -56.5t-38.5 -39.5q-3 -33 -9.5 -45t-31.5 -33v-98q-24 -13 -36.5 -16t-41.5 -3v-18q28 -12 33 -19.5t8 -40.5h-62l-16 -18q-2 -27 -5 -37t-16 -23v-96q-25 -20 -37 -26.5t-40 -12.5l20 -96q-16 -20 -21 -26.5 t-10.5 -19.5t-9.5 -32l-78 -57l21 -60q-4 -3 -9 -6l-7.5 -4.5l-5 -3t-5 -2t-5 -1.5t-7 -1h-8h-11.5v-78l-57 -20v-97h-20v-96q-19 -19 -29 -26t-29 -13v-96l-57 -78h-78l-20 39h-115q-8 31 -8 60q0 17 3.5 48.5t4.5 45.5q3 3 7 6q3 3 0 11q-1 3 -1.5 5.5t-2 7t-3.5 9.5 l16 39l41 20l21 96h16l21 97q5 3 10.5 6.5t7.5 5.5t5.5 3.5t5.5 2t6.5 1.5t9 1h12.5q5 41 17 67t40 50v57q5 8 8 13t5 8t5.5 5.5t5 3.5t8 4t9.5 5v39h21q1 4 2.5 12t2 10t2 6.5t3 6.5t3.5 5t5.5 5t7.5 5t11 7v78l13.5 9l9 6t7.5 2.5t11 1.5h16q3 36 11 56t30 42v78 q20 24 25.5 35.5t11.5 39.5l57 21v96q29 29 62 39l-21 39q37 35 78 57v15v7v6v4.5t0.5 5t1.5 4t2 4t2.5 4t4 5l5.5 5.5v96q37 35 78 57q-13 21 -14.5 27t-1.5 33l57 57v78q13 4 22.5 9.5t14.5 10t20 19.5z" />
<glyph unicode="\" d="M311 1528l-98 -21l-37 -18v-19h-16.5t-10.5 -2t-7 -3t-9.5 -6l-13.5 -9v-78q4 -6 8 -12.5t6 -9t3 -5t5 -4.5t5.5 -3t9.5 -5v-39h20q1 -5 2.5 -13t2 -10t2 -7t3 -6.5t3.5 -4.5t5.5 -5t7.5 -4.5t11 -6.5q3 -33 9.5 -45t31.5 -33l-21 -78q4 -3 9 -6l7.5 -4.5l5 -3t5 -2 t5 -1.5t7 -1h8h11.5q8 -38 18.5 -56.5t38.5 -39.5q3 -33 9.5 -45t31.5 -33v-98q24 -13 36.5 -16t41.5 -3v-18q-28 -12 -33 -19.5t-8 -40.5h61l17 -18q1 -20 2 -27t5 -15.5t13 -17.5v-96q25 -20 37.5 -26.5t40.5 -12.5l-20 -96q16 -20 21 -26.5t10.5 -19.5t9.5 -32l77 -57 l-20 -60q5 -3 10.5 -6.5t7 -5t6 -3t5.5 -2t6.5 -1t9 -0.5h12.5v-78l58 -20v-97h20v-96l12.5 -12.5t9.5 -8.5t10.5 -8t10 -5t14.5 -5v-96l58 -78h78l20 39h115q8 31 8 60q0 17 -3.5 48.5t-4.5 45.5q-3 3 -7 6q-3 3 0 11q1 3 1.5 5.5t2 7t3.5 9.5l-17 39l-41 20l-20 96h-16 l-21 97q-5 3 -10.5 6.5t-7.5 5.5t-5.5 3.5t-5.5 2t-6.5 1.5t-9 1h-12.5q-5 41 -17.5 67t-40.5 50v57q-5 8 -8 13t-5 8t-5.5 5.5t-5 3.5t-8 4t-9.5 5v39h-20q-1 4 -2.5 12t-2 10t-2 6.5t-3 6.5t-3.5 5t-5.5 5t-7.5 5t-11 7v78l-13.5 9l-9 6t-7.5 2.5t-11 1.5h-16 q-3 36 -11 56t-30 42v78q-20 24 -25.5 35.5t-11.5 39.5l-57 21v96q-29 29 -62 39l21 39q-37 35 -78 57v15q0 19 -2 25.5t-15 19.5v96q-39 36 -77 57q13 21 14.5 27t1.5 33l-57 57v78q-19 6 -29 13t-29 26z" />
<glyph unicode="]" d="M958 1528l99 -21l37 -18v-19h16.5t10.5 -2t7 -3t9.5 -6l13.5 -9v-78q-4 -6 -8 -12.5t-6 -9t-3 -5t-5 -4.5t-5.5 -3t-9.5 -5v-39h-20q-1 -5 -2.5 -13t-2 -10t-2 -7t-3 -6.5t-3.5 -4.5t-5.5 -5t-7.5 -4.5t-11 -6.5q-3 -33 -9.5 -45t-31.5 -33l20 -78q-5 -3 -10.5 -6.5 t-7 -5t-6 -3t-5.5 -2t-6.5 -1t-9 -0.5h-12.5q-8 -38 -18.5 -56.5t-38.5 -39.5q-3 -33 -9.5 -45t-31.5 -33v-98q-24 -13 -36.5 -16t-41.5 -3v-18q28 -12 33 -19.5t8 -40.5h-62l-16 -18q-2 -27 -5 -37t-16 -23v-96q-25 -20 -37 -26.5t-40 -12.5l20 -96q-16 -20 -21 -26.5 t-10.5 -19.5t-9.5 -32l-78 -57l21 -60q-4 -3 -9 -6l-7.5 -4.5l-5 -3t-5 -2t-5 -1.5t-7 -1h-8h-11.5v-78l-57 -20v-97h-20v-96q-19 -19 -29 -26t-29 -13v-96l-57 -78h-78l-20 39h-115q-8 31 -8 60q0 17 3.5 48.5t4.5 45.5q3 3 7 6q3 3 0 11q-1 3 -1.5 5.5t-2 7t-3.5 9.5 l16 39l41 20l21 96h16l21 97q5 3 10.5 6.5t7.5 5.5t5.5 3.5t5.5 2t6.5 1.5t9 1h12.5q5 41 17 67t40 50v57q5 8 8 13t5 8t5.5 5.5t5 3.5t8 4t9.5 5v39h21q1 4 2.5 12t2 10t2 6.5t3 6.5t3.5 5t5.5 5t7.5 5t11 7v78l13.5 9l9 6t7.5 2.5t11 1.5h16q3 36 11 56t30 42v78 q20 24 25.5 35.5t11.5 39.5l57 21v96q29 29 62 39l-21 39q37 35 78 57v15v7v6v4.5t0.5 5t1.5 4t2 4t2.5 4t4 5l5.5 5.5v96q37 35 78 57q-13 21 -14.5 27t-1.5 33l57 57v78q13 4 22.5 9.5t14.5 10t20 19.5z" />
<glyph unicode="^" d="M1165 1098q-8 -13 -31 -29t-44 -16q-35 0 -52 57h-4q-12 0 -34 -12.5t-35 -12.5q-33 0 -82 80q-9 -10 -15 -5.5t-16 14.5t-16 10q-11 0 -21.5 10t-16 21t-12.5 25.5t-8 16.5l-2 -2q-5 5 -6 7q-2 -4 -5 -6.5t-6.5 -5t-4.5 -3.5l-2 2l-4 -9q-5 -8 -7.5 -11.5t-8 -11 t-10 -11t-12 -7t-14.5 -3.5t-28 -21.5t-29 -21.5q-6 0 -8 4q-49 -80 -84 -80q-13 0 -34.5 12.5t-33.5 12.5h-4q-17 -58 -53 -58q-20 0 -44 16.5t-32 29.5q3 7 7.5 22t7 21t9.5 12t17 6q1 0 2 1t2 1l51 39q11 16 23.5 33.5t19 27t13 18t9.5 12t5 3.5t2 -4q25 9 25 18v3 q0 6 4 10q4 15 7.5 28.5t5 18.5t2.5 9.5t3 6.5t3.5 4t7.5 6.5t12 10.5q4 -4 6 -4q1 0 12.5 -2t20 -3t12.5 1l6 57q51 37 88 37q13 0 19 -2q13 10 34 10q39 0 90 -37l37 -47q6 -6 13 -6q1 0 -5.5 -7.5t-12.5 -14.5l-7 -7q14 -12 21 -12h4q3 0 16 -49q3 -2 11 -1.5t16 1.5t8 0 v-2q0 -11 24 -19q0 4 2 4t5 -3.5t10 -12.5t13.5 -18.5t19.5 -28t24 -33.5l51 -39q1 0 1 1t1 1q10 0 17 -6t9.5 -13t7 -21.5t7.5 -22.5z" />
<glyph unicode="_" d="M938 -14q75 -19 188 -19q4 -5 12.5 -15t12 -15t9 -13t9.5 -15.5t7 -17.5l24 39h21v-20q0 -28 12 -85t12 -87h-24v-94q-86 -21 -220 -21h-63q-17 -14 -23 -16t-26 -2h-21q-10 5 -15.5 8t-9.5 5t-6.5 5t-3.5 4.5t-4.5 7.5t-5.5 9h-94q-34 -25 -119 -39q-10 5 -15.5 8 t-9.5 5t-6.5 5t-3.5 4.5t-4.5 7.5t-5.5 9h-92v-21q-35 0 -52 4t-42 17h-27l-43 -21l-69 21q-6 -7 -12 -11.5l-10 -7.5t-11.5 -6t-11 -4.5t-14.5 -4.5t-17 -5l-19 39h-49l-45 39q0 58 19 114q-9 4 -14 6.5t-10 6t-6.5 4.5t-4 6.5t-2.5 7.5t-2.5 10.5t-3.5 14.5l94 38 q0 28 3.5 40t20.5 36q43 -3 57 -8t38 -29h18q31 31 55 31t39 -31q67 13 70 13q30 0 51 -13h25q17 12 35.5 19t31.5 10t45 8l49 -57l21 57l74 -37l20 37l119 -18z" />
<glyph unicode="`" horiz-adv-x="1273" d="M432 1616q-8 -5 -15 -27.5t-26 -111.5l29 -37q-8 -5 -8 -27q13 -17 55 -31l25 -39l-3 -24q2 2 9 2q23 0 63 -61q-12 -6 -2 -23q21 -12 31 -28.5t14 -31t8 -18.5q4 4 72 -43l25 21h24l17 8q-7 14 -7 65l-24 33q5 2 12 17l-22 24q-4 8 -4 21l-13 8q-12 21 -30 49t-27 42.5 t-16 31t-7 28.5q0 11 6 23q-5 10 -30 -2l-10 33q-9 -6 -27 6l16 41q-6 1 -13.5 11t-23 27.5t-38.5 30.5l-31 -24q-4 6 -29 6z" />
<glyph unicode="a" d="M459 440q25 -15 30 -22t11 -35q-29 12 -33.5 18.5t-7.5 38.5zM637 479l-39 -39l-61 21h-115q-25 -20 -37.5 -26.5t-40.5 -12.5l21 -60q-30 15 -41 15q-10 0 -37 -15l20 -57h37q4 7 9 13.5t6.5 9t3 7.5t2 10.5t0.5 16.5h20v-77l16 -19h156v78q13 -4 22.5 -9.5t14.5 -10 t20 -19.5q11 3 37.5 11.5t40.5 13t36 9t42 5.5l21 117l-21 18h-37q-33 -10 -45 -10q-9 0 -51 10zM500 848q13 -14 15.5 -23.5t4.5 -36.5q-26 22 -28 29q0 3 1 7t3 11t4 13zM713 827l20 -18zM598 750h39v-37q34 3 49.5 9.5t46.5 27.5q2 -6 5 -14.5t4 -11.5t3.5 -8.5t5.5 -8 t7.5 -6.5t11.5 -9q13 26 16.5 38t4.5 40q-14 26 -17.5 38t-3.5 40q-56 0 -98 18l-74 -18q-6 4 -10.5 6.5t-10 4.5t-9 3t-10.5 1.5t-10 1t-13 1t-15 0.5l-61 -18l-17 -135q11 0 15 0.5t8.5 0t8.5 2t5.5 3t9 5t11.5 7.5q13 -24 20 -28.5t37 -10.5q4 4 10.5 9t9 7t6 6t5 6.5 t4 7t3.5 9.5t3 13zM520 1100q71 -21 180 -21h50q49 -31 77 -39q41 -44 58 -75q35 -7 53.5 -19t44.5 -41v-135q3 -2 7.5 -4t6 -3t4 -2.5t4 -3l3.5 -3.5t4.5 -5.5l5 -7t6.5 -10.5v-135q-3 -5 -7.5 -11.5t-6 -9t-3.5 -6.5t-2 -8t-0.5 -9.5t-0.5 -14.5q8 -6 13 -10t8.5 -10 t4.5 -8.5t4.5 -13l5.5 -16.5q-5 -3 -10.5 -6.5t-7 -5t-6 -3t-5.5 -2t-6.5 -1t-9 -0.5h-12.5q5 -11 11 -21t16 -22.5t14 -17t19.5 -20.5t17.5 -18q0 9 0.5 14.5t0.5 9.5t2 8.5t3.5 6.5t6 9t7.5 12q30 -9 78 -39q10 -35 58 -117l-58 -18v-98q-7 -23 -12 -27t-29 -12l21 -78 l-21 -19h-16.5t-10.5 1.5t-7.5 2.5l-9 6l-13.5 9q-13 -13 -20 -16t-25 -3h-12q-37 11 -46 11q-7 0 -53 -11q-25 24 -35.5 37t-21.5 41q-4 -4 -9.5 -10.5t-7 -8.5t-5.5 -6t-6 -5t-6.5 -3t-9.5 -3t-13 -3q-14 41 -33 41q-21 0 -66 -61l-78 39q-4 -33 -31.5 -49.5t-66.5 -16.5 q-55 0 -94 27l-57 -19l-9 13.5t-6.5 9.5t-3 7.5t-2 11t-0.5 16.5h-16t-11 -1.5t-7.5 -2.5l-9 -6l-13.5 -9h-21l-13.5 9l-9 6t-7.5 2.5t-11 1.5h-16l-57 39l-58 116q-2 41 -20 78l20 57l-41 21q8 38 18.5 56.5t39.5 39.5v39l41 39q5 3 10.5 6.5t7 5t6 3t5.5 2t6.5 1t9 0.5 h12.5l-57 99v96q-14 12 -17.5 20t-3.5 25v33l37 18v78h41l20 39h1l1 1q23 7 27 15q2 3 5 14l3 9h78q2 7 4.5 12.5t4 9t6.5 9t6.5 7l9.5 9.5l10 10q83 0 135 21z" />
<glyph unicode="b" d="M750 262l20 -20zM827 668h-57v20h57v-20zM635 610q7 -4 11 -7t7.5 -5t5.5 -5t3.5 -5t3 -6.5t2 -6.5t2 -10t2.5 -12q-31 6 -38 10.5t-20 28.5zM750 610q13 -14 15.5 -22.5t4.5 -34.5q-4 3 -9 6t-7.5 5t-5.5 4t-4 3.5t-2 4t-1 4.5q0 3 1.5 6.5t3.5 10t4 13.5zM1176 416 q13 -20 16.5 -33t3.5 -43h-20v76zM1184 287q8 8 8 -6q0 -12 -5 -5q-5 9 -3 11zM692 844q-7 -4 -13.5 -9t-9 -6.5t-7.5 -3t-10.5 -2t-16.5 -0.5q-21 -31 -27.5 -46.5t-9.5 -49.5q-9 0 -15 -0.5t-9.5 -0.5t-8.5 -2.5t-7 -3t-9.5 -5.5t-11.5 -8q-13 -41 -13 -60q0 -32 54 -37 q-6 -12 -20 -31t-22 -33t-8 -24q0 -22 50 -28q-7 -23 -12 -27t-29 -12q6 -30 11.5 -37.5t29.5 -20.5v-78q30 -3 46.5 -10.5t47.5 -27.5q5 10 15 30.5t15 29.5t15 22t22.5 20.5t30.5 13.5l-37 -96l13.5 -9t9.5 -6t7.5 -3t11 -2h16.5v38l57 -18q-4 20 -4 51q0 27 4 45v39 l-9 13.5t-6.5 9.5t-3 7.5t-2 11t-0.5 16.5q29 3 47.5 13t18.5 25q0 17 -25 39v21q23 8 26.5 11t10.5 26l-57 20l20 78q-14 25 -17 37t-3 41l-78 39h-78zM229 1423q95 -18 156 -18l16 -39h41q19 -19 29 -26t29 -13q-3 -53 -21 -96q3 -2 7.5 -4t6 -3t4 -2.5t4 -3l3.5 -3.5 t4.5 -5.5l5 -7t6.5 -10.5q-12 -74 -12 -96q0 -34 12 -78q47 18 135 18q15 15 58 39h78v-18h57q7 -4 13.5 -9t9 -6.5t7.5 -3t10.5 -2t16.5 -0.5q37 -40 58 -78q25 0 31.5 -2t29.5 -16l37 -59v-76q11 -6 19 -13t12 -12t12 -16.5t14 -18.5v-96h21v-57q13 -14 15.5 -23.5 t4.5 -36.5v-18l-41 -20v-117h21v-76q-19 -19 -29 -26t-29 -13l-20 -78l-21 -20l-57 -19l-20 -18v-59l-37 -39q-33 -3 -50 -10t-49 -29l-77 20q-28 -20 -78 -20h-17v39h-98v20q-53 0 -115 19q-26 -33 -61 -33q-22 0 -48.5 16.5t-43 32t-43.5 43.5q9 25 15 33.5t26 23.5 q0 13 -1 20.5t-2 10t-7.5 12t-10.5 15.5v20q13 26 16.5 38t4.5 40h-21v115h-20v77h20v175q25 45 41 59q-3 54 -20 96v19q24 59 24 133q0 73 -24 157q-4 -3 -9 -6l-7.5 -4.5l-5 -3t-5 -2t-5 -1.5t-7 -1h-8h-11.5l-20 57h-115l-20 21q0 83 37 153q45 -2 77 -18z" />
<glyph unicode="c" d="M721 838q-6 -6 6 -8q8 -1 10 1q6 6 -6 8q-8 1 -10 -1zM537 1038h36q3 -2 7.5 -4t6 -3t4 -2.5t4 -3l3.5 -3.5t4.5 -5.5l5 -7t6.5 -10.5q22 26 37.5 31.5t57.5 7.5v-20h77v-19h58q22 -14 28.5 -16t32.5 -2l74 -78v-39q31 -9 61 -39l37 -155l-37 -39h-11.5h-8.5t-7.5 -1 t-5.5 -1.5t-5.5 -2.5t-5.5 -3t-8 -5l-9 -6h-94q-14 -14 -21 -17t-24 -3h-13l-41 39v16.5t-2 11.5t-3 7.5t-6.5 10t-8.5 13.5v115h-115v39h-78v-16.5t-2 -11t-3 -7.5t-6 -9.5l-9 -13.5h-74l-20 -20v-76l-13.5 -9t-9.5 -6t-7.5 -3t-11 -2h-16.5l-20 -117q18 -15 25.5 -29.5 t9 -24t2.5 -42.5q24 -8 29 -12t12 -27l-78 -39q43 -23 67.5 -47.5t47.5 -67.5q28 0 40.5 3t36.5 16h21q41 -23 57 -39h41q31 20 78 20h37q10 49 37 96l20 19h41q9 31 37 59q99 0 156 -20q-8 -50 -8 -68q0 -17 8 -67q-22 -30 -34 -39t-44 -19q-4 -43 -21 -70t-57 -67 l-115 -18q-11 -19 -23 -32.5t-21.5 -21t-32.5 -24.5h-16.5t-11 2t-7.5 3t-9.5 6l-13.5 9l-20 -39h-41q-17 12 -37 21.5t-35 14t-40 11t-40 11.5q-3 5 -6.5 10.5t-5.5 7.5t-3.5 5.5t-2 5.5t-1.5 6.5t-1 9v12.5l-99 21q-19 19 -28.5 25.5t-28.5 12.5l-41 97q-12 4 -22 8.5 t-15.5 7.5t-18 11t-18.5 12q10 34 37 77q-13 4 -22.5 9.5t-14.5 10t-20 19.5q-3 52 -21 97v18q21 55 21 137h20v78q4 5 10.5 14.5t9 13t8 10.5t9.5 10.5t10 8.5t12.5 9.5t14.5 9.5q5 57 41 117l21 20h36q2 7 4.5 12.5t4 9t6.5 9t6.5 7l9.5 9.5l10 10h95q2 5 3.5 7t3 5t2.5 4 l3 3l3 3t4 3t5.5 3.5l7.5 4.5t9 6z" />
<glyph unicode="d" d="M557 322l21 -21zM442 844q-14 -27 -22.5 -36t-34.5 -22q-1 -28 -4.5 -39.5t-15.5 -37.5q0 -29 3 -41t17 -37q-30 -9 -78 -39v-19l13.5 -9t9.5 -6t7.5 -3t11 -2h16.5l-21 -117l41 -18l-20 -58l36 -59l78 -57h78v18h78l57 39q29 50 29 72q0 21 -8 45h1l1 1q23 7 27 15 q2 3 5 14l3 9v26q0 62 -17 109h-11.5h-8.5t-7.5 -1t-5.5 -1.5t-5.5 -2.5t-5.5 -3t-8 -5l-9 -6v39v39q4 -3 11.5 -8t9.5 -5.5t7 -3t8.5 -2.5t9.5 -0.5t15 -0.5q-2 26 -4.5 34.5t-15.5 22.5v78l-58 39q-30 -2 -41 -4.5t-36 -14.5q-11 18 -34 37t-36 19q-12 0 -12 -21 q0 -4 4 -16zM614 1405h58q49 -19 127 -19h49l76 -57q6 -27 12.5 -39t28.5 -39v-77q-5 -8 -7.5 -11.5t-5.5 -7.5t-4 -5.5t-4.5 -4t-4.5 -3t-6.5 -3.5t-8.5 -4q0 -28 3.5 -39.5t18.5 -38.5l-22 -96l41 -39q-6 -24 -10.5 -28.5t-30.5 -10.5q22 -57 22 -135h19v-175l18 -20v-39 q-25 -45 -37 -57v-21q12 -17 12 -37q0 -9 -12 -59q25 -20 35.5 -39.5t22.5 -56.5l135 18l37 -39q-17 -59 -17 -141v-33l-20 -18h-78v-21h-57q-39 19 -80 21v-21h-76v21h-78l-20 57q-41 -22 -78 -57q-13 0 -20.5 -1t-10 -2t-12 -7.5t-15.5 -10.5h-77v21q-28 -1 -40 -4.5 t-38 -16.5h-17q-7 4 -13.5 9t-9 6.5t-7.5 3t-10.5 2t-16.5 0.5l-20 39h-41q-3 3 -10.5 9t-10 8.5t-8.5 7t-8.5 6.5t-7.5 5.5t-8.5 5t-8.5 4t-9.5 4l-10.5 3.5t-13 4l-77 135v98l-41 19v213h-17v78q26 42 37 78q19 19 28.5 25.5t28.5 12.5l21 97l57 20v37l21 21q33 10 78 38 h94v19h98q20 24 32 30t46 9q26 -42 37 -78q62 -3 98 -18q-12 50 -12 57q0 22 12 39v20l-20 39l20 58q-33 10 -78 38q-20 -24 -31.5 -29.5t-46.5 -8.5q-13 22 -14.5 26.5t-1.5 30.5q-72 0 -139 20l-17 78l37 39h78q12 12 57 37z" />
<glyph unicode="e" d="M670 745h39q4 -2 7.5 -3.5t5 -2t3.5 -1t2.5 -2t1.5 -2.5t0.5 -3.5t-0.5 -5v-8v-10.5l-59 18v20zM631 842l-19 -58l-96 39l-20 -59q-35 14 -50 14q-12 0 -47 -14q2 -16 2 -41q0 -23 -2 -37l136 -18q19 19 25.5 28.5t12.5 28.5h19l20 -39q96 0 156 -18q15 35 18 96l-57 59 l-39 -20l-20 39h-39zM592 1094h59q24 -13 36 -16t42 -3q31 -31 39 -59h76q57 -61 78 -96l59 -21l39 -135l57 -19q9 -45 39 -98v-37q-29 -52 -39 -98q-24 -6 -78 -29.5t-86 -23.5q-31 0 -69 14q-2 -30 -4.5 -42t-14.5 -36h-39q-13 24 -15.5 35.5t-2.5 42.5q-25 0 -30.5 -2 t-28.5 -16h-19l-7.5 5t-6.5 4t-4.5 3t-4.5 2.5t-4 1.5t-4.5 1t-4.5 0.5t-6.5 0.5h-7h-9.5q-2 -30 -4.5 -42t-14.5 -36q-44 9 -58.5 22.5t-18.5 55.5l-97 -18q-48 30 -78 39q3 -7 10.5 -22t9.5 -20.5t4.5 -15t2.5 -18.5t-8 -41q19 -9 19.5 -10t0.5 -29l19 -19h39l20 -38 l96 -21l-18 78h18q17 -34 19 -78l98 21v38q33 3 48 9.5t48 29.5h58q6 11 13.5 19.5t11.5 12t16 12.5t18 14q54 -3 117 -21l3 9q6 19 13 23q4 2 19 6l1 1h1l39 -76q-3 -64 -19 -116h-39l-18 -21q-8 -23 -12 -27t-27 -12l-20 -18v-39l-58 -57l-39 18q-4 -13 -9.5 -22.5 t-10 -14.5t-19.5 -20h-15t-8.5 0.5t-7.5 2t-5.5 2.5t-9 5.5t-11.5 7.5l-4 -8t-3.5 -6.5t-3 -4.5t-3.5 -4.5t-5.5 -4t-8 -5t-11.5 -6.5h-117q-14 -26 -22.5 -35t-34.5 -22q-3 5 -6.5 10.5t-5.5 7.5t-3.5 5.5t-2 5.5t-1.5 6.5t-1 9v12.5l-136 39l-20 59h-76l-39 39 q-14 26 -17 37t-3 39q-41 17 -97 60v16.5t1.5 10.5t2.5 7.5l6 9l9 13.5l-57 39l18 96q-21 27 -21 88q0 11 1.5 34t1.5 34q8 24 11.5 28t26.5 11q-10 30 -10 45q0 19 11 34t38 37v58l78 116l135 39q17 27 32 42t46 36q12 -2 33 -2q39 0 82 21z" />
<glyph unicode="f" d="M686 1407h211v-21h78l78 -57l57 -78v-192q-26 -14 -37.5 -17.5t-38.5 -3.5v-39l-116 -38q-21 49 -21 98q-13 4 -22.5 9.5t-14.5 10t-20 19.5v96h-154q-7 -22 -12.5 -26.5t-30.5 -12.5v-96l21 -21q69 0 98 -18l78 18l37 -77v-97q-61 -18 -115 -18q-15 -28 -21 -37.5 t-19.5 -21t-35.5 -19.5v-117h-22q0 -68 22 -116q0 -13 -1.5 -20.5t-2.5 -10.5t-7.5 -11.5t-10.5 -15.5l41 -39q-7 -19 -10.5 -26t-10 -14.5t-20.5 -16.5l41 -156q71 21 135 21q5 3 10.5 6.5t7 5t6 3t5.5 2t6.5 1t9 0.5h12.5l37 -39v-16.5t2 -11.5t3 -7.5t6.5 -10t8.5 -13.5 v-37q-3 -5 -7.5 -11.5t-6 -9t-3.5 -6.5t-2 -8t-0.5 -9.5t-0.5 -14.5l-57 -58h-16.5t-11 2t-7.5 2.5t-9.5 6t-13.5 8.5q-13 -13 -20 -16t-25 -3h-12l-57 19q-19 -19 -33 -26t-45 -13q-20 15 -41 24.5t-50 19t-44 15.5h-21l-20 -39h-16.5t-11 2t-7.5 2.5t-9.5 6t-13.5 8.5 q-26 -19 -78 -19h-20q-61 44 -135 58q3 33 9.5 44.5t31.5 32.5v19q-24 8 -29 12t-12 27q40 14 53 14q14 0 61 -14q26 33 58 33q17 0 61 -13q20 24 32 30t46 9q0 47 -7 70.5t-34 46.5q3 33 9 44t32 32q-12 30 -12 80q0 85 33 133v20q-21 29 -21 78v18q-26 6 -30.5 10.5 t-10.5 28.5h-94v21h-119q-8 33 -8 63q0 40 29 129l98 -18q22 26 37 31.5t57 7.5v76h21v98q47 36 98 57l16 58l21 20z" />
<glyph unicode="g" horiz-adv-x="1267" d="M596 854q-49 -20 -98 -20q-5 -3 -13.5 -8.5t-9.5 -6t-7.5 -2.5t-11 -2h-16.5l-57 -78v-14q0 -18 2.5 -25t15.5 -18v-21q-13 -19 -15.5 -32t-2.5 -45l13.5 -9l9 -6t7.5 -2.5t11 -1.5h16q0 -10 0.5 -15t0.5 -9t2 -8l3 -6t5.5 -9t7.5 -12h98v20h96q3 5 8.5 13.5t6 9.5 t2.5 7.5t2 11v16.5l59 20q-4 13 -9.5 22.5t-10 14.5t-19.5 20l58 21l-39 96q-5 3 -13.5 8.5t-9.5 6t-7.5 2.5t-11 2h-16.5q0 25 -2 30.5t-16 28.5h-39zM324 389l38 -117l136 39q-2 16 -2 41q0 23 2 37q-11 -3 -22 -7q-8 -4 -11 0t-6 7h-135zM653 -154q29 14 53.5 16.5 t36 8.5t27.5 33h96l39 98q-38 49 -57 96h-98q-14 13 -22.5 15t-35.5 4q-10 14 -17.5 20t-13 8.5t-26.5 10.5q-7 -23 -11.5 -27.5t-27.5 -11.5q-52 0 -117 20q-31 -31 -39 -59l-96 20l18 -59q-24 -8 -27.5 -11t-10.5 -26q-32 16 -78 18q5 -63 39 -116q48 0 116 20l58 -59 l98 20l78 -39h18zM932 8q-3 -3 0 -12q3 -4 6 -2q3 3 0 12q-3 4 -6 2zM575 1047l78 -19v-20q27 -2 35.5 -4t22.5 -15h20q33 21 84 21q8 0 25 -1t26 -1q15 15 58 39h77q23 -15 26.5 -18.5t12.5 -20.5h78l58 -58l-19 -78h14.5t9 -0.5t7.5 -2t5.5 -2.5t9 -5.5t11.5 -7.5 q-23 -38 -40.5 -53t-55.5 -25l19 -57q-7 -4 -18.5 -10.5t-17.5 -10t-15 -7.5t-15.5 -5.5t-13.5 -1.5q-31 0 -56 35l-96 -21v-18q31 -13 31 -33q0 -14 -31 -45q-3 -61 -20 -117l-76 -18l-21 -21v-38l-18 -19q-68 -20 -117 -20l-39 -39l-77 20q35 -45 139 -45q24 0 69 3t64 3 q23 -15 26.5 -18.5t12.5 -20.5h96l12.5 -12.5t8.5 -9.5t8 -10.5t5 -10t5 -14.5q37 -3 55.5 -10t40.5 -29h78l78 -98q-3 -40 -11 -66t-28 -49v-78q-3 -5 -7.5 -11.5t-6 -9t-3.5 -6.5t-2 -8t-0.5 -9.5t-0.5 -14.5l-39 -39h-37q-4 -13 -9.5 -22.5t-10 -14.5t-19.5 -20h-78 l-59 -58h-97v-20h-77l-39 -39q-106 20 -213 20l-10.5 6l-7 4t-5.5 4l-3.5 3.5t-3 4t-2.5 4t-3.5 6t-3.5 7.5q-6 0 -18 -1t-17 -1q-24 0 -38 8t-24 33l-77 -20q-3 4 -6.5 10.5t-5 8t-3.5 5.5t-2.5 6t-1 7t-0.5 9.5v12.5h-116l-58 57q-6 29 -10.5 36.5t-28.5 21.5v117 q-3 5 -6.5 10.5t-5.5 7.5t-3.5 5.5t-2 5.5t-1.5 6.5t-1 9v12.5q18 24 24.5 33t20.5 21.5t33 23.5v116h-19v78h-20v78q34 11 46 19.5t32 37.5h38q10 33 19 45.5t39 32.5q-34 34 -58 78v96h19v78l39 19v77l20 21l39 18l19 58h77q9 17 12.5 20.5t26.5 18.5h78q16 16 57 39z" />
<glyph unicode="h" d="M586 133h57v19h-57v-19zM741 811l21 -18zM651 700q6 6 6 -4q0 -6 -2 -8q-6 -6 -6 4q0 6 2 8zM508 616h39v-57h-39v57zM741 598l21 -18zM618 496q4 4 13 -2q2 -4 0 -7q-4 -4 -13 2q-2 4 0 7zM508 424h39q-6 -31 -10.5 -38.5t-28.5 -20.5v59zM721 424h57v-39h-57v39z M586 307q26 13 38 16.5t40 4.5q-1 -28 -4.5 -40t-16.5 -38q-26 14 -35 22.5t-22 34.5zM684 850q-25 -20 -37.5 -26.5t-40.5 -12.5l-41 -39v-39l-18 -18q-26 -8 -76 -39q-3 -15 -8 -28.5t-8.5 -21t-12 -23.5t-12.5 -23v-39q5 -8 8 -13t5 -8t5.5 -5.5t5 -3.5t8 -4t9.5 -5 q-20 -50 -20 -66q0 -21 20 -51q-3 -5 -6.5 -10.5t-5.5 -7.5t-3.5 -5.5t-2 -5.5t-1.5 -6.5t-1 -9v-12.5q3 -5 7.5 -12t6 -9t3.5 -6.5t2 -8.5t0.5 -9.5t0.5 -14.5l16 -18q68 -10 70 -10q16 0 49 10q29 -21 78 -21h21v21q73 0 114 18v97q-3 5 -7.5 11.5t-6 9t-3.5 6.5t-2 8 t-0.5 9.5t-0.5 14.5q3 2 7.5 4t6 3t4 2.5t4 3l3.5 3.5t4.5 5.5l5 7t6.5 10.5q-9 30 -9 41q0 10 9 37v18q-2 6 -4 13t-3.5 11.5t-1.5 8.5q0 10 25 45q-2 4 -5 13.5t-4 11.5t-3.5 8t-5.5 8.5t-7.5 6.5t-11.5 9q3 5 7.5 11.5t6 9t3.5 7t2.5 8t1 9.5t0.5 15q-15 27 -18 37t-3 38 q-70 21 -135 21zM537 1012q6 6 6 -5l-2 -10q-6 -6 -6 5zM393 1024l19 -18zM856 -23h-37q-23 27 -44.5 33t-69.5 6q-33 33 -41 60h-21q-20 -24 -32 -30t-46 -9v-21h-15t-8.5 -0.5t-7.5 -2t-5.5 -2.5t-9 -5.5t-11.5 -7.5h-21l-36 18h-21q-2 -4 -3.5 -8.5t-2.5 -6l-2 -3 t-3 -1.5h-4.5t-8.5 0.5t-13 0.5q-24 8 -29 12t-12 27q-40 -14 -53 -14q-14 0 -61 14l-37 -39q-51 15 -119 18l-57 39v15q0 17 3 23t17 20v20q-13 12 -16.5 19.5t-3.5 25.5v12l36 60q26 0 33 2t29 16h78v19q0 33 16 59v19q-9 8 -12.5 15t-3.5 10.5v19.5v14h16q0 26 -1.5 30.5 t-14.5 26.5v39q4 7 10.5 21t12 22.5t14.5 16.5v75l-21 21v39q21 55 21 135h-21v78h21q0 80 -21 135l21 78l-21 18h-37q-3 5 -7.5 12t-6 9t-3.5 6.5t-2 8.5t-0.5 9.5t-0.5 14.5h-99l-36 57v39l36 57q63 -3 99 -18v12q0 17 3 24t17 21q29 -6 36.5 -10.5t21.5 -28.5l98 21 q7 -4 13.5 -9t9 -6.5t7.5 -3t10.5 -2t16.5 -0.5l58 -57v-156q3 -5 6.5 -10.5t5.5 -7.5t3.5 -5.5t2 -5.5t1.5 -6.5t1 -9v-12.5q-3 -4 -11.5 -14.5t-11 -13.5t-8.5 -9.5t-12.5 -11t-15.5 -9.5v-20q26 -23 26 -37q0 -5 -8 -41h98q2 4 3 7.5t2 5.5t1 3.5t1.5 2.5t2 1.5t3.5 0.5 h5h8h11l21 18v16.5t2 11.5t3 7.5t6.5 10t8.5 13.5h78l37 37q4 -1 12 -2.5t10 -2t6.5 -2t6.5 -3t5 -3.5t5 -5.5t5 -7.5t7 -11q24 12 36 14.5t42 4.5l62 -39v-57l16 -21q33 -3 49.5 -10t48.5 -29q0 -11 0.5 -16.5t2 -10.5t3 -7.5t6.5 -9t9 -13.5v-117q7 -5 11.5 -9t7.5 -6.5 t5.5 -8.5t3.5 -8t4 -11.5t5 -13.5q-24 -34 -30.5 -60.5t-6.5 -74.5h16v-156l-16 -57q8 -6 13 -10t8.5 -10.5t5 -9.5t5 -13.5l5.5 -16.5h98l57 -39q-2 -27 -4.5 -35.5t-15.5 -21.5v-20q20 -31 20 -78v-37l-20 -21h-17q-49 0 -78 21h-20q-39 -27 -119 -27q-25 0 -71 3t-64 3 v-39z" />
<glyph unicode="i" d="M578 1462h77q54 -31 95 -39l22 -20v-57q11 -3 16.5 -4t11 -5t7 -5.5t8.5 -10.5t12 -14q-1 -4 -2.5 -13t-2.5 -12.5t-2.5 -11t-2.5 -11.5t-3 -10t-4 -10t-5 -9.5t-6.5 -10t-7.5 -9.5l36 -20v-19q-20 -7 -33.5 -14.5t-25 -22.5t-16.5 -23.5t-19 -35.5l-119 19v18h-77 l-58 21q-20 67 -20 135q-7 4 -11 6.5t-7.5 4.5t-5.5 5t-3.5 4.5t-3 6.5t-2 7t-2 10t-2.5 13l57 21l21 38l13.5 9l9 6t7.5 2.5t11 1.5h16q0 11 0.5 16.5t2 11t3 8t6.5 10zM188 1075l78 -20q19 13 32 15.5t46 4.5v-20h98l17 20h41q25 -14 37 -17t41 -3v20h77l78 -59v-58h17 q0 -13 1.5 -20.5t2.5 -10.5t7.5 -12t10.5 -16v-96q-24 -43 -39 -58l17 -77q-17 -26 -17 -31q0 -3 17 -29l-17 -76l39 -20v-18q-23 -32 -36 -92.5t-23 -82.5q25 -18 34.5 -31.5t24.5 -45.5h14.5t8.5 0.5t7 2t5.5 2.5t8 5.5t11.5 7.5h58v21h61l94 -39l21 39h20l21 -39h16v-21 h21l37 -39v-96l-17 -57q-18 4 -41 4q-17 0 -57 -25l-78 21q-25 -19 -49 -19t-49 19l-74 -21q-27 6 -45 6q-23 0 -53 -6q-24 8 -29 12t-12 27q-41 -18 -115 -18q-14 -14 -21 -17.5t-24 -3.5h-12q-23 14 -27.5 18t-13.5 21h-94l-21 -39q-29 0 -43.5 4t-34.5 17h-57 q-5 3 -10.5 6.5t-7 5t-6 3t-5.5 2t-6.5 1t-9 0.5h-12.5q-40 52 -58 96q6 5 15.5 14.5t14 13.5t12 10.5t15 11.5t17.5 10q0 28 3.5 40.5t16.5 37.5l78 -21q13 13 22.5 16t35.5 5q35 -25 61.5 -32t73.5 -7q20 29 32 37.5t46 19.5q-11 36 -37 78q8 54 8 65q0 25 -8 52v18l20 39 v20q-3 2 -6.5 3t-5.5 1.5t-3.5 1.5t-2.5 1t-1.5 1.5t-0.5 2v3.5v5.5v7.5v10q8 26 13 30q4 3 24 9q-9 20 -9 51q0 14 4 42.5t5 43.5q-13 11 -15 17.5t-2 25.5v15q-37 8 -44 14t-17 25l-94 -21v-18h-16.5t-11 -2t-7.5 -2.5t-9.5 -6t-13.5 -8.5h-20q-49 19 -119 19l-16 18v39 l-58 21q3 35 8 46t29 31v19h21v20z" />
<glyph unicode="j" d="M799 1329q26 -14 34.5 -22.5t22.5 -34.5h62l36 -39v-96q-3 -5 -7.5 -12t-6 -9t-3.5 -6.5t-2 -8.5t-0.5 -9.5t-0.5 -14.5q-8 2 -16 2q-5 0 -9.5 -1.5t-7.5 -3t-10.5 -6.5l-13.5 -9h-37q-3 -6 -6 -10t-6 -7.5t-4.5 -5.5t-5.5 -4t-5.5 -3t-7 -2.5t-7 -2t-9.5 -2t-11 -2.5 q-11 15 -25.5 27.5t-24 18t-32.5 16.5t-32 16v153l20 21h78q6 19 12.5 29t24.5 28zM549 1001h37q42 -26 65 -26q19 0 54 6q8 -3 11 -3.5t8 -3t5.5 -3t3 -4.5t2.5 -5.5t2.5 -8.5t3.5 -11q25 14 37 14q13 0 41 -14q20 20 33 26.5t45 12.5l37 -78v-96h20q0 -28 3.5 -40 t17.5 -38q-2 -26 -5 -35t-16 -22v-39q13 -14 16 -24t5 -36q-21 -51 -21 -110v-25q3 -2 7.5 -4t6 -3t4 -2.5t4 -3l3.5 -3.5t4.5 -5.5l5 -7t6.5 -10.5v-16.5t-2 -10.5t-3 -7t-6 -9.5l-9 -13.5l37 -39l-17 -78q17 -23 17 -39t-17 -39v-38q9 -16 18.5 -56.5t18.5 -58.5v-21 q-14 -25 -17 -37t-3 -40h-17v-58h-20v-57q-3 -5 -7.5 -11.5t-6 -9t-3.5 -7t-2.5 -8t-1 -9.5t-0.5 -15l-98 -18l-16 -20q0 -13 -1 -20.5t-2 -10t-7.5 -12t-10.5 -15.5h-98q-2 -4 -4.5 -9.5t-3.5 -7l-3 -4.5t-5.5 -5t-8 -5t-12.5 -8h-156q-5 -3 -10.5 -6.5t-7 -5t-6 -3 t-5.5 -2t-6.5 -1t-9 -0.5h-12.5q-42 45 -57 76h-78l-57 116q-6 27 -12.5 39t-28.5 39v19q0 49 20 77q-3 5 -7.5 12t-6 9t-3.5 6.5t-2 8.5t-0.5 9.5t-0.5 14.5q39 36 77 57l21 96l57 39q103 -18 172 -18l41 -98l-7 -7l-6.5 -6.5l-5.5 -5.5t-5 -5.5t-4 -5.5t-4 -6.5t-3 -6 t-3.5 -7.5t-2.5 -8q26 0 33 -2t29 -16l-21 -78l-78 18q-2 -4 -3.5 -8.5t-2.5 -6t-1.5 -3t-2.5 -1.5h-4.5t-8.5 0.5t-13 0.5v-59l114 -19l13.5 -9t9.5 -6t7.5 -3t11 -2h16.5q20 20 33 26.5t44 12.5v98h-12q-19 0 -26.5 2.5t-18.5 15.5q26 13 38 16.5t40 4.5v51q0 59 16 84 l-16 78q16 47 16 123v30h-16v19q0 33 16 59q0 27 -1.5 33t-14.5 27v18l37 156l-58 18q0 27 3.5 40t17.5 38l-156 39q-2 -7 -4.5 -12.5t-4 -9t-6.5 -9t-6.5 -7l-9.5 -9.5l-10 -10q-31 8 -57 8t-57 -8q-37 35 -78 57l20 135q19 6 29 13t29 26q49 0 98 20z" />
<glyph unicode="k" d="M16 262l17 -20zM168 262h39v-57q-24 13 -28.5 20t-10.5 37zM557 418l-78 -117v-20l41 -39q45 0 94 20l21 -57l98 37q-9 16 -27.5 42t-31.5 48.5t-19 46.5l-57 39h-41zM111 1386l57 19h176v-19h115l20 -20q0 -28 3.5 -40t17.5 -38q0 -11 -0.5 -16.5t-2 -10.5t-3 -7.5 t-6.5 -9t-9 -13.5q3 -2 7.5 -4t6 -3t4 -2.5t4 -3l3.5 -3.5t4.5 -5.5l5 -7t6.5 -10.5l-20 -213h78q-4 -44 -19.5 -58.5t-58.5 -19.5q-3 -53 -21 -96q24 -8 29 -12t12 -27h115l-21 78q27 18 29 18t29 -18q-7 25 -30 64t-28 50q19 6 29 13t29 26h41q10 33 37 60 q30 -6 43.5 -12.5t33.5 -26.5q34 15 99 18v21h135q2 -2 4.5 -5t3 -3.5t2 -1t3.5 0.5t5 1.5t9.5 3t13.5 4.5q2 -2 9.5 -8t9 -7t7 -5.5t7 -6.5t6 -6.5t6.5 -7.5t5.5 -8t6.5 -11q20 4 29 4q34 0 48 -24.5t17 -75.5l-36 -39h-99v-18h-57q-14 -14 -21 -17.5t-24 -3.5h-12 q-9 -17 -13.5 -21t-27.5 -18h-78q-31 -57 -49 -76q-11 -10 -25 -20q-3 -61 -20 -117q28 -21 77 -77v-76l17 -21l41 -18l20 -21v-39l37 -38q34 -12 43 -22q5 -5 14 -17h78l13.5 9t9.5 6t7.5 3t11 2h16.5l61 -78v-116l-61 -39q-10 2 -25 2q-19 0 -39.5 -3t-47 -9.5t-40.5 -8.5 q-35 24 -88.5 27.5t-104.5 6t-81 24.5q-30 -9 -50 -9q-4 0 -65 9q-6 -7 -13.5 -13t-11.5 -8.5t-16 -9t-16 -8.5h-177v20q-68 0 -135 -20q-32 23 -53 30t-61 9q-5 -3 -13.5 -8.5t-9.5 -6t-7.5 -2.5t-11 -2h-16.5l-61 57v78h6q16 0 37.5 4.5t29.5 4.5q23 0 41 -29l29 16 q4 14 10 15t14.5 -3t24.5 1l4 49q19 19 29 26t29 13v20q-25 25 -25 37q0 16 25 41q-8 27 -8 65q0 24 4 74t4 74q-4 7 -9 13.5t-6.5 9t-3 7.5t-2 10.5t-0.5 16.5q16 25 22 70.5t19 64.5v21q-23 31 -29.5 121t-11.5 110q5 8 8 13t5 8t5.5 5.5t5 3.5t8 4t9.5 5l-41 135l-59 -18 q-32 16 -76 18l-57 21v96l20 39z" />
<glyph unicode="l" d="M324 1401h41l20 -19h37q27 21 86 21q12 0 35 -1t35 -1v-19h94l41 -77v-117l39 -21q-2 -48 -9 -78t-30 -57v-39q15 -22 23.5 -70t15.5 -65l-19 -78q17 -23 17 -39t-17 -39l19 -77q-17 -34 -17 -39q0 -6 17 -37q-7 -23 -11.5 -27t-27.5 -12q12 -12 21 -25t13 -20.5t12 -26 t11 -26.5v-19q-13 -24 -15.5 -36t-2.5 -42h-19l19 -116q32 23 54 30t62 9q2 3 4 8q6 13 18 20q2 2 9 6l6 4q58 -18 119 -18l16 -20h41q13 13 22 15.5t36 4.5q-11 -34 -18 -41.5t-40 -17.5q14 -29 58 -76v-60l-37 -38q-16 0 -58 -2.5t-65 -2.5q-73 0 -111 25l-77 -20 q-54 20 -127 20h-50v-20h-77v20h-115v-20h-78v-19h-78q-47 36 -98 57v39q5 3 10.5 7t8 5.5t6.5 3.5t6.5 2.5t7 1.5t9.5 1h13l-41 96l99 -20l20 39h17l20 -39h21q23 30 45 30q11 0 49 -10q11 27 25 36t53 21l-37 60v115q6 14 15 56t22 60q0 26 -1.5 31t-15.5 27 q0 26 1.5 31.5t15.5 27.5v18l-37 21l20 117q8 23 11 26.5t26 10.5q-20 44 -34 58q-8 8 -23 19q2 12 3 34.5t4.5 37t12.5 27.5v39q-20 28 -20 75v21q-31 6 -38 10.5t-20 28.5h-41q-35 -45 -139 -45q-24 0 -68 3t-63 3q0 29 4 43.5t17 34.5v18q-21 29 -21 78v20q11 0 33 -1 t33 -1q73 0 127 21z" />
<glyph unicode="m" d="M868 188q8 -24 11 -27.5t26 -10.5q-8 24 -11 27.5t-26 10.5zM442 170q13 -24 20 -28.5t38 -10.5l-21 39h-37zM422 731h39v-39h-39v39zM868 848q-36 -36 -59 -78v-78h-18q0 -54 18 -96q-23 -8 -27 -12t-12 -27q2 -7 13 -61t26 -74l-18 -78q42 -18 94 -18l-17 -60l-13.5 9 t-10 6.5t-8 3t-11 2t-16.5 0.5q4 -11 10.5 -19t11.5 -13t15.5 -9.5t16.5 -6.5t20.5 -6t21.5 -6l41 39l-20 39l37 21l-17 114h17v78l61 21v18l-78 21q9 30 37 75v99q-32 16 -78 18l-20 21q0 5 -0.5 11t-0.5 9t-0.5 7t-1 6.5t-1.5 5.5t-3 5.5t-4.5 5.5t-5.5 7zM461 791 q-19 -15 -26 -20t-19 -10t-31 -9q-1 -29 -4.5 -41t-15.5 -37v-21q20 -51 20 -114l57 -60h-15t-8.5 -0.5t-7.5 -2t-5.5 -2.5t-9 -5.5t-11.5 -7.5q2 -10 2 -55q0 -50 -2 -62q45 -25 56 -38.5t20 -39.5q-5 3 -11.5 7.5t-9 6t-7 3.5t-8 2.5t-9.5 1t-15 0.5q16 -41 60 -41 q22 0 76 20v99q-17 39 -17 96h17l20 96l-37 39q0 24 4 66.5t4 62.5q0 35 -8 66h-59zM401 1004q4 37 14.5 49t45.5 28h96l57 -20l21 -57l115 -21q0 28 3.5 40.5t16.5 37.5l57 -19q27 35 58 35q20 0 41 -16h37q13 13 23 15.5t38 4.5q21 -30 27.5 -47t9.5 -51h14.5t9 -0.5 t7.5 -2t5.5 -2.5t9 -5.5t11.5 -7.5l39 -60q0 -29 2.5 -40t16.5 -36v-7q-2 -32 -12 -44q-3 -4 -7 -8v-39q13 -14 15 -22t4 -35l-19 -21v-57l-18 -57q25 -8 29 -15l8 -24v-29.5t-19 -9.5l19 -78l-37 -18v-21q12 -10 23 -22t17.5 -21t19 -27t18.5 -26q0 -29 -4 -43.5t-17 -34.5 q14 -44 21 -117l-60 -39l-96 21v18q-46 -2 -78 -18h-37l-137 39q-22 -26 -41 -32.5t-55 -6.5h-21q-14 -14 -21 -17.5t-24 -3.5h-12q-44 31 -128.5 37t-121.5 23l-41 -60q-75 0 -135 -18q-23 14 -27.5 18t-13.5 21h-74v96q-28 35 -41 78q23 27 36.5 37t41.5 20v15 q0 17 3.5 24t17.5 21v39q-25 35 -25 98q0 17 2 48.5t2 45.5l-20 21v36l41 138q-3 2 -8 4.5t-7 3t-5 3t-4.5 4t-4.5 5t-5.5 8t-6.5 11.5l20 57h-14.5t-9 0.5t-7.5 2t-5.5 2.5t-9 5.5t-11.5 7.5v156q42 10 49 10q12 0 45 -10q2 5 3.5 7t3 5t2.5 4l3 3l3 3t4 3t5.5 3.5l7.5 4.5 t9 6q47 -2 63 -10q7 -3 15 -9l13.5 9l9 6t7.5 2.5t11 1.5h16q14 -23 24.5 -33.5t32.5 -23.5z" />
<glyph unicode="n" d="M721 844q-9 -6 -12.5 -8.5t-7.5 -5t-5.5 -5t-3 -4t-4 -7t-4.5 -9.5l-41 20q-22 -19 -26.5 -26t-10.5 -33l-78 20q-20 -46 -20 -116h-19v-56q0 -35 -7 -58.5t-31 -41.5q3 -35 8.5 -46.5t29.5 -31.5q-3 -5 -6.5 -10.5t-5 -7t-3 -6t-2 -5.5t-1 -6.5t-0.5 -9v-12.5 q15 -36 18 -96q30 11 38.5 19t21.5 38h16q7 -23 41 -78h37l21 21l-21 75q12 -8 43.5 -37t54.5 -38v75q27 0 40 3.5t38 17.5v18q-48 30 -78 39q2 3 7 12.5t6.5 11.5t5.5 9.5t5.5 9t6 7t7 7.5t7.5 5.5t9.5 5.5t10.5 5t13 5q1 13 4.5 38t3.5 36q0 27 -14 42t-51 19v21 q32 11 44 19.5t34 37.5l-21 78l-20 20zM627 205l16 -21zM102 1096h37q52 -21 135 -21h5v-18h94v-39l135 -19q17 19 78 58q28 6 40.5 12.5t37.5 26.5q25 -2 33.5 -5t23.5 -16h20q19 13 32.5 16t45.5 5v-21h78l21 -37h16v-20h20l41 -39v-39l37 -18l21 -39v-21l-41 -57 q24 -8 29 -12t12 -27v-10.5v-7.5v-5v-4t-1 -2.5t-2 -2t-2.5 -1.5t-3.5 -1.5t-5.5 -1.5t-6.5 -3v-18l21 -39l-21 -60q17 -9 19.5 -11.5t17.5 -25.5q0 -5 -0.5 -14.5t-0.5 -12.5t-1 -9.5t-1.5 -9t-2.5 -8t-4.5 -11t-5.5 -12.5v-60l-21 -18v-39q23 -32 37 -78h78l78 -57 q0 -9 0.5 -14.5t0.5 -9.5t2 -8.5t3.5 -6.5t6 -9t7.5 -12l21 -96q-63 -39 -136 -39q-1 -4 -2.5 -8t-3.5 -7.5t-3 -6t-3.5 -6t-3.5 -5t-5 -5.5l-5.5 -5.5l-6.5 -6.5l-7 -7h-21q-18 18 -24.5 28t-12.5 29q-45 -18 -135 -18l-20 -21h-37q-54 21 -119 21h-78v39q-30 -9 -78 -39 h-15t-8.5 0.5t-7.5 2t-5.5 2.5t-9 5.5t-11.5 7.5q-19 -13 -32.5 -15.5t-45.5 -2.5l-16 18h-41q-25 -18 -78 -18h-16v-21h-140q-7 4 -13.5 9t-9 6.5t-7.5 3t-10.5 2t-16.5 0.5q-21 71 -21 135h-16v78l57 57h58q7 23 12 27t29 12l-21 96q4 7 10.5 21t12 22.5t14.5 16.5v96h-16 v18q0 34 16 60v18q-16 23 -16 62v36l-9 13.5t-6.5 9.5t-3 7.5t-2 11t-0.5 16.5h-119q-6 20 -12 29.5t-24 27.5v78q-14 12 -17.5 20t-3.5 25v14q4 1 11.5 3.5t8.5 3t5.5 2.5t5 3.5t3 5.5t4 8t3.5 11q11 0 16.5 0.5t10.5 2t7.5 3t9 6.5t13.5 9z" />
<glyph unicode="o" d="M733 639h37q5 -2 11 -5q8 -3 9 -5.5t1 -15.5v-13q-31 6 -38 10.5t-20 28.5zM647 535q3 3 11 0q5 -3 1 -7q-3 -3 -11 0q-5 3 -1 7zM733 465h58q0 -11 -0.5 -16.5t-2 -11t-3 -8t-6.5 -10l-9 -13.5h-20q-14 22 -15.5 27.5t-1.5 31.5zM442 348l17 -20zM537 870q-4 -3 -9 -6 l-7.5 -4.5l-5 -3t-5 -2t-5 -1.5t-7 -1h-8h-11.5q-13 -22 -24.5 -33.5t-34.5 -25.5v-76q-11 -3 -16.5 -4t-11 -5t-7 -5.5t-8.5 -10.5t-12 -14l-21 -98q4 -3 9 -6t7.5 -5t5.5 -4t4 -3.5t2 -4t1 -4.5q0 -3 -1 -7t-3 -11t-4 -13v-39q17 -42 20 -96q18 -22 23.5 -34.5t11.5 -43.5 l59 -20h99v-19h114l21 19v78h98l37 39v16q0 16 3 31t8.5 35.5t8.5 33.5q-35 -5 -57 0l57 58q-4 36 -4 57q0 19 4 59l-135 135h-20q-6 -4 -14.5 -9.5t-10 -6t-5.5 -4.5t-5.5 -7l-5.5 -11h-17q-35 56 -41 77h-77zM655 1083q2 -1 8.5 -3.5t8 -3t6.5 -2t6 -2.5t4.5 -3t5 -3.5 t4.5 -3.5t5 -4.5t4.5 -6t5.5 -7.5h114l99 -57v-39l20 -18q19 -6 29 -13t29 -26l20 -21v-57q13 -4 22.5 -9.5t14.5 -10t20 -19.5v-117l37 -18v-78h21v-57q-3 -5 -7.5 -11.5t-6 -9t-3.5 -7t-2.5 -8t-1 -9.5t-0.5 -15h-16q-2 -26 -5 -35t-16 -22v-78l-12.5 -12.5t-9.5 -8.5 t-10.5 -8t-10 -5t-14.5 -5v-77q-25 -20 -37.5 -26.5t-40.5 -12.5l-20 -19v-39l-21 -20q-64 -19 -135 -19l-57 -57h-99q-10 6 -14.5 8.5t-8 6.5t-4.5 5.5t-3.5 7.5t-5.5 11h-78v18h-99q-13 21 -14.5 26t-1.5 32h-41l-20 20v19l-17 20h-41l-57 57v58l-41 20q-9 42 -37 97v77 h21v117h-21v78q14 23 17 26.5t20 12.5v57q4 7 12.5 23t12 23.5t8.5 21t8 28.5q45 42 78 60v39l20 18h37v19h41q2 4 4 9t3.5 7t2.5 4t5 4.5t7.5 5t12.5 8.5q31 -2 44 -4.5t36 -13.5q23 29 45 29q11 0 53 -11q16 16 57 39z" />
<glyph unicode="p" d="M532 686l21 -20zM532 588q26 -8 30 -13q3 -4 9 -24h-39v37zM629 395h39q19 -9 19.5 -10t0.5 -29q-31 6 -38.5 10.5t-20.5 28.5zM668 840l-58 20q-23 -15 -26.5 -18.5t-12.5 -20.5h-39l-38 -20l20 -58q-13 -18 -23.5 -60.5t-15.5 -55.5v-58h19q0 -42 5.5 -58t32.5 -38 q-13 -24 -15.5 -36t-2.5 -42q33 -10 39.5 -17t17.5 -42q31 -21 47 -27.5t50 -9.5l20 -78q26 13 34.5 22t22.5 36q48 10 97 38l-19 58q26 22 31.5 38.5t7.5 59.5q19 6 29 13t29 26v16t-1.5 11t-2.5 7.5l-6 9l-9 13.5q13 19 16 33t3 45h-19q0 100 -20 174q-19 6 -29 13t-29 26 l-135 19q-19 -9 -19.5 -10t-0.5 -29zM745 1112q27 -14 37 -23.5t23 -35.5h96q19 -19 26 -29t13 -29h14.5t9 -0.5t7.5 -2t5.5 -2.5t9 -5.5t11.5 -7.5l21 -78l39 -20q3 -4 6 -9l4.5 -7.5l3 -5t2 -5t1.5 -5t1 -7v-8v-11.5h16.5t11 -2t7.5 -3t9.5 -6l13.5 -9v-154h20l-20 -39 q20 -31 20 -80v-36q-24 -43 -39 -58v-155h-39v-78l-78 -19l-18 -39l-21 -20h-38q-13 -22 -23.5 -32t-34.5 -25h-78q0 -11 -0.5 -15t0 -8.5t-2 -8.5t-3 -5.5t-5.5 -9t-7 -11.5h-78q-13 39 -32.5 52.5t-65.5 23.5v20h-12q-18 0 -26.5 3t-19.5 16h-38l-19 -19q16 -55 19 -116 q10 0 15 -0.5t9 -0.5t8 -2l6 -3t9 -5.5t12 -7.5l-21 -59l78 20l135 -39q-6 -25 -9.5 -28.5t-28.5 -9.5v-19q1 -1 4 -2q15 -8 22 -18q1 -2 5 -8q4 -7 7 -11l-18 -98q-46 4 -68 4q-68 0 -127 -23h-12q-18 0 -25.5 3t-19.5 16h-20q-21 -16 -39 -16t-39 16h-16.5t-11 -2 t-7.5 -2.5t-9.5 -6t-13.5 -8.5h-18q-4 3 -10.5 6.5t-8 5t-5.5 3.5t-6 2.5t-7 1t-9.5 0.5h-12.5q-19 -13 -33 -16t-45 -3l-39 78v78l39 76q59 -3 98 -19q3 8 11 32t11 35.5t8 31.5t7 38t2 38h18v116l-38 39l20 174l-39 39q7 100 39 174v19l-39 20q6 31 13 45t26 33v96 q-24 13 -28.5 20t-10.5 38h-117q-39 63 -39 137l19 18q74 0 117 19h20q24 -13 36 -16t42 -3l18 19h39q5 -3 13.5 -8.5t9.5 -6t7.5 -2.5t11 -2h16.5l20 -39h19q8 28 38 58l136 39l20 -39h19q9 30 38 59z" />
<glyph unicode="q" d="M741 678l-20 -21zM741 580q-26 -8 -30 -13q-3 -4 -9 -24h39v37zM645 387h-39q-19 -9 -19.5 -10t-0.5 -29q31 6 38.5 10.5t20.5 28.5zM606 831l58 21q2 -1 4 -3q22 -14 27 -23q1 -1 3 -6q3 -4 4 -7h39l39 -20l-20 -58q13 -18 23.5 -61t15.5 -56v-57h-19q0 -42 -5.5 -58 t-33.5 -38q13 -24 16 -36.5t3 -41.5q-33 -10 -40 -17.5t-18 -41.5q-31 -21 -46.5 -27.5t-49.5 -9.5l-20 -78q-27 14 -36 22.5t-22 34.5q-43 9 -96 39l19 58q-26 22 -31.5 38.5t-7.5 59.5q-19 6 -29 13t-29 26v16.5t1.5 10.5t2.5 7.5l6 9l9 13.5q-13 19 -16 33t-3 45h19 q0 100 20 174q19 6 29 13t29 26l135 18q19 -9 19.5 -10t0.5 -29zM528 1165q-16 -8 -26 -29.5t-18.5 -50.5t-14.5 -41h-96l-12.5 -12.5t-8.5 -9.5t-8 -10.5t-5 -10t-5 -14.5q-11 0 -15 -0.5t-8.5 0t-8.5 -2t-5.5 -3t-9 -5.5t-11.5 -7l-20 -78l-39 -21q-3 -5 -6.5 -10.5t-5 -7 t-3 -6t-2 -5.5t-1 -6.5t-0.5 -9v-12.5h-16.5t-11 -2t-7.5 -3t-9.5 -6l-13.5 -9v-154h-20l20 -39q-20 -31 -20 -80v-37q23 -41 39 -57v-156h39v-77l77 -19l19 -39l20 -20h39q13 -22 24 -33t34 -25h77v-16.5t1.5 -10.5t2.5 -7.5l6 -9l9 -13.5h78q13 39 32.5 52.5t65.5 23.5v20 h12q18 0 25.5 3t19.5 16h39l19 -19q-16 -55 -19 -116q-10 0 -15 -0.5t-9 -0.5t-8 -2l-6 -3t-9 -5.5t-12 -7.5l20 -59l-77 20l-136 -39q6 -25 10 -29t29 -10v-18q-17 -9 -20.5 -12.5t-18.5 -26.5l19 -98q46 4 67 4q68 0 127 -23h13q18 0 25.5 3t19.5 16h20q23 -17 39 -17 t39 17h16.5t10.5 -1.5t7.5 -2.5l9 -6l13.5 -9h19q4 3 10.5 6.5t8 5t5.5 3.5t6 2.5t7 1t9.5 0.5h12.5q19 -13 33 -16t45 -3l39 78v78l-39 76q-59 -3 -98 -19q-3 9 -10.5 32.5t-11 35t-8.5 31t-7 38t-2 37.5h-19v117l39 39l-20 174l39 39q-7 100 -39 174v18l39 21 q-6 31 -13 45t-26 33v96q24 13 28.5 20t10.5 37l30 -4q39 63 39 138l-18 18q-18 2 -18 4q9 8 -13 18h-20q-24 -13 -35.5 -15.5t-42.5 -2.5l-19 18h-38q-4 -3 -9 -6l-7.5 -4.5l-5 -3t-5 -2t-5 -1.5t-7 -1h-8h-11.5l-20 -39h-19q-4 13 -9.5 22.5t-10 14.5t-19.5 20l-135 39 l-20 -39h-19q-2 6 -8 35.5t-13.5 52.5t-17.5 33z" />
<glyph unicode="r" d="M401 1085h41q28 -28 37 -59q8 0 24.5 1t24.5 1q73 0 127 -20l58 57h114v20q30 0 44 -3.5t34 -16.5l13.5 9t9.5 6t7.5 3t11 2h16.5l41 -20v-18h13h10.5t4.5 -2t3 -6q2 -7 5 -13h62l57 -39v-76l58 -20q-6 -30 -13 -43.5t-28 -34.5l20 -96l-20 -19l-37 -20l-21 -19v-38 l-37 -39l-98 18q-24 -16 -45 -16q-16 0 -53 16v14q0 17 3 24t17 21v19q-19 26 -37 96l37 39q-30 6 -37 10.5t-20 28.5h-37q-20 -24 -42 -31.5t-56 -7.5h-41l-17 -78q-26 6 -30.5 10.5t-10.5 28.5h-16l-20 -96l57 -19v-38l-57 -21v-96l36 -21v-20q0 -50 -16 -76l16 -78 q-18 -18 -24 -27.5t-12 -29.5h16.5t10.5 -1.5t7.5 -2.5l9 -6l13.5 -9l20 37h37q27 -27 60 -37v97l7.5 5t6.5 4t4.5 3t4.5 2.5t4 1.5t4.5 1t4.5 0.5t6.5 0.5h7h9.5q-4 -16 -4 -22q0 -18 3 -35.5t9 -41.5t8 -36l21 -18l37 -21q18 -37 20 -78q-30 -9 -78 -39h-75 q-6 -7 -13.5 -12.5t-13 -9t-16.5 -8.5t-17 -9h-20q-5 3 -13.5 7.5t-13 7t-10.5 6t-11 8t-10 10.5h-36q-26 -19 -99 -39q-32 23 -53 30t-61 9v-18h-78l-41 -39l-58 18v21l-94 18l-20 21v39q5 3 10.5 6.5t7 5t6 3t5.5 2t6.5 1t9 0.5h12.5l21 78q-8 -2 -21 -2t-16.5 7t-3.5 24 v28h15t8.5 -0.5t7.5 -2t5.5 -2.5t9 -5.5t11.5 -7.5q23 27 46 33t73 6v-21h98l-20 78l20 39l-41 39q21 70 21 156h20q0 3 -2 9t-2 9q0 50 20 78v20q-20 28 -20 76q0 3 2 10.5t2 10.5q-3 5 -6.5 10.5t-5.5 7.5t-3.5 5.5t-2 5.5t-1.5 6.5t-1 9v12.5l-99 -18q-36 15 -98 18v20 h-57q-5 3 -13.5 8.5t-9.5 6t-7.5 2.5t-11 2h-16.5q9 42 24 60.5t54 35.5q11 36 37 78q4 0 11 -0.5t9.5 -0.5t7.5 -0.5t7.5 -1.5t6 -2t6 -3t6 -4.5t7.5 -5.5h37q17 12 41 12q8 0 58 -12zM752 756v-39h-19v57zM733 659l19 -20zM856 647q4 0 4 -8v-6l-4 -2q-4 0 -4 10q0 6 4 6z " />
<glyph unicode="s" d="M627 367q12 28 17.5 32t39.5 7q-15 -24 -21.5 -28.5t-35.5 -10.5zM811 301q3 3 13 0q8 -1 3 -6q-3 -3 -13 0q-8 1 -3 6zM508 831q-20 -29 -32 -37.5t-46 -19.5l41 -117q48 0 70 -6t45 -33q52 16 119 19q36 -33 94 -57q13 26 22 35t35 22q-4 -16 -4 -39q0 -15 9 -22.5 t36 -16.5v78q-5 3 -10.5 6.5t-7.5 5.5t-5.5 3.5t-5.5 2t-6.5 1.5t-9 1h-12.5l-21 19l-20 98q-36 11 -78 37l-78 -18q-8 24 -11 27.5t-26 10.5h-98zM373 522l20 -20zM373 483v-116q25 -20 37.5 -26.5t40.5 -12.5l20 -19q6 -29 12 -42t25 -36h16.5t10.5 -2t7 -3t9.5 -6 l13.5 -9h21q25 14 37 14q13 0 41 -14h12q17 0 24 3t21 17q5 -3 10.5 -6.5t7.5 -5.5t5.5 -3.5t5.5 -2t6.5 -1.5t9 -1h12.5q48 30 78 39l21 20l41 97q-47 9 -99 39l-98 -21q-6 26 -10.5 33t-26.5 26q-27 -8 -41 -8q-16 0 -37 8h-41q-5 -3 -10.5 -6.5t-7.5 -5.5t-5.5 -3.5 t-5.5 -2t-6.5 -1.5t-9 -1h-12.5q-16 20 -41 32.5t-40 16t-54 10.5zM451 1044q30 -6 36.5 -10t20.5 -28q34 34 57 34q28 0 62 -34q22 26 37 31t57 7v-77q73 0 119 20l57 -20q21 30 33 39.5t45 19.5q20 -24 32 -30t46 -9q34 -55 37 -137l-58 -76v-39q13 -19 16 -32.5t5 -45.5 q-2 -2 -7.5 -9t-7 -8.5t-5.5 -7t-5 -7.5t-4 -7t-3.5 -8t-2.5 -8t-3.5 -10t-2.5 -12h-76v-21h55l21 -18q10 -38 25.5 -56t52.5 -41l20 -59l-9 -9l-8 -8t-6 -6.5t-6 -7t-4.5 -7t-4 -9l-3.5 -10.5l41 -19q-13 -65 -41 -98v-78q-54 -28 -115 -39q-2 -31 -4 -41.5t-14 -34.5h-117 v-20q-16 0 -58 -2t-65 -2q-74 0 -110 24l-94 -20q-48 30 -78 39q-29 29 -62 39q0 -5 -0.5 -14.5t-0.5 -12.5t-1 -9.5t-1.5 -9.5t-2.5 -8.5t-4.5 -11t-5.5 -12.5h-135l-21 20q0 97 -20 154v21q17 40 20 96h-20v135l57 78q9 -2 15 -4t9.5 -3t8 -5t6 -5.5t8.5 -9.5t10 -12 q10 33 18.5 40.5t43.5 18.5v19l-98 18v78h-21v98q-13 21 -14.5 26t-1.5 32q3 3 9 8.5t8.5 8t7 6.5t7 6t7 5.5t7.5 6t7.5 5.5t9.5 5.5t10 5.5v78q7 4 27 16.5t28 18t21 17.5t23 26q35 3 46.5 8.5t31.5 29.5z" />
<glyph unicode="t" d="M713 246l20 -19zM557 1389h41q18 -18 24.5 -28t12.5 -30h37l41 -39q-27 -92 -41 -116v-16.5t2 -11t3 -7.5t6 -9.5l9 -13.5l-20 -78l119 -39q36 43 118 43q15 0 47 -2t48 -2l20 -18v-98q30 -21 38.5 -32t18.5 -44q-56 -34 -118 -39q-14 -24 -21.5 -28.5t-36.5 -10.5 q-22 26 -37 31.5t-57 7.5q-22 14 -28.5 16t-32.5 2q-4 -36 -12.5 -44t-45.5 -13v-29q0 -77 21 -127v-18l-41 -21l41 -57q0 -8 -1 -24.5t-1 -24.5q0 -76 -19 -125q28 -6 40.5 -12.5t37.5 -26.5l-20 -78q25 12 36 14.5t41 4.5q-8 27 -8 41q0 13 8 37q-9 8 -12.5 15t-3.5 10.5 v19.5v14q-14 12 -17 19t-3 24v14h94q11 32 25 41t53 17q20 25 31.5 30.5t45.5 8.5l21 -39v-39q3 -2 7.5 -4t6 -3t4 -2.5t4 -3l3.5 -3.5t4.5 -5.5l5 -7t6.5 -10.5q-3 -53 -21 -96l37 -19v-39l-12.5 -12.5t-9.5 -8.5t-10.5 -8t-10 -5t-14.5 -5v-77q-23 -7 -39.5 -15.5 t-31.5 -26l-21 -24.5t-22.5 -35.5t-20.5 -34.5h-99v-20h-114q-22 14 -33.5 25t-24.5 34h-41q-40 43 -57 78l-57 19v96h-21v116h-20v19q0 50 20 78v20q-16 22 -16 29t16 29l-20 77q20 57 20 156h-114q-23 14 -27.5 18t-13.5 21l-95 -21l-61 39l-16 21v39q18 18 28 24.5 t29 12.5q0 28 3 40t17 37q46 -2 78 -18q6 11 13 19t11 12t16 12.5t18 13.5h15t8.5 -0.5t7.5 -2t5.5 -2.5t9 -5.5t11.5 -7.5q13 24 20 28.5t37 10.5l-20 57l41 19l-41 59l20 117zM1040 1001h41v-38l-9 3l-7.5 2.5t-5.5 2t-4.5 2t-3.5 3t-3 4t-2 5.5t-3 7z" />
<glyph unicode="u" d="M741 145q7 -4 11 -7t7.5 -5t5.5 -5t3.5 -5t3 -6.5t2 -6.5t2 -10t2.5 -12q-30 6 -37 10.5t-20 28.5zM451 301v-20h77v20h-77zM68 1059l149 -23q13 13 22 16t35 5q32 -22 49 -29t50 -10q41 -66 41 -156q21 8 32 8q4 0 6 -1t6.5 -4t12.5 -5l4 -29q-6 -3 -10 -6.5t-5 -6 t-3.5 -4t-5.5 -1.5q-15 0 -60 31q-2 -8 -2 -49v-19q0 -48 -16 -69v-19l18 -39l-18 -57q18 -27 18 -51q0 -21 -18 -66l41 -39l-23 -57l60 -60h41q10 34 36 60q29 -6 36.5 -10.5t21.5 -28.5q32 16 78 18q12 28 17.5 32t39.5 7q-13 21 -14.5 26t-1.5 32l57 20l-21 96 q30 22 48.5 71.5t29.5 64.5q-8 21 -8 36q0 14 8 41q-30 26 -57 78h-17q-16 0 -21.5 3t-18.5 18h-99v18l-31 23q6 19 8 45t9.5 41.5t30.5 33.5l63 11l55 2h21q17 -7 21.5 -6t13.5 5.5t18 4.5q3 0 19 3t22 3q22 -10 70 -10q13 0 37.5 1t33.5 1l-4 -80q0 -10 0.5 -15t0.5 -9 t2 -8l3 -6t5.5 -9t7.5 -12v-97q-19 -45 -19 -127v-28h19v-58q-13 -24 -16 -36.5t-3 -41.5h19v-114h-19v-99l6 -3q12 -5 13 -7q0 -2 -4 -7q-9 -10 -15 -21q34 -9 60 -9q23 0 57 9q48 -30 78 -39q0 -29 -3.5 -42.5t-17.5 -33.5l21 -60l-9 -9l-8 -8t-6 -6.5t-6 -7t-4.5 -7 t-4 -9l-3.5 -10.5q-29 -1 -41 -4.5t-37 -15.5h-37l-20 20h-58q-5 -3 -10.5 -6.5t-7.5 -5.5t-5.5 -3.5t-5.5 -2t-6.5 -1.5t-9 -1h-12.5q-15 15 -20 20.5t-11 15.5t-10 23q-27 -18 -29 -18q-1 0 -28 18q20 56 20 96q-44 -18 -98 -18q-20 -52 -78 -117h-16.5t-10.5 -2t-7 -3 t-9.5 -6l-13.5 -9h-78v-19h-57q-27 8 -50 8q-11 0 -65 -8l-9 13.5t-6.5 9.5t-3 7.5t-2 11t-0.5 16.5h-77q-2 9 -5 18t-7.5 19.5t-7 17t-9 18t-8.5 16t-10.5 17.5t-9.5 15.5t-10.5 17.5t-10.5 16q0 13 -1 20.5t-2 10t-7.5 12t-10.5 15.5v77h21v156h-21v57q25 57 25 136 q0 17 -2 49t-2 49q-17 9 -20 12.5t-17 26.5l-68 20q-6 2 -6 13q0 5 5 23t5 28q0 12 -4 18l-8 23q8 16 11 28t5 30.5t5 31.5z" />
<glyph unicode="v" d="M305 684q0 30 -23.5 80.5t-33.5 50.5h-8q-29 0 -29 -10l-49 10h-10l-68 -10q-21 35 -21 47l11 59l-11 68q9 57 29 57l60 -8q5 37 28 37h31q25 -37 47 -37l55 -53l52 53q14 0 59 37h8l39 -29h10q19 0 37 11q32 -19 60 -19h28l29 19l39 -29h10l133 -64l70 74l67 8 q8 -5 35 -41.5t37 -36.5q4 11 6 36.5t4 44t6 18.5q12 0 48 -39l88 10q18 -30 18 -49q-10 -58 -10 -78q6 -3 6 -8l2 -25v-20l-8 -17q-6 3 -6 5l26 16l-39 -29l-39 13q-117 0 -155 -127l-55 -172q-31 -98 -31 -99q-2 -3 -10.5 -33.5t-24.5 -75.5t-37 -79q-5 -17 -11 -52 t-11.5 -56.5t-22.5 -44.5t-45 -34q-45 -61 -90 -61t-105 133q5 15 5 21q0 39 -46 88q-8 13 -11.5 23t-3.5 13.5t-0.5 7t-4 6.5t-12.5 9l-17 76q-33 10 -50 49.5t-25 108.5q-39 112 -39 114zM518 958v-28l49 -8v8q0 12 -28 28h-21zM211 930v-8h18q19 0 19 18l-19 10 q-18 -3 -18 -20zM616 950l-10 -49l29 -18h10q21 0 21 18v10q0 15 -41 39h-9zM559 844q0 -58 -20 -58h-58l58 -163v-13q54 -114 86 -114q22 -11 28 -11v-47q3 -20 21 -20q28 74 28 86l-8 59q13 0 29 29v31l-10 65q59 9 59 29v28q-54 33 -98 99q-18 0 -78 -8q-16 8 -37 8z M596 438v-28h29v8q0 20 -19 20h-10z" />
<glyph unicode="w" d="M430 879l-37 -39q0 -13 1 -20.5t2 -10t7.5 -12t10.5 -15.5q-13 -20 -13 -37q0 -10 5.5 -30.5t7.5 -30.5h-21v-57l37 -97h21q2 23 7.5 39.5t10.5 24t23 33.5q-2 13 -7.5 33t-5.5 28q0 30 29 55l-16 97zM819 860v-20l58 -19q-5 -29 -5 -53q0 -22 5 -45q24 8 29 12t12 27 q-5 35 -5 39t5 39q-42 17 -99 20zM877 705l-21 -39h41q0 28 -0.5 29t-19.5 10zM639 543q-6 -6 4 -7q6 -1 8 1q6 6 -4 7q-6 1 -8 -1zM627 510l-21 -57q14 -23 17 -26.5t20 -12.5v-19q-30 -22 -57 -59q20 -34 20 -62v-34h115v18l-78 39v20q32 22 42 34t20 44q-25 22 -25 35 q0 9 10.5 29.5t14.5 32.5zM160 1053h16t11 -1.5t7.5 -2.5l9 -6l13.5 -9q13 9 25.5 12.5t19 4.5t33.5 2q24 -8 29 -12t12 -27l78 20q-6 -30 -11.5 -38t-29.5 -21v-39q13 -4 22.5 -9.5t14.5 -10t20 -19.5l62 137q28 0 38 2.5t35 16.5h41q5 -3 13.5 -8.5t9.5 -6t7.5 -2.5t11 -2 h16.5q13 13 21 15t36 4q24 -8 29 -12t12 -27l115 39q-4 -44 -19.5 -58.5t-58.5 -19.5v-19q30 -6 36.5 -10t20.5 -28l62 18q-13 39 -13 45q0 22 29 72q9 0 27 1t26 1q49 0 82 -21h21q4 3 8 5t6.5 3.5t6.5 3t6 2.5t7 1.5t6.5 1t7.5 1t8 0.5t10 0.5t11 0.5l58 -39l-17 -96 q5 -5 7.5 -9t4.5 -7t2.5 -8.5t1 -8t1 -11.5t0.5 -14q-25 -20 -37.5 -26.5t-40.5 -12.5q0 -5 -0.5 -14t-1 -12t-1 -8.5t-2.5 -8.5t-4.5 -7t-7.5 -9v-96h-20v-37q0 -49 -20 -80q3 -5 6.5 -10.5t5.5 -7.5t3.5 -5.5t2 -5.5t1.5 -6.5t1 -9v-12.5l-41 -39v-58l-3 -9 q-6 -19 -13 -23q-4 -2 -19 -6l-1 -1h-1q19 -39 21 -77h-21l21 -99q-26 -26 -62 -37l-16 -116q-28 -1 -40 -4.5t-38 -16.5h-41q-7 4 -13.5 9t-9 6.5t-7.5 3t-10.5 2t-16.5 0.5l-37 39v77q-4 1 -11.5 3.5t-8.5 3t-5.5 2.5t-5 3.5t-3 5.5t-4 8t-3.5 11h-94q-13 -13 -20 -15.5 t-25 -2.5h-17l-57 -135h-172l-21 18v78q-22 18 -32.5 32.5t-24.5 45.5v18q5 11 7.5 19.5t4.5 20t2.5 16t1 21t0.5 21.5v19l-36 20v154q-9 8 -14.5 16t-12 22t-10.5 21v78q-5 2 -11 5l-8 4t-6 4.5t-7.5 9t-8.5 14.5v39h41l-41 98q-61 11 -115 39v115l37 59q29 0 41.5 3 t36.5 16z" />
<glyph unicode="x" d="M545 141q-3 -3 1 -11q3 -5 7 -1q3 3 -1 11q-3 5 -7 1zM655 330q17 -28 17 -60v-18q-11 0 -15 0.5t-8.5 0t-8.5 2t-5.5 3t-9 5t-11.5 7.5zM287 270h-58v21h58v-21zM598 408q-7 -21 -15 -34t-15.5 -19.5t-30.5 -24.5q0 -32 -4.5 -41t-32.5 -37q6 -33 12 -46t25 -32l41 57 q4 -20 4 -53q0 -38 -4 -61l20 -21h37q7 4 13.5 9t9 6.5t7.5 3t10.5 2t16.5 0.5l21 18q6 29 12 42t25 36v18q-19 19 -29 26t-29 13v78q-15 4 -29.5 11.5t-20 11.5t-23.5 19t-21 18zM467 492q7 7 9 -8q0 -6 -1 -7q-7 -7 -9 8q0 6 1 7zM1159 872l17 -20zM520 834 q8 -23 12 -27.5t27 -11.5l-22 -60q24 -13 35 -15.5t42 -2.5q-16 -31 -16 -60v-18h16q2 7 4.5 12.5t4 9t6.5 9t6.5 7l9.5 9.5l10 10l37 117l-37 39h-96zM578 948q12 28 17.5 32t39.5 7q-15 -24 -21.5 -28.5t-35.5 -10.5zM324 987l20 -18zM983 1026h156l78 -39 q-3 -11 -8.5 -30.5t-8.5 -30t-5.5 -25.5t-2.5 -29q0 -10 4 -38l-94 -39q-80 0 -119 18l-57 -78q-11 0 -15 -0.5t-8.5 0t-8.5 -2t-5.5 -3t-9 -5t-11.5 -7.5q5 -3 14 -8.5t11.5 -7t8 -6t7.5 -7t5.5 -7.5t6 -10.5t5.5 -13.5q-3 0 -10.5 1t-10.5 1q-30 0 -79 -17.5t-76 -20.5 l-17 -117q26 -3 40.5 -19t18.5 -33t17.5 -30.5t38.5 -13.5q0 -10 1 -17t4 -13.5t4.5 -10t9 -9.5l10 -8t13.5 -9.5t15 -10.5l21 -78q43 -2 59.5 -7.5t38.5 -31.5l57 39h58l37 -21l20 -38q4 -1 12 -2.5t10 -2t6.5 -2t6.5 -3t5 -3.5t5 -5.5t5 -7.5t7 -11q-7 -5 -13.5 -10.5 t-9.5 -8t-5 -2.5t-5 2.5t-10 8t-14 10.5l-20 -78q4 -1 12.5 -4t10.5 -4t8 -3.5t8 -4.5t6.5 -5.5t8 -7.5t7.5 -10q-24 -8 -37 -8q-14 0 -41 8q-29 -37 -57 -37q-22 0 -41 16h-37q-20 -14 -33 -14q-8 0 -28 14h-17q-28 -18 -82 -18h-37v18h-172q-24 8 -29 12t-12 27 q-67 -13 -135 -57q-34 3 -46 9t-32 30q-53 -21 -131 -21h-4v-18h-98v18h-74l-20 78q-3 -3 -7.5 -8.5t-6 -7.5t-5 -5.5l-4.5 -4.5t-4.5 -3t-5.5 -3t-6.5 -2.5t-8.5 -2.5t-10 -2q1 13 5 24t7.5 18t13 16t14.5 13t18.5 14t19.5 14v18q-26 6 -30.5 10.5t-10.5 28.5 q13 -2 39 -3.5t43.5 -5t32.5 -11.5h41q20 13 34 16.5t44 3.5q8 26 13 30q4 3 24 9v57q55 42 98 60q-4 7 -9 13.5t-6.5 9t-3 7.5t-2 10.5t-0.5 16.5l119 18q-16 40 -16 60q0 17 16 57h-16q-17 0 -25 3.5t-20 17.5q4 4 7 6.5t7.5 4.5t6.5 3t8 1.5t8.5 1t11 1t12.5 0.5v21 q-47 0 -60.5 8.5t-17.5 48.5q-27 -8 -41 -8q-15 0 -36 8q2 4 3.5 8t1.5 5.5t1 3t1.5 2t3 0.5t5 -0.5t8.5 -0.5h12v21q-47 6 -60.5 25.5t-16.5 70.5q-16 0 -53.5 -2t-57.5 -2q-67 0 -102 25l-58 -21l-20 21l20 75q28 6 40.5 12.5t37.5 26.5h21v21h16l20 39h21l20 -39h17 q8 10 14 16.5t14.5 10.5t12 5t17.5 3.5t20 3.5q24 -8 29 -12t12 -27q4 4 9.5 10.5t7 8.5t5.5 6t6 5t6.5 3t9.5 3t13 3l20 -60h37l21 60q23 -5 59 0v-78l19 -21h77q6 29 12 42t25 36q48 0 99 21h36l13.5 -9t9.5 -6.5t7.5 -3t11 -2t16.5 -0.5q34 21 98 21v18z" />
<glyph unicode="y" d="M686 487l-20 -38h39v28.5t-19 9.5zM84 41q-23 -54 -23 -121q0 -59 23 -92l-18 -78l77 -57h78q6 -29 12 -42t25 -36h16.5t11.5 2t7.5 3t10 6.5t13.5 8.5q6 0 18.5 -1t18.5 -1q47 0 80 21h19q19 -13 32.5 -16t44.5 -3q9 12 19 23t23.5 21.5t22 16.5t27 18.5t25.5 17.5 l19 96q28 8 59 39v16.5t-2 11.5t-3 7.5t-6.5 10t-8.5 13.5q11 6 19 13t12 11t12.5 16t13.5 18v16.5t2 10.5t3 7t6 9.5l9 13.5q3 33 10 49.5t29 48.5l-20 97q30 9 59 38l19 78l59 19q-6 25 -10 29t-29 10q8 28 39 77v78h18v78h39v96q30 20 39 32.5t19 45.5h137l18 19 q0 128 -18 194h-117v19h-78v-19h-67q-62 0 -88 -20l-78 20q-31 -61 -37 -137l-78 20q0 -29 3 -40.5t16 -36.5q56 17 116 20l19 -20v-97q-19 -6 -29 -13t-29 -26v-38v-97l-18 -20h-98l-19 78q-5 3 -11.5 7.5t-9 6t-6.5 3.5t-8 2t-9.5 0.5t-14.5 0.5q4 4 10.5 9.5t8.5 7t6 5.5 t5 6t3 6.5t3 9.5t3 13q-41 33 -41 48q0 16 41 30v19q-26 13 -35 22.5t-23 36.5l97 18q-6 29 -10.5 36.5t-28.5 21.5q12 25 15.5 37t4.5 41h-20q-3 -5 -8.5 -13.5t-6 -9.5t-2.5 -7.5t-2 -11v-16.5h-20q-2 44 -19 78q-20 0 -73.5 3t-83.5 3q-114 0 -152 -45q-15 23 -18.5 26.5 t-20.5 12.5l-78 -20v-78q-6 -4 -10 -7.5t-7.5 -7.5t-5 -5.5t-4 -7t-3.5 -7.5t-4 -10.5t-4 -12.5l77 -57h154q5 -40 15.5 -58.5t43.5 -39.5v-76h19v-78l39 -20v-78q31 -31 59 -39q-3 -5 -6.5 -10.5t-5.5 -7.5t-3.5 -5.5t-2 -5.5t-1.5 -6.5t-1 -9v-12.5q37 -48 57 -97l20 -20 l58 -18q-13 -54 -13 -58q0 -21 13 -39v-39q-13 -13 -16 -20t-3 -25v-14l-77 -39l18 -76l-76 -20l19 96l-13.5 9t-9.5 6.5t-7.5 3t-11 2t-16.5 0.5l-39 96h-174z" />
<glyph unicode="z" d="M705 307l16 -18zM549 328l-57 -99q25 -13 34.5 -15.5t38.5 -2.5l21 57q-4 7 -11 21t-12.5 22.5t-13.5 16.5zM508 831l20 -20zM508 850v-19h-78q-21 -38 -57 -77q-33 -86 -37 -136l57 19q12 -37 22.5 -56.5t35.5 -39.5q8 21 8 34q0 16 -8 43q5 -3 10.5 -6.5t7.5 -5.5 t5.5 -3.5t5.5 -2t6.5 -1.5t9 -1h12.5l78 57v78l57 21l-37 96h-98zM492 1044h36l9 -13.5t6.5 -10t3 -8t2 -11t0.5 -16.5q13 4 22.5 7t19.5 10t14 10t18.5 15t19.5 17q5 0 12.5 -1t10.5 -1t8.5 -1t7 -1.5t5 -2.5t5 -4.5t4 -6.5t4.5 -8.5t5 -11.5q51 22 94 22q45 0 119 -22 q13 24 19.5 28t37.5 10q6 -29 12 -41t25 -36v-97l-21 -20l-37 -19l-20 -59l-57 -18q-5 -46 -20.5 -66.5t-57.5 -32.5l-21 -18q-11 -34 -19.5 -46t-37.5 -32l20 -39q-5 -5 -18.5 -18t-19.5 -18.5t-17.5 -14.5t-21.5 -15.5t-21 -11.5v-75l-78 -21v-18l78 -21q0 -26 -1.5 -30.5 t-14.5 -26.5q68 -21 114 -21h21l16 39h78v99q-34 10 -40 16.5t-17 40.5h78l20 39h37q2 7 4.5 12.5t4 9t6.5 9t6.5 7l9.5 9.5l10 10h94q7 -23 41 -78v-96q3 -5 6.5 -10.5t5.5 -7.5t3.5 -5.5t2 -5.5t1.5 -6.5t1 -9v-12.5q-30 -30 -61 -39v-96q-4 -6 -8 -12.5t-6 -9t-3 -5 t-5 -4.5t-5.5 -3t-9.5 -5l21 -78l-119 -39h-37q-51 20 -131 20q-13 0 -40 -1t-42 -1l-20 21h-37q-33 -21 -86 -21h-49q-9 -17 -13.5 -21t-27.5 -18h-21q-10 6 -14.5 8.5t-8.5 6.5t-4.5 5l-4 8l-5.5 11h-78q-29 -25 -98 -39l-78 78v60q25 36 33 62.5t8 72.5q32 16 78 18 l16 99l21 18l41 18l16 60q22 14 29 16t33 2q-26 26 -33.5 44t-7.5 55q-30 -9 -78 -39h-78l-37 57l21 78q-41 32 -41 100v55h20v136l37 39q30 0 42 2.5t36 15.5h14.5t9 -0.5t7.5 -2t5.5 -2.5t9 -5.5t11.5 -7.5q20 15 71.5 23t68.5 15z" />
<glyph unicode="{" d="M958 1528l99 -21l37 -18v-19h16.5t10.5 -2t7 -3t9.5 -6l13.5 -9v-78q-4 -6 -8 -12.5t-6 -9t-3 -5t-5 -4.5t-5.5 -3t-9.5 -5v-39h-20q-1 -5 -2.5 -13t-2 -10t-2 -7t-3 -6.5t-3.5 -4.5t-5.5 -5t-7.5 -4.5t-11 -6.5q-3 -33 -9.5 -45t-31.5 -33l20 -78q-5 -3 -10.5 -6.5 t-7 -5t-6 -3t-5.5 -2t-6.5 -1t-9 -0.5h-12.5q-8 -38 -18.5 -56.5t-38.5 -39.5q-3 -33 -9.5 -45t-31.5 -33v-98q-24 -13 -36.5 -16t-41.5 -3v-18q28 -12 33 -19.5t8 -40.5h-62l-16 -18q-2 -27 -5 -37t-16 -23v-96q-25 -20 -37 -26.5t-40 -12.5l20 -96q-16 -20 -21 -26.5 t-10.5 -19.5t-9.5 -32l-78 -57l21 -60q-4 -3 -9 -6l-7.5 -4.5l-5 -3t-5 -2t-5 -1.5t-7 -1h-8h-11.5v-78l-57 -20v-97h-20v-96q-19 -19 -29 -26t-29 -13v-96l-57 -78h-78l-20 39h-115q-8 31 -8 60q0 17 3.5 48.5t4.5 45.5q3 3 7 6q3 3 0 11q-1 3 -1.5 5.5t-2 7t-3.5 9.5 l16 39l41 20l21 96h16l21 97q5 3 10.5 6.5t7.5 5.5t5.5 3.5t5.5 2t6.5 1.5t9 1h12.5q5 41 17 67t40 50v57q5 8 8 13t5 8t5.5 5.5t5 3.5t8 4t9.5 5v39h21q1 4 2.5 12t2 10t2 6.5t3 6.5t3.5 5t5.5 5t7.5 5t11 7v78l13.5 9l9 6t7.5 2.5t11 1.5h16q3 36 11 56t30 42v78 q20 24 25.5 35.5t11.5 39.5l57 21v96q29 29 62 39l-21 39q37 35 78 57v15v7v6v4.5t0.5 5t1.5 4t2 4t2.5 4t4 5l5.5 5.5v96q37 35 78 57q-13 21 -14.5 27t-1.5 33l57 57v78q13 4 22.5 9.5t14.5 10t20 19.5z" />
<glyph unicode="|" d="M549 1092q-14 32 -14 38q0 15 4 23l-41 86q17 46 47 86q-22 13 -26 18.5t-15 28.5l28 76l-32 70q15 13 21 24t14 35l98 22h41l8 -16q21 9 30 9.5t31 -3.5l33 -71q-5 -28 -6.5 -32.5t-11.5 -19.5l16 -34l-18 -9q2 -7 4 -14.5t3 -11.5t1 -8q0 -12 -16 -33q10 -33 10 -43 q0 -15 -15 -45l52 -62q-16 -26 -23 -30q-4 -3 -22 -11q8 -40 8 -51q0 -27 -19 -61q11 -37 11 -43q0 -15 -15 -45l41 -88q-16 -22 -26 -29.5t-37 -20.5l8 -16h16q18 0 25.5 -6t21.5 -31l-57 -26l-6 -25q12 -27 12 -39q0 -7 -6 -22l41 -89q-19 -38 -32 -50q-8 -7 -21 -17 l59 -78q-10 -38 -10 -53q0 -21 4 -35l-45 -86l43 -45q-3 -5 -6.5 -10.5t-4.5 -7.5t-3.5 -5.5t-4 -4.5t-5.5 -3.5t-7.5 -4.5t-11.5 -5l33 -70l-45 -43l41 -88l-19 -8l41 -86q-12 -39 -35 -59l41 -88l-20 -95l-70 -32l-35 26l-104 -49q-19 21 -29 41t-20 51t-17 47q1 4 4 8 q2 4 -5 10q-2 3 -3.5 4.5l-5 5t-6.5 7.5v43l27 35l-21 96l14 6l-22 97q4 6 8.5 14t5.5 10t5.5 6t9 6.5t14.5 6.5q-12 37 -12 65q0 29 16 66l-25 51q1 11 2 17t3.5 11.5t3 7t5.5 8t7 9.5l-16 35l18 8q-6 24 -6 33q0 14 14 35l-33 71q2 3 5 9q11 18 22 24q4 2 17 8h1 q-14 44 -14 60q0 17 10 47l-32 70q6 30 6 45q0 11 -6 38l43 43l-39 89q12 36 39 61l-35 27q18 48 45 84z" />
<glyph unicode="}" d="M958 1528l99 -21l37 -18v-19h16.5t10.5 -2t7 -3t9.5 -6l13.5 -9v-78q-4 -6 -8 -12.5t-6 -9t-3 -5t-5 -4.5t-5.5 -3t-9.5 -5v-39h-20q-1 -5 -2.5 -13t-2 -10t-2 -7t-3 -6.5t-3.5 -4.5t-5.5 -5t-7.5 -4.5t-11 -6.5q-3 -33 -9.5 -45t-31.5 -33l20 -78q-5 -3 -10.5 -6.5 t-7 -5t-6 -3t-5.5 -2t-6.5 -1t-9 -0.5h-12.5q-8 -38 -18.5 -56.5t-38.5 -39.5q-3 -33 -9.5 -45t-31.5 -33v-98q-24 -13 -36.5 -16t-41.5 -3v-18q28 -12 33 -19.5t8 -40.5h-62l-16 -18q-2 -27 -5 -37t-16 -23v-96q-25 -20 -37 -26.5t-40 -12.5l20 -96q-16 -20 -21 -26.5 t-10.5 -19.5t-9.5 -32l-78 -57l21 -60q-4 -3 -9 -6l-7.5 -4.5l-5 -3t-5 -2t-5 -1.5t-7 -1h-8h-11.5v-78l-57 -20v-97h-20v-96q-19 -19 -29 -26t-29 -13v-96l-57 -78h-78l-20 39h-115q-8 31 -8 60q0 17 3.5 48.5t4.5 45.5q3 3 7 6q3 3 0 11q-1 3 -1.5 5.5t-2 7t-3.5 9.5 l16 39l41 20l21 96h16l21 97q5 3 10.5 6.5t7.5 5.5t5.5 3.5t5.5 2t6.5 1.5t9 1h12.5q5 41 17 67t40 50v57q5 8 8 13t5 8t5.5 5.5t5 3.5t8 4t9.5 5v39h21q1 4 2.5 12t2 10t2 6.5t3 6.5t3.5 5t5.5 5t7.5 5t11 7v78l13.5 9l9 6t7.5 2.5t11 1.5h16q3 36 11 56t30 42v78 q20 24 25.5 35.5t11.5 39.5l57 21v96q29 29 62 39l-21 39q37 35 78 57v15v7v6v4.5t0.5 5t1.5 4t2 4t2.5 4t4 5l5.5 5.5v96q37 35 78 57q-13 21 -14.5 27t-1.5 33l57 57v78q13 4 22.5 9.5t14.5 10t20 19.5z" />
<glyph unicode="~" d="M817 811q4 8 12 20h15q17 0 33 -8q51 -2 51 -39q0 -19 -13 -49q3 -6 3 -14q0 -34 -44 -37q-3 -2 -6 -4.5t-11 -9.5t-21 -17h-2q-1 -1 -8 -9.5t-17.5 -16.5t-24.5 -11q-4 2 -8 4.5t-6 4t-4 2.5q0 -7 -2 -23q-46 -12 -78 -12h-24v12l-7 -2q-7 1 -23.5 3.5t-25.5 5t-20.5 7 t-18 13t-8.5 20.5q-6 -2 -14 -2q-14 0 -29 10q-1 0 -14 -7.5t-28.5 -15t-20.5 -7.5h-9q-27 -23 -43 -23l-16 4q0 -4 -10.5 -10t-14.5 -6q-2 0 -5.5 1t-4.5 1l-39 27q-8 11 -8 24q0 5 1 8.5t2 4.5t1 2t-3 21t-3 26q7 20 33 40.5t41 20.5q10 0 14 -2q15 63 57 63q16 0 33 -10 l35 6q2 8 9.5 16.5t19.5 8.5q2 -1 8 -3t8 -3t6.5 -4t8 -8t8.5 -13q12 -4 16 -6q4 2 12 2q13 0 23 -8.5t15.5 -17.5t6.5 -9q27 0 33 -22q12 6 35 -2l10 6v8q0 8 7 18.5t22 10.5q5 0 10 -1l6 -1l27 22zM723 758z" />
<glyph unicode="&#xa0;" />
<glyph unicode="&#xa1;" d="M508 -223q2 20 2 51q0 57 -20.5 109.5t-20.5 62.5q0 19 18 37q-4 8 -4 14q0 9 6.5 35t6.5 39q0 19 -19 35t-20 28q41 98 41 148q0 6 -0.5 11.5t-1.5 9.5t-3 8.5t-3 7t-4.5 6t-4 5t-5 5t-5.5 4t-7 4.5l-5 4v13q23 51 28 51q56 158 86 158q47 0 156 -127q0 -17 -41 -31 q0 -84 41 -84v-31l-20 -31q0 -42 41 -135q-11 0 -21 -32v-11q4 -54 4 -78q0 -42 -5 -101t-5 -75q0 -40 18 -55q-2 -6 -9 -27.5t-9.5 -27t-9 -22.5t-10.5 -23.5t-12.5 -19.5t-16 -20.5t-19 -17t-24.5 -18.5l-53 29h-5q-15 0 -39.5 46t-25.5 46zM573 717q0 48 146 82l20 41 l-10 53q33 58 33 84q-21 0 -74 115h-12q0 -21 -31 -21l-72 21q-4 0 -6.5 -1t-4.5 -3t-6 -8.5t-10 -15t-18.5 -25t-27.5 -35.5h-54v-82q-4 0 -30 -33q18 -53 63 -53v-29h-20v-12q3 -21 20 -21q46 3 45 -14l-4 -2z" />
<glyph unicode="&#xad;" d="M885 647q60 -18 155 -18q34 -55 41 -78l21 39h16v-21q0 -28 10.5 -86t10.5 -88h-21v-96q-68 -20 -180 -20h-53q-14 -14 -19 -16.5t-22 -2.5h-17q-10 6 -14.5 8.5t-8 6.5t-4.5 5.5t-3.5 7.5t-5.5 11h-78q-28 -25 -99 -39q-10 6 -14.5 8.5t-8 6.5t-4.5 5.5t-3.5 7.5 t-5.5 11h-78v-20q-30 0 -44 3.5t-34 16.5h-21l-36 -20l-58 20q-4 -6 -7.5 -10t-8 -7.5t-6.5 -5.5t-8 -4.5t-8 -3.5t-10.5 -4t-12.5 -4l-17 39h-41l-36 39q0 62 16 117q-7 4 -11 6.5t-7.5 4.5t-5.5 5t-3.5 4.5t-3 6.5t-2 7t-2 10t-2.5 13l78 39q0 28 3.5 40.5t16.5 37.5 q34 -3 46 -9t32 -30h17q26 33 45 33t32 -33q50 12 58 12q24 0 41 -12h20q31 27 94 39l41 -60l17 60l61 -39l17 39l98 -21z" />
<glyph unicode="&#xb4;" d="M743 1169q-8 -14 -26 -28.5t-39 -14.5q-28 0 -47 31q-49 -80 -84 -80q-13 0 -34.5 12.5t-33.5 12.5h-4q-17 -58 -53 -58q-20 0 -44 16.5t-32 29.5q3 7 7.5 22t7 21t9.5 12t17 6q1 0 2 1t2 1l51 39q11 16 23.5 33.5t19 27t13 18t9.5 12t5 3.5t2 -4q23 9 25 19t4 12 q4 15 7.5 28.5t5 18.5t2.5 9.5t3 6.5t3.5 4t7.5 6.5t12 10.5q6 -10 18 2l39 47q51 37 88 37q26 0 41.5 -14t15.5 -27q-2 -2 -7.5 -4t-8 -3t-0.5 -3q12 -15 25 -15q15 0 34 19l7 -9q-5 -15 -5 -38q0 -31 13 -78q-9 -9 -27 -76l-12 -10l-27 -6l-6 -7q-15 -35 -27 -47z" />
<glyph unicode="&#xbf;" horiz-adv-x="1310" d="M782 860q-14 -11 -23.5 -16t-12.5 -5t-7.5 -2.5t-11.5 -11.5q0 -8 -0.5 -12t-1.5 -5.5l-4 -6t-6 -8.5l-35 12q-5 -12 -11.5 -17.5t-25 -11t-22.5 -6.5l-13 10q-16 -10 -35 -10q-7 4 -10 7t-4.5 4t-3.5 5t-4 7h-45q-22 42 -47 67l-13 33l35 22l-35 13q1 8 3.5 14t5 9 t8 9.5t8.5 10.5h23q5 16 8 18q2 1 12 4v45h59v13h107l35 -13l12 -45q15 -8 20.5 -12.5t12.5 -19.5l35 -13q-1 -12 -7 -36.5t-6 -39.5v-12zM770 -10q18 33 23.5 89.5t12.5 91t32 34.5q16 0 38 1t25 1q30 18 55 18q26 0 39 -16q19 -9 24 -40.5t11 -41.5q20 -35 35 -48t39 -24 q-3 -10 -9.5 -29t-12.5 -37t-11 -36q1 -4 1 -11t0.5 -31.5t2.5 -57.5l33 -31h-51q-27 0 -58.5 -28.5t-67.5 -59.5t-73 -35q-29 -35 -90 -35q-6 0 -13 1t-12 1q-13 0 -24 -2.5t-17.5 -5.5t-12 -8t-8 -8.5t-5.5 -7.5l-2 -5h-10q-27 0 -69.5 19.5t-49.5 19.5q-11 0 -31 -20 l-70 33q-35 14 -69 14h-21v20q0 15 -10 23t-28.5 17.5t-30.5 21.5q-6 2 -19 2h-16l-12 43v26l-5 13q-25 24 -30.5 61.5t-10 69t-30.5 45.5l-25 12l21 19q19 19 61 94.5t80 107.5q24 75 107 123l43 27q71 43 87.5 58.5t16.5 31.5q0 24 -16.5 51t-16.5 45q0 5 1 8l1 2 q0 44 64 72q19 -9 49 -10.5t52 -8.5t36 -30q39 -28 39 -82q0 -4 -3 -17.5t-8 -37t-8 -37.5q-10 -4 -12 -4q1 -2 4 -9.5t5.5 -16t2.5 -15.5v-2q-15 -57 -77 -105q-4 -3 -26 -30t-44 -39q-69 -25 -104 -25q-8 0 -23 1t-20 1q-27 0 -27 -22q0 -74 -6 -80q-8 -10 -19 -16.5 t-22 -10t-15 -6.5q2 -9 22 -35.5t36 -58.5h-2q16 -12 16 -27q0 -10 -5 -20.5t-11.5 -20t-7.5 -10.5q4 -2 23.5 -8t31.5 -14.5t12 -24.5v-2l-6 -41q18 -6 31 -6q8 0 22 1t21 1q17 0 55 19.5t55 19.5q37 0 58 -37q65 21 95 45.5t30 42.5q0 8 -10.5 18.5t-28 27.5t-27.5 34z M401 -92l-10 -6l2 -2z" />
<glyph unicode="&#xc0;" d="M528 1505q8 -15 25.5 -29t38.5 -14q28 0 47 31q49 -80 84 -80q13 0 34 12.5t34 12.5h6q17 -58 51 -58q21 0 44.5 16.5t31.5 28.5q-3 7 -7.5 22t-7 21.5t-9.5 12.5t-17 6q-1 0 -1 1t-1 1l-52 39q-67 94 -71 94q-2 0 -2 -4q-23 9 -25 19t-4 12q-4 16 -7 28.5t-4.5 18.5 t-2 10t-2.5 6t-3.5 4t-7.5 6.5t-12 10.5q-7 -11 -20 2l-37 47q-51 37 -90 37q-26 0 -42 -14t-16 -27q2 -2 8 -4t9.5 -3.5t1.5 -3.5q-11 -14 -27 -14t-35 19l-6 -9q4 -12 4 -39q0 -34 -12 -77q9 -9 27 -76l12 -10l27 -7l6 -6q16 -37 26 -47zM586 260q30 -21 39.5 -33 t19.5 -45l-18 -18h-41q-13 33 -13 47q0 17 13 49zM586 899l20 -18zM645 899v-57h19l20 57h-39zM645 821q-7 -4 -16.5 -9.5t-13 -7.5t-9 -6t-8 -8t-5.5 -10.5t-7 -15.5h78q-28 -28 -37 -59q-4 2 -9.5 6t-7.5 5l-6 3t-6 2.5t-5.5 1.5t-7.5 1.5t-8.5 0.5h-11.5 q-30 -65 -37 -156q76 0 136 -18q49 31 77 39v18l-57 21l21 76q-21 46 -21 116h-39zM741 395q-12 -5 -33 -12t-36 -13t-27 -14h-59q-26 17 -41 17q-14 0 -53 -17q3 -5 5.5 -8t5.5 -6.5t4.5 -5t5 -4t5 -3.5t6.5 -3t6.5 -2.5t8.5 -3t10 -3.5q-8 -5 -21.5 -14t-19 -13t-14 -11.5 t-13.5 -17t-10 -21.5l78 -19v-57l16 -21l99 -18l20 96h78l39 39q-23 77 -23 135h-37zM801 8q-27 12 -52 15.5t-36.5 3t-24 8t-24.5 31.5h-99l-16 -58q-57 0 -119 19q-25 -8 -29 -15l-8 -24q-37 3 -56.5 10t-41.5 29h-250l-41 39l41 116l57 58q24 -6 27.5 -9.5t9.5 -29.5h21 q10 29 18 37t39 22q24 67 57 96q0 27 -1.5 32t-14.5 26v39q11 27 15 52t4.5 37t8.5 24.5t29 23.5q3 35 8 45.5t29 30.5v116h41v35q0 26 6.5 40t30.5 24q-16 37 -16 96q14 23 17 26.5t20 12.5v57q5 8 8 13t5 8t5.5 5.5t5 3.5t8 4t9.5 5v156h36l37 39v18h21v21l41 36 q14 -2 37 -2q27 0 41 2l16 -114q11 0 16.5 -0.5t10.5 -2t7.5 -3t9 -6.5t13.5 -9v-30q0 -24 23 -66v-78h18v-78q8 -4 9.5 -5t5.5 -3t5 -4.5t3 -5t6 -9t8 -12.5v-96h21v-78h20v-116h21v-76q13 -4 22.5 -9.5t14.5 -10t20 -19.5q0 -7 -2 -17t-2 -14q0 -31 20 -67v-115h21v-78 l118 -20l17 -19v-39l61 -18v-39q13 0 20.5 -1t10 -2t12 -7.5t15.5 -10.5q-6 -19 -14 -33.5t-22 -26.5t-22.5 -18.5t-30 -19t-30.5 -18.5h-78v20h-37q-48 0 -78 19l-135 -19h-18z" />
<glyph unicode="&#xc1;" d="M817 1489q-8 -14 -26 -28.5t-39 -14.5q-28 0 -47 31q-49 -80 -84 -80q-13 0 -34 12t-34 12h-4q-17 -57 -53 -57q-21 0 -44.5 16.5t-31.5 28.5q3 7 7.5 22t7 21t9.5 12t17 6q1 0 2 1.5t2 1.5l51 38q12 16 24 33.5t18.5 27.5t13 18.5t9.5 12t5 3.5t2 -4q23 9 24.5 18.5 t3.5 11.5q4 15 7.5 28.5t5 18.5t2.5 9.5t3 6.5t3.5 4t7.5 6.5t12 10.5q7 -10 19 2l39 47q51 37 88 37q26 0 41.5 -14t15.5 -27q-2 -2 -7.5 -4t-8 -3t-0.5 -3q11 -14 24 -14q17 0 35 18l6 -8q-4 -12 -4 -39q0 -31 13 -78q-9 -9 -27 -76l-12 -10l-27 -6l-6 -6q-15 -35 -27 -47 zM586 260q30 -21 39.5 -33t19.5 -45l-18 -18h-41q-13 33 -13 47q0 17 13 49zM586 899l20 -18zM645 899v-57h19l20 57h-39zM645 821q-7 -4 -16.5 -9.5t-13 -7.5t-9 -6t-8 -8t-5.5 -10.5t-7 -15.5h78q-28 -28 -37 -59q-4 2 -9.5 6t-7.5 5l-6 3t-6 2.5t-5.5 1.5t-7.5 1.5 t-8.5 0.5h-11.5q-30 -65 -37 -156q76 0 136 -18q49 31 77 39v18l-57 21l21 76q-21 46 -21 116h-39zM741 395q-12 -5 -33 -12t-36 -13t-27 -14h-59q-26 17 -41 17q-14 0 -53 -17q3 -5 5.5 -8t5.5 -6.5t4.5 -5t5 -4t5 -3.5t6.5 -3t6.5 -2.5t8.5 -3t10 -3.5q-8 -5 -21.5 -14 t-19 -13t-14 -11.5t-13.5 -17t-10 -21.5l78 -19v-57l16 -21l99 -18l20 96h78l39 39q-23 77 -23 135h-37zM801 8q-27 12 -52 15.5t-36.5 3t-24 8t-24.5 31.5h-99l-16 -58q-57 0 -119 19q-25 -8 -29 -15l-8 -24q-37 3 -56.5 10t-41.5 29h-250l-41 39l41 116l57 58 q24 -6 27.5 -9.5t9.5 -29.5h21q10 29 18 37t39 22q24 67 57 96q0 27 -1.5 32t-14.5 26v39q11 27 15 52t4.5 37t8.5 24.5t29 23.5q3 35 8 45.5t29 30.5v116h41v35q0 26 6.5 40t30.5 24q-16 37 -16 96q14 23 17 26.5t20 12.5v57q5 8 8 13t5 8t5.5 5.5t5 3.5t8 4t9.5 5v156h36 l37 39v18h21v21l41 36q14 -2 37 -2q27 0 41 2l16 -114q11 0 16.5 -0.5t10.5 -2t7.5 -3t9 -6.5t13.5 -9v-30q0 -24 23 -66v-78h18v-78q8 -4 9.5 -5t5.5 -3t5 -4.5t3 -5t6 -9t8 -12.5v-96h21v-78h20v-116h21v-76q13 -4 22.5 -9.5t14.5 -10t20 -19.5q0 -7 -2 -17t-2 -14 q0 -31 20 -67v-115h21v-78l118 -20l17 -19v-39l61 -18v-39q13 0 20.5 -1t10 -2t12 -7.5t15.5 -10.5q-6 -19 -14 -33.5t-22 -26.5t-22.5 -18.5t-30 -19t-30.5 -18.5h-78v20h-37q-48 0 -78 19l-135 -19h-18z" />
<glyph unicode="&#xc2;" d="M1075 1368q-8 -12 -31.5 -28.5t-44.5 -16.5q-34 0 -51 57h-4q-12 0 -35 -12t-35 -12q-32 0 -81 80q-9 -10 -15 -6t-16.5 14t-16.5 10q-11 0 -21 10t-16 21t-12.5 26t-7.5 17l-2 -2q-1 1 -2 1.5t-2 1.5t-2 3q-2 -5 -9 -10l-7 -4l-2 2q-1 -1 -5 -8.5t-6.5 -12t-8 -11.5 t-10 -11t-12 -7.5t-14.5 -3.5t-28 -21.5t-29 -21.5q-6 0 -8 4q-48 -79 -84 -79q-13 0 -34 12t-34 12h-4q-17 -57 -53 -57q-21 0 -44.5 16.5t-31.5 28.5q3 7 7.5 22t7 21t9.5 12t17 6q1 0 2 1t2 1l51 39q11 16 23.5 33.5t19 27t13 18t9.5 12t5 3.5t2 -4q25 9 25 19v2 q0 6 4 10q4 15 7.5 28.5t5 18.5t2.5 9.5t3 6.5t3.5 4t7.5 6.5t12 10.5q4 -4 6 -4q1 0 12.5 -2t20 -3t12.5 1l6 57q51 37 88 37q12 0 18 -2q13 10 35 10q39 0 90 -37l37 -47q6 -6 12 -6q1 0 -5 -7.5t-12 -14.5l-7 -7q14 -12 20 -12h4q4 0 17 -49q3 -2 11 -1.5t16 1.5t8 0v-2 q0 -10 24 -18q0 4 2 4t5.5 -3.5t10 -13l13 -19t19.5 -27.5t24 -34l51 -38q1 0 1 1t1 1q10 0 17 -6.5t9.5 -13.5t7 -21.5t7.5 -22.5zM586 260q30 -21 39.5 -33t19.5 -45l-18 -18h-41q-13 33 -13 47q0 17 13 49zM586 899l20 -18zM645 899v-57h19l20 57h-39zM645 821 q-7 -4 -16.5 -9.5t-13 -7.5t-9 -6t-8 -8t-5.5 -10.5t-7 -15.5h78q-28 -28 -37 -59q-4 2 -9.5 6t-7.5 5l-6 3t-6 2.5t-5.5 1.5t-7.5 1.5t-8.5 0.5h-11.5q-30 -65 -37 -156q76 0 136 -18q49 31 77 39v18l-57 21l21 76q-21 46 -21 116h-39zM741 395q-12 -5 -33 -12t-36 -13 t-27 -14h-59q-26 17 -41 17q-14 0 -53 -17q3 -5 5.5 -8t5.5 -6.5t4.5 -5t5 -4t5 -3.5t6.5 -3t6.5 -2.5t8.5 -3t10 -3.5q-8 -5 -21.5 -14t-19 -13t-14 -11.5t-13.5 -17t-10 -21.5l78 -19v-57l16 -21l99 -18l20 96h78l39 39q-23 77 -23 135h-37zM801 8q-27 12 -52 15.5 t-36.5 3t-24 8t-24.5 31.5h-99l-16 -58q-57 0 -119 19q-25 -8 -29 -15l-8 -24q-37 3 -56.5 10t-41.5 29h-250l-41 39l41 116l57 58q24 -6 27.5 -9.5t9.5 -29.5h21q10 29 18 37t39 22q24 67 57 96q0 27 -1.5 32t-14.5 26v39q11 27 15 52t4.5 37t8.5 24.5t29 23.5q3 35 8 45.5 t29 30.5v116h41v35q0 26 6.5 40t30.5 24q-16 37 -16 96q14 23 17 26.5t20 12.5v57q5 8 8 13t5 8t5.5 5.5t5 3.5t8 4t9.5 5v156h36l37 39v18h21v21l41 36q14 -2 37 -2q27 0 41 2l16 -114q11 0 16.5 -0.5t10.5 -2t7.5 -3t9 -6.5t13.5 -9v-30q0 -24 23 -66v-78h18v-78 q8 -4 9.5 -5t5.5 -3t5 -4.5t3 -5t6 -9t8 -12.5v-96h21v-78h20v-116h21v-76q13 -4 22.5 -9.5t14.5 -10t20 -19.5q0 -7 -2 -17t-2 -14q0 -31 20 -67v-115h21v-78l118 -20l17 -19v-39l61 -18v-39q13 0 20.5 -1t10 -2t12 -7.5t15.5 -10.5q-6 -19 -14 -33.5t-22 -26.5 t-22.5 -18.5t-30 -19t-30.5 -18.5h-78v20h-37q-48 0 -78 19l-135 -19h-18z" />
<glyph unicode="&#xc3;" d="M956 1716q3 6 13 21h14q17 0 33 -8q51 -2 51 -39q0 -22 -12 -50q2 -4 2 -14q0 -34 -43 -37q-26 -19 -39 -30h-2q-1 -1 -7.5 -9.5t-17 -16.5t-24.5 -11q-5 3 -19 10q0 -7 -2 -23q-46 -12 -78 -12h-24v12l-6 -2q-7 1 -23.5 3.5t-25.5 5t-21 7t-18.5 13t-8.5 20.5 q-6 -2 -14 -2q-12 0 -29 11q-1 0 -14 -7.5t-28.5 -15.5t-20.5 -8h-8q-27 -23 -43 -23l-9 3t-8 2q0 -4 -10 -10.5t-14 -6.5q-2 0 -6 1t-5 1l-38 27q-9 12 -9 24q0 5 1 8.5t2 4.5t1 2t-3 21t-3 26q7 20 33 40.5t41 20.5q10 0 14 -2q15 64 58 64q14 0 32 -11l35 7q6 24 29 24 q2 -1 8 -3t8 -3t6.5 -4t8 -8t8.5 -13q12 -4 16 -6q4 2 13 2q13 0 23 -8.5t15.5 -17t6.5 -8.5q25 0 32 -23q12 6 35 -2l10 6v8q0 8 7 18.5t22 10.5q5 0 11 -1l6 -1l26 22zM586 260q30 -21 39.5 -33t19.5 -45l-18 -18h-41q-13 33 -13 47q0 17 13 49zM586 899l20 -18zM645 899 v-57h19l20 57h-39zM645 821q-7 -4 -16.5 -9.5t-13 -7.5t-9 -6t-8 -8t-5.5 -10.5t-7 -15.5h78q-28 -28 -37 -59q-4 2 -9.5 6t-7.5 5l-6 3t-6 2.5t-5.5 1.5t-7.5 1.5t-8.5 0.5h-11.5q-30 -65 -37 -156q76 0 136 -18q49 31 77 39v18l-57 21l21 76q-21 46 -21 116h-39zM741 395 q-12 -5 -33 -12t-36 -13t-27 -14h-59q-26 17 -41 17q-14 0 -53 -17q3 -5 5.5 -8t5.5 -6.5t4.5 -5t5 -4t5 -3.5t6.5 -3t6.5 -2.5t8.5 -3t10 -3.5q-8 -5 -21.5 -14t-19 -13t-14 -11.5t-13.5 -17t-10 -21.5l78 -19v-57l16 -21l99 -18l20 96h78l39 39q-23 77 -23 135h-37zM801 8 q-27 12 -52 15.5t-36.5 3t-24 8t-24.5 31.5h-99l-16 -58q-57 0 -119 19q-25 -8 -29 -15l-8 -24q-37 3 -56.5 10t-41.5 29h-250l-41 39l41 116l57 58q24 -6 27.5 -9.5t9.5 -29.5h21q10 29 18 37t39 22q24 67 57 96q0 27 -1.5 32t-14.5 26v39q11 27 15 52t4.5 37t8.5 24.5 t29 23.5q3 35 8 45.5t29 30.5v116h41v35q0 26 6.5 40t30.5 24q-16 37 -16 96q14 23 17 26.5t20 12.5v57q5 8 8 13t5 8t5.5 5.5t5 3.5t8 4t9.5 5v156h36l37 39v18h21v21l41 36q14 -2 37 -2q27 0 41 2l16 -114q11 0 16.5 -0.5t10.5 -2t7.5 -3t9 -6.5t13.5 -9v-30q0 -24 23 -66 v-78h18v-78q8 -4 9.5 -5t5.5 -3t5 -4.5t3 -5t6 -9t8 -12.5v-96h21v-78h20v-116h21v-76q13 -4 22.5 -9.5t14.5 -10t20 -19.5q0 -7 -2 -17t-2 -14q0 -31 20 -67v-115h21v-78l118 -20l17 -19v-39l61 -18v-39q13 0 20.5 -1t10 -2t12 -7.5t15.5 -10.5q-6 -19 -14 -33.5t-22 -26.5 t-22.5 -18.5t-30 -19t-30.5 -18.5h-78v20h-37q-48 0 -78 19l-135 -19h-18z" />
<glyph unicode="&#xc4;" d="M786 1937q-45 -61 -59 -61q-16 8 -27 8q-2 -14 -14 -27t-23 -19.5t-14 -6.5l58 -35q-13 -23 -13 -39l21 -33v-14l-21 -27v-12q33 0 39 -29q0 -24 -33 -53l33 -39v-47h-33q-14 -3 -14 -12q18 -14 47 -14v-33q18 -62 39 -80q15 12 29 12l33 -6q13 95 32 133q-16 8 -18 8v19 l31 47v6l-13 21v18q0 18 21 53q-8 36 -8 49q11 33 20 33q0 139 -59 139q-3 16 -54 41zM520 1929h-6q-12 0 -100 -98l6 -49q-12 0 -21 -19q3 -16 35 -53v-47l-14 -21q27 0 33 -86q-13 0 -13 -20q13 -23 13 -39q-4 -33 -4 -53q3 0 38 -74l33 6l21 -12h18q0 9 29 59l-8 39 q4 0 20 8l-8 33q0 5 8 21l-8 12q0 26 -1 65t-1 52q0 55 26 71q0 13 -26 13l6 35q-12 0 -21 18l35 29q-5 4 -6.5 17t-6 35.5t-17.5 45.5h-7l-32 -8q0 11 -21 20zM586 260q30 -21 39.5 -33t19.5 -45l-18 -18h-41q-13 33 -13 47q0 17 13 49zM586 899l20 -18zM645 899v-57h19 l20 57h-39zM645 821q-7 -4 -16.5 -9.5t-13 -7.5t-9 -6t-8 -8t-5.5 -10.5t-7 -15.5h78q-28 -28 -37 -59q-4 2 -9.5 6t-7.5 5l-6 3t-6 2.5t-5.5 1.5t-7.5 1.5t-8.5 0.5h-11.5q-30 -65 -37 -156q76 0 136 -18q49 31 77 39v18l-57 21l21 76q-21 46 -21 116h-39zM741 395 q-12 -5 -33 -12t-36 -13t-27 -14h-59q-26 17 -41 17q-14 0 -53 -17q3 -5 5.5 -8t5.5 -6.5t4.5 -5t5 -4t5 -3.5t6.5 -3t6.5 -2.5t8.5 -3t10 -3.5q-8 -5 -21.5 -14t-19 -13t-14 -11.5t-13.5 -17t-10 -21.5l78 -19v-57l16 -21l99 -18l20 96h78l39 39q-23 77 -23 135h-37zM801 8 q-27 12 -52 15.5t-36.5 3t-24 8t-24.5 31.5h-99l-16 -58q-57 0 -119 19q-25 -8 -29 -15l-8 -24q-37 3 -56.5 10t-41.5 29h-250l-41 39l41 116l57 58q24 -6 27.5 -9.5t9.5 -29.5h21q10 29 18 37t39 22q24 67 57 96q0 27 -1.5 32t-14.5 26v39q11 27 15 52t4.5 37t8.5 24.5 t29 23.5q3 35 8 45.5t29 30.5v116h41v35q0 26 6.5 40t30.5 24q-16 37 -16 96q14 23 17 26.5t20 12.5v57q5 8 8 13t5 8t5.5 5.5t5 3.5t8 4t9.5 5v156h36l37 39v18h21v21l41 36q14 -2 37 -2q27 0 41 2l16 -114q11 0 16.5 -0.5t10.5 -2t7.5 -3t9 -6.5t13.5 -9v-30q0 -24 23 -66 v-78h18v-78q8 -4 9.5 -5t5.5 -3t5 -4.5t3 -5t6 -9t8 -12.5v-96h21v-78h20v-116h21v-76q13 -4 22.5 -9.5t14.5 -10t20 -19.5q0 -7 -2 -17t-2 -14q0 -31 20 -67v-115h21v-78l118 -20l17 -19v-39l61 -18v-39q13 0 20.5 -1t10 -2t12 -7.5t15.5 -10.5q-6 -19 -14 -33.5t-22 -26.5 t-22.5 -18.5t-30 -19t-30.5 -18.5h-78v20h-37q-48 0 -78 19l-135 -19h-18z" />
<glyph unicode="&#xc5;" d="M616 1731q19 -3 25 -0.5t10 2.5h11q1 1 2.5 1t5 2t8.5 5l20 -10h27l31 -19v-12q6 -2 14.5 -10t9.5 -9v-12h2q5 -2 15 -12v-27l8 -4v-16h4v-27q-4 -5 -4 -12v-10h-6v-5l-2 -2v-22q-5 -5 -9 -8l-4 -2h-2l-2 -2v-17q-15 -12 -24 -14v-10q-1 -1 -2.5 -3t-2.5 -3t-2 -2.5 t-2 -2l-3 -1.5t-4 -1.5t-4.5 -0.5t-5.5 -0.5t-7.5 -0.5h-9.5l-15 -14h-32q-12 8 -13 8h-22v6h-21q-8 13 -8 15h-6l-10 10v4h-8l-21 20v13q-8 2 -11.5 16t-6.5 17v30h4v10h-4v33q2 2 3 5t2 5t3 3v10q4 8 7 15t4 9.5t3.5 6t6 6t10.5 6.5v8l10 10h4v4h12l1 2l2 2t3.5 3t5.5 4z M688 1571v14h10l15 14q-14 3 -17.5 6.5t-15.5 24.5h31q7 -2 10 -8v8l-27 27q-1 0 -6 -10h-14q-7 9 -12 20h-11q-3 -3 -6.5 -3.5t-13.5 -10.5v-23q-10 -2 -13 -2l-6 -18q3 -3 4.5 -6.5t1 -6t-1.5 -5.5v-3v-8q5 -10 5 -20q4 -6 6 -12q1 -3 2 -4t2.5 -1.5t5.5 -1.5h33v-4h14v23 h6q-2 4 -2 10zM666 1591q0 3 3.5 8t8.5 5l12 -13q0 -2 -3.5 -6t-8.5 -4zM586 260q30 -21 39.5 -33t19.5 -45l-18 -18h-41q-13 33 -13 47q0 17 13 49zM586 899l20 -18zM645 899v-57h19l20 57h-39zM645 821q-7 -4 -16.5 -9.5t-13 -7.5t-9 -6t-8 -8t-5.5 -10.5t-7 -15.5h78 q-28 -28 -37 -59q-4 2 -9.5 6t-7.5 5l-6 3t-6 2.5t-5.5 1.5t-7.5 1.5t-8.5 0.5h-11.5q-30 -65 -37 -156q76 0 136 -18q49 31 77 39v18l-57 21l21 76q-21 46 -21 116h-39zM741 395q-12 -5 -33 -12t-36 -13t-27 -14h-59q-26 17 -41 17q-14 0 -53 -17q3 -5 5.5 -8t5.5 -6.5 t4.5 -5t5 -4t5 -3.5t6.5 -3t6.5 -2.5t8.5 -3t10 -3.5q-8 -5 -21.5 -14t-19 -13t-14 -11.5t-13.5 -17t-10 -21.5l78 -19v-57l16 -21l99 -18l20 96h78l39 39q-23 77 -23 135h-37zM801 8q-27 12 -52 15.5t-36.5 3t-24 8t-24.5 31.5h-99l-16 -58q-57 0 -119 19q-25 -8 -29 -15 l-8 -24q-37 3 -56.5 10t-41.5 29h-250l-41 39l41 116l57 58q24 -6 27.5 -9.5t9.5 -29.5h21q10 29 18 37t39 22q24 67 57 96q0 27 -1.5 32t-14.5 26v39q11 27 15 52t4.5 37t8.5 24.5t29 23.5q3 35 8 45.5t29 30.5v116h41v35q0 26 6.5 40t30.5 24q-16 37 -16 96q14 23 17 26.5 t20 12.5v57q5 8 8 13t5 8t5.5 5.5t5 3.5t8 4t9.5 5v156h36l37 39v18h21v21l41 36q14 -2 37 -2q27 0 41 2l16 -114q11 0 16.5 -0.5t10.5 -2t7.5 -3t9 -6.5t13.5 -9v-30q0 -24 23 -66v-78h18v-78q8 -4 9.5 -5t5.5 -3t5 -4.5t3 -5t6 -9t8 -12.5v-96h21v-78h20v-116h21v-76 q13 -4 22.5 -9.5t14.5 -10t20 -19.5q0 -7 -2 -17t-2 -14q0 -31 20 -67v-115h21v-78l118 -20l17 -19v-39l61 -18v-39q13 0 20.5 -1t10 -2t12 -7.5t15.5 -10.5q-6 -19 -14 -33.5t-22 -26.5t-22.5 -18.5t-30 -19t-30.5 -18.5h-78v20h-37q-48 0 -78 19l-135 -19h-18z" />
<glyph unicode="&#xc6;" d="M645 1214q-7 0 -27 -10h-18l-6 2q1 -3 2.5 -8t4.5 -12.5t5 -14.5v-69h12v-84q11 -9 13.5 -13.5t11.5 -27.5v-72l25 135v15l-25 20q5 67 23 133q-18 6 -21 6zM932 51q-9 -40 -27 -4q-16 -4 -31 -4q-5 0 -10 -4t-35 -33h-65v21h-14q-27 0 -48 12q-8 -4 -16 -4q-6 0 -18 4 l-60 -12h-16l-6 3q-7 3 -11 5q-10 -2 -30 -2h-43l-6 51h-50l-10 -57h-10q-45 0 -78 16q-3 -2 -4 -2.5t-3 -2t-2 -2.5t-1 -4t-1.5 -6t-2 -9.5t-2.5 -12.5q-1 0 -10.5 1.5t-11.5 2l-10 2.5t-12 4.5t-10.5 6.5t-12 10t-11.5 14h-162l-33 45l29 123l41 63q5 -2 12.5 -4.5 t10.5 -4t6.5 -4t5 -6.5t2.5 -11q3 11 5 17t7.5 11.5t8 7.5t12.5 9q13 56 37 92v12q0 9 -11 39v43q8 29 9.5 60.5t6 47.5t21.5 31q1 33 5 44.5t18 29.5v121h26v25q0 50 25 67q-10 33 -10 92v2q9 24 11.5 28t12.5 13v56q3 7 5 12t4 9t3.5 6.5t4 4.5t3.5 3t4.5 3t4.5 3v161h29 l20 31v27h12v14l33 45q24 -4 31 -4q14 0 22 2l2 14q29 -13 40.5 -24t15.5 -35q9 27 26 27q13 0 23 -14.5t12 -26.5q5 37 31 43q8 2 41 4v-27l6 33l51 -31q-2 8 -2 35v10q56 -3 86 -24q-2 -25 -2 -35q2 9 4 16t6 15.5t6 12t8.5 14t8.5 14.5q20 -46 20 -64l60 37l12 -53 q28 25 66 28q4 10 9 18t8.5 12.5t12 15t15.5 18.5q19 -24 24 -36t8 -44q16 4 19 4q23 0 40 -16.5t44 -57.5l-15 -77q11 -25 11 -46q0 -14 -11 -51l27 -39q-2 -10 -2 -24q0 -22 7 -58t9 -57q-23 -34 -41 -43v-63h-28l-15 61l-63 18q-6 35 -6 60t4 43l-37 59v27 q15 7 17.5 10.5t5.5 18.5l-62 38l12 54h-186l-14 -21h-35q-23 21 -25 21q-3 -48 -12 -70v-55l25 -78v-23q-11 -25 -11 -38v-11l39 -20l-12 -88q56 12 78 14l-13 74l33 18q-11 14 -14 27l-43 -35v100l43 -30l74 37l14 61h31q9 -45 24 -66v-88h15v-53q6 5 13 0t7 -16v-8 q-6 -9 -9 -10t-11 5v-36h-15v-58h-12v-43q10 -23 10 -47q0 -25 -8 -49l49 -37v-31q-28 -10 -39 -26q-5 -7 -10 -17q4 2 8.5 2.5t12.5 0.5t14 1q2 -6 5.5 -14.5t4.5 -11t2.5 -7.5t1.5 -9v-11v-26q-6 1 -18 2.5t-14.5 2.5t-8.5 4t-8 7.5t-4 13.5q-1 -7 -4 -13.5t-4.5 -9 t-8.5 -12.5t-10 -14h-24l-39 41l10 -39l-24 19q-18 13 -24 22.5t-17 40.5l-11 31l27 -19q2 -2 7.5 -5.5t7 -4.5t5.5 -4t5 -5t3.5 -5t4 -6.5t2.5 -7.5v8q0 8 -1 14.5t-2 11t-4 12.5t-4.5 11t-7.5 14t-8 15l10 71q-17 7 -21 13.5t-9 29.5q-21 -14 -33 -14q-22 0 -33 33 q-9 -29 -43 -72q21 -12 37 -45q-29 -29 -53 -41v-6l67 -41q-15 -35 -24 -46t-29 -20q14 -41 14 -71q0 -23 -2 -37q19 -24 19 -39q0 -8 -2 -12l22 -7l13 -22l28 -4q3 35 11 46.5t34 24.5l21 9l-15 -58q6 4 17 31h53q2 -5 5.5 -11t4.5 -9v14l17 27l59 -17q12 61 12 105l11 18 v33q-11 16 -11 37v28l52 37l10 82h43l53 -121q-1 -35 -6 -48.5t-21 -33.5l15 -94q-4 -23 -8 -30t-15 -13l35 -69q-25 -63 -27 -101l-57 -108q-20 20 -33 20q-5 0 -13 -5.5t-21.5 -15t-28.5 -16.5q-3 9 -7.5 18.5t-6 13t-2.5 10t-1 14.5v2q-24 -9 -63 -35h-12q-15 0 -21 2.5 t-14 15.5zM930 1061l-3 2q-3 2 -5 4t-4 5.5t-1.5 8.5t3.5 11q0 6 12 6q2 -3 4.5 -4t4 -1.5t2.5 -2.5t1 -5q0 -12 -4 -18q0 -6 -10 -6zM506 829h-10q-3 -2 -8 -6t-7 -5.5t-5 -4.5t-4.5 -5t-3.5 -6t-3 -9h43q0 6 -1 18t-1 18zM492 240q19 7 28.5 18t22.5 37h26q3 -6 5.5 -10 t3.5 -5.5t2 -3.5l4 5q-15 81 -15 122h-12q-6 -4 -20.5 -11t-23 -12.5t-17.5 -14.5h-50q-14 14 -20.5 15t-24.5 -9q2 -5 4 -7.5t6 -6t6.5 -5t11 -6t15.5 -8.5q-6 -6 -17 -16.5t-15 -14.5t-10 -11.5t-9 -14.5t-6 -17l47 -16q2 15 12 51q2 -2 10.5 -10t11.5 -11.5l9 -10.5 t9.5 -13.5t5.5 -13.5zM502 907v-8l2 8h-2zM520 723q-6 15 -10 49q-15 -23 -25 -70q-6 6 -12 12.5t-8.5 9l-5 5t-4.5 3l-4 1t-5 0.5q-19 -69 -22 -135q35 0 78 -16q23 23 43 32v7l-39 20zM436 184l6 -8q-2 5 -6 19v-11zM498 182l-4 2l-11 -12h-39v-2l50 -14z" />
<glyph unicode="&#xc7;" d="M893 -305q-8 -14 -26.5 -28.5t-39.5 -14.5q-28 0 -47 31q-49 -80 -84 -80q-12 0 -33 12t-34 12h-4q-17 -57 -54 -57q-21 0 -44 15.5t-31 27.5q3 8 7.5 22.5t7 21.5t9.5 13t17 6h4l51 39q12 16 24 33.5t18.5 27.5t13 18.5t9.5 12t5 3.5t2 -5q23 9 24.5 19t3.5 12q2 4 2 14 q0 29 -31 60t-61.5 54.5t-30.5 35.5q0 8 4 10q6 -9 19 4l39 45q51 37 90 37q26 0 40.5 -14t14.5 -27q-2 -2 -7.5 -3.5t-8 -2t-0.5 -2.5l24 -14q21 0 37 16l6 -6q-6 -18 -6 -41q0 -12 83 -82t87 -84q-8 -8 -26 -76l-13 -10l-24 -8l-6 -4q-14 -32 -29 -47zM877 1317l20 -21z M121 715q11 27 15.5 52t5 37t9 24.5t29.5 23.5l-20 76q31 31 59 39l-20 39l59 59q-3 5 -6.5 10.5t-5.5 7.5t-3.5 5.5t-2 5.5t-1.5 6.5t-1 9v12.5q31 31 59 39q0 11 0.5 15t0 8.5t2 8.5t3 5.5t5 9t7.5 11.5q58 37 117 59q3 33 9.5 48t29.5 48h174v19h96l21 -37h76v-21h77 q12 12 60 39h96l39 -39v-57l-39 -21v-16t1.5 -11t2.5 -7.5l6 -9l9 -13.5v-39q-19 -46 -19 -96h-18v-98q13 -4 22.5 -9.5t14.5 -10t20 -19.5v-76h-96q-14 -14 -21 -17.5t-24 -3.5h-15l-10.5 6l-7 4t-5.5 4l-3.5 3.5t-3 4t-2.5 4t-3.5 6t-3.5 7.5q-29 0 -40.5 3t-36.5 16 q4 15 16 53.5t17.5 65.5t5.5 57h-19v76h-78q-30 53 -39 98q-27 -6 -55 -6q-16 0 -48 3t-50 3q-1 -28 -4.5 -40t-16.5 -38h-78l-18 -20v-58l-7.5 -5t-6.5 -4t-4.5 -3t-4.5 -2.5t-4 -1.5t-4.5 -1t-4.5 -0.5t-6.5 -0.5h-7h-9.5l20 -59q-48 -30 -78 -39v-19l19 -39 q-8 -26 -13 -30q-4 -3 -24 -9q6 -24 6 -41q0 -21 -27 -55v-20q23 -31 24 -115.5t15 -116.5q0 -25 -2 -30.5t-16 -28.5q13 -4 22.5 -9.5t14.5 -10t20 -19.5v-37l39 -20l19 -97q44 -3 68 -14.5t48 -44.5q39 39 70 39q22 0 47 -19h18q9 9 18 12.5t14.5 4.5t27.5 2q8 23 12 27.5 t27 11.5v39l12.5 12.5t9.5 8.5t10.5 8t10 5t14.5 5q3 34 8.5 45.5t30.5 31.5v78l18 19h195l18 -39l-18 -39q17 -9 20.5 -12.5t18.5 -26.5v-18q-3 -4 -11.5 -14.5t-11 -13.5t-8.5 -9.5t-12.5 -11t-15.5 -9.5q-3 -36 -8 -47.5t-29 -30.5v-77q-25 -20 -37.5 -26.5t-40.5 -12.5 v-39h-60l-18 -78q-64 -19 -184 -19h-49q-13 -13 -21 -16.5t-25 -3.5h-12l-10.5 6l-7 4t-5.5 4l-3.5 3.5t-3 4t-2.5 4t-3.5 6t-3.5 7.5h-116q-25 20 -37.5 26.5t-40.5 12.5v39l-19 20q-78 27 -78 105v10h-16.5t-10.5 2t-7 3t-9.5 6l-13.5 9q-20 70 -20 187v26q-22 13 -33 24 t-25 34v116l-20 19v39z" />
<glyph unicode="&#xc8;" d="M551 1485q25 -43 63 -43q29 0 48 31q49 -80 83 -80q13 0 34 12t34 12h6q17 -57 51 -57q21 0 44.5 16.5t31.5 28.5q-3 7 -7.5 22t-7 21t-9.5 12t-17 6q-1 0 -1 1t-1 1l-51 39q-68 95 -72 95q-2 0 -2 -5q-23 9 -24.5 19t-3.5 12q-4 16 -7 28.5t-4.5 18.5t-2 10t-2.5 6 t-3.5 4t-7.5 6.5t-12 10.5q-8 -11 -21 2l-37 47q-51 37 -90 37q-26 0 -41.5 -14t-15.5 -27q2 -2 8 -4l9 -3t1 -3q-11 -14 -26 -14q-17 0 -35 18l-6 -8q4 -12 4 -39q0 -34 -12 -78q8 -8 26 -76l12 -10l27 -6l6 -6q15 -35 27 -47zM666 217l18 -18zM549 274l16 -18zM1130 313 l17 -18zM991 586l21 -21zM586 565l20 -18zM666 489q29 -14 37 -22t18 -37q-25 13 -32.5 22t-22.5 37zM565 334l21 -21zM643 721l23 -19zM975 1399q24 -19 29 -30.5t8 -47.5q21 8 45 8q20 0 40 -9.5t31.5 -19.5t38.5 -36l-20 -78q16 -24 16 -43q0 -16 -16 -53l41 -39 q-2 -8 -2 -23q0 -17 3.5 -35.5t9.5 -41t9 -36.5q-28 -28 -61 -38v-60h-17l-20 60l-98 18q-8 33 -8 51t8 45l-58 60v18h1l1 1q23 7 27 15q2 3 5 14l3 9l-94 39l21 59h-312l-20 -20h-37q-5 3 -10.5 6.5t-7.5 5.5t-5.5 3.5t-5.5 2t-6.5 1.5t-9 1h-12.5q-2 -32 -5 -45.5 t-16 -32.5v-59l37 -78v-18q-13 -21 -14.5 -26t-1.5 -32l57 -20l-21 -96q95 18 156 18l-18 78l55 20q-23 19 -27 26t-10 32l115 39l20 57h21q6 -19 12.5 -29t24.5 -28v-97h20v-98h-20v-57h-21v-58q16 -24 16 -45q0 -16 -16 -53l78 -39v-18q-37 -10 -53.5 -24.5t-40.5 -53.5 q25 12 37 15.5t41 4.5q13 -21 14.5 -26.5t1.5 -32.5q-36 3 -41 8q-6 7 -16 31h-21q-1 -6 -2 -9.5t-2 -7.5t-2 -6.5t-2 -4.5t-3 -4.5t-3 -4t-4 -4t-4.5 -4t-6.5 -6t-8 -6.5h-20l-58 39v16q0 24 -7 39t-29 41l16 78q-33 10 -38.5 16t-16.5 41q-41 -25 -60 -25q-27 0 -41 45 h-16q-7 -21 -19.5 -39.5t-23.5 -28.5t-35 -30q2 -1 6 -2q29 -11 40 -23q4 -5 11 -14q-51 -32 -75 -39v-18l96 -39q-20 -29 -32 -37.5t-46 -19.5q25 -55 25 -78t-4 -39q28 -22 28 -37q0 -1 -12 -41l135 -18q4 39 14.5 51t47.5 24l-21 -57q29 6 35.5 10.5t21.5 28.5h58 q14 -23 24.5 -33.5t32.5 -23.5q-13 22 -14.5 26.5t-1.5 30.5l16 18l98 -18q18 60 21 117l16 18v39q-9 8 -12.5 15t-3.5 10.5v19.5v14l78 37l16 78h41l78 -115q-3 -33 -9.5 -44.5t-31.5 -32.5l20 -99l-3 -9q-6 -19 -13 -23q-4 -2 -19 -6l-1 -1h-1l58 -75q-14 -22 -20.5 -32.5 t-12.5 -28.5t-8 -38l-78 -96q-25 14 -45 14q-16 0 -45 -13.5t-45 -18.5q-13 22 -14.5 26.5t-1.5 30.5q-58 -11 -119 -39h-13q-18 0 -25.5 3t-19.5 16h-20q-5 -10 -7 -19q-1 -2 -2 0q-2 9 -7 19q-27 -9 -58 -9q-18 0 -58 4.5t-61 4.5l-13.5 -9l-9 -6t-7.5 -2.5t-11 -1.5h-16 q-24 8 -29 12t-12 27q-37 -37 -65 -37q-27 0 -50 17q-30 -15 -41 -15q-9 0 -36 15q-30 -19 -86 -19h-50q-8 31 -8 62q0 17 3.5 48.5t4.5 45.5q-26 6 -30.5 10.5t-10.5 28.5q39 8 58.5 18.5t40.5 38.5h20q20 -24 32 -30t46 -9v57h37v78q7 23 12 27t29 12q-26 26 -33.5 43.5 t-7.5 54.5h41q0 81 -21 136v12q0 17 3.5 24t17.5 21l-21 78q13 32 13 49q0 15 -13 47v21l37 135v18l-37 21q12 76 37 135q-42 10 -49 10q-12 0 -45 -10h-20l-136 39v96q8 4 12 6.5t8 6.5l5.5 5.5t3.5 7t2.5 7.5t2.5 11.5t3 14.5q37 -12 47.5 -24.5t14.5 -52.5h16 q3 25 12.5 38t20.5 13q13 0 25.5 -13.5t19.5 -37.5h20q2 17 6 27.5t7 16.5t15.5 8.5t19 3t30.5 1.5q0 -11 0.5 -16.5t2 -10.5t3 -7.5t6.5 -9t9 -13.5l16 57l98 -39q-3 5 -7.5 11.5t-6 9t-3.5 6.5t-2 8t-0.5 9.5t-0.5 14.5q56 -3 98 -20q-4 -28 -4 -37t4 -41h21q3 37 10 56.5 t29 41.5l5 -7.5t4 -6.5t3 -4.5t2.5 -4.5t1.5 -4t1 -4.5t0.5 -4.5t0.5 -6.5v-7v-9.5l94 39l21 -57q31 22 54 29t65 9q4 8 8.5 14t7.5 9.5t8.5 8.5t8.5 7.5t11 8.5t13 10zM741 1167l21 -20zM840 1167l16 -20zM643 1147l23 -19zM729 1057q6 6 6 -4l-2 -9q-6 -6 -6 4zM762 1069 l16 -18zM627 991l39 -18v-19l-39 -20v57zM926 864q4 0 4 -8v-6l-4 -2q-4 0 -4 10q0 6 4 6z" />
<glyph unicode="&#xc9;" d="M889 1513q-8 -14 -26.5 -28.5t-39.5 -14.5q-28 0 -47 31q-49 -80 -84 -80q-12 0 -33 12.5t-34 12.5h-4q-17 -57 -54 -57q-21 0 -44 16t-31 29q3 8 7 22t6.5 20.5t9.5 12.5t17 6q1 0 2.5 1t2.5 1l51 39q12 16 24 33.5t18.5 27t12.5 18t9 12t5 3.5t2 -4q23 9 25 19t4 12 q4 15 7.5 28.5t5 18.5t2.5 9.5t3 6.5t3.5 4t7.5 6.5t12 10.5q7 -10 19 2l38 47q51 37 88 37q26 0 42 -14t16 -27q-2 -2 -7.5 -4t-8.5 -3t-1 -3q12 -15 25 -15q16 0 35 19l6 -8q-4 -12 -4 -39q0 -35 12 -78q-8 -8 -26 -76l-13 -10l-26 -6l-6 -7q-15 -35 -27 -47zM666 217 l18 -18zM549 274l16 -18zM1130 313l17 -18zM991 586l21 -21zM586 565l20 -18zM666 489q29 -14 37 -22t18 -37q-25 13 -32.5 22t-22.5 37zM565 334l21 -21zM643 721l23 -19zM975 1399q24 -19 29 -30.5t8 -47.5q21 8 45 8q20 0 40 -9.5t31.5 -19.5t38.5 -36l-20 -78 q16 -24 16 -43q0 -16 -16 -53l41 -39q-2 -8 -2 -23q0 -17 3.5 -35.5t9.5 -41t9 -36.5q-28 -28 -61 -38v-60h-17l-20 60l-98 18q-8 33 -8 51t8 45l-58 60v18h1l1 1q23 7 27 15q2 3 5 14l3 9l-94 39l21 59h-312l-20 -20h-37q-5 3 -10.5 6.5t-7.5 5.5t-5.5 3.5t-5.5 2t-6.5 1.5 t-9 1h-12.5q-2 -32 -5 -45.5t-16 -32.5v-59l37 -78v-18q-13 -21 -14.5 -26t-1.5 -32l57 -20l-21 -96q95 18 156 18l-18 78l55 20q-23 19 -27 26t-10 32l115 39l20 57h21q6 -19 12.5 -29t24.5 -28v-97h20v-98h-20v-57h-21v-58q16 -24 16 -45q0 -16 -16 -53l78 -39v-18 q-37 -10 -53.5 -24.5t-40.5 -53.5q25 12 37 15.5t41 4.5q13 -21 14.5 -26.5t1.5 -32.5q-36 3 -41 8q-6 7 -16 31h-21q-1 -6 -2 -9.5t-2 -7.5t-2 -6.5t-2 -4.5t-3 -4.5t-3 -4t-4 -4t-4.5 -4t-6.5 -6t-8 -6.5h-20l-58 39v16q0 24 -7 39t-29 41l16 78q-33 10 -38.5 16t-16.5 41 q-41 -25 -60 -25q-27 0 -41 45h-16q-7 -21 -19.5 -39.5t-23.5 -28.5t-35 -30q2 -1 6 -2q29 -11 40 -23q4 -5 11 -14q-51 -32 -75 -39v-18l96 -39q-20 -29 -32 -37.5t-46 -19.5q25 -55 25 -78t-4 -39q28 -22 28 -37q0 -1 -12 -41l135 -18q4 39 14.5 51t47.5 24l-21 -57 q29 6 35.5 10.5t21.5 28.5h58q14 -23 24.5 -33.5t32.5 -23.5q-13 22 -14.5 26.5t-1.5 30.5l16 18l98 -18q18 60 21 117l16 18v39q-9 8 -12.5 15t-3.5 10.5v19.5v14l78 37l16 78h41l78 -115q-3 -33 -9.5 -44.5t-31.5 -32.5l20 -99l-3 -9q-6 -19 -13 -23q-4 -2 -19 -6l-1 -1 h-1l58 -75q-14 -22 -20.5 -32.5t-12.5 -28.5t-8 -38l-78 -96q-25 14 -45 14q-16 0 -45 -13.5t-45 -18.5q-13 22 -14.5 26.5t-1.5 30.5q-58 -11 -119 -39h-13q-18 0 -25.5 3t-19.5 16h-20q-5 -10 -7 -19q-1 -2 -2 0q-2 9 -7 19q-27 -9 -58 -9q-18 0 -58 4.5t-61 4.5l-13.5 -9 l-9 -6t-7.5 -2.5t-11 -1.5h-16q-24 8 -29 12t-12 27q-37 -37 -65 -37q-27 0 -50 17q-30 -15 -41 -15q-9 0 -36 15q-30 -19 -86 -19h-50q-8 31 -8 62q0 17 3.5 48.5t4.5 45.5q-26 6 -30.5 10.5t-10.5 28.5q39 8 58.5 18.5t40.5 38.5h20q20 -24 32 -30t46 -9v57h37v78 q7 23 12 27t29 12q-26 26 -33.5 43.5t-7.5 54.5h41q0 81 -21 136v12q0 17 3.5 24t17.5 21l-21 78q13 32 13 49q0 15 -13 47v21l37 135v18l-37 21q12 76 37 135q-42 10 -49 10q-12 0 -45 -10h-20l-136 39v96q8 4 12 6.5t8 6.5l5.5 5.5t3.5 7t2.5 7.5t2.5 11.5t3 14.5 q37 -12 47.5 -24.5t14.5 -52.5h16q3 25 12.5 38t20.5 13q13 0 25.5 -13.5t19.5 -37.5h20q2 17 6 27.5t7 16.5t15.5 8.5t19 3t30.5 1.5q0 -11 0.5 -16.5t2 -10.5t3 -7.5t6.5 -9t9 -13.5l16 57l98 -39q-3 5 -7.5 11.5t-6 9t-3.5 6.5t-2 8t-0.5 9.5t-0.5 14.5q56 -3 98 -20 q-4 -28 -4 -37t4 -41h21q3 37 10 56.5t29 41.5l5 -7.5t4 -6.5t3 -4.5t2.5 -4.5t1.5 -4t1 -4.5t0.5 -4.5t0.5 -6.5v-7v-9.5l94 39l21 -57q31 22 54 29t65 9q4 8 8.5 14t7.5 9.5t8.5 8.5t8.5 7.5t11 8.5t13 10zM741 1167l21 -20zM840 1167l16 -20zM643 1147l23 -19zM729 1057 q6 6 6 -4l-2 -9q-6 -6 -6 4zM762 1069l16 -18zM627 991l39 -18v-19l-39 -20v57zM926 864q4 0 4 -8v-6l-4 -2q-4 0 -4 10q0 6 4 6z" />
<glyph unicode="&#xca;" d="M1094 1442q-8 -12 -31.5 -28.5t-44.5 -16.5q-34 0 -51 57h-4q-13 0 -35 -12t-35 -12q-34 0 -82 79q-9 -10 -15 -5.5t-16 14.5t-16 10q-11 0 -21 10t-16 21t-12.5 26t-7.5 17l-2 -3l-7 7q-2 -4 -5 -6.5t-6.5 -5t-4.5 -3.5l-2 2q-1 -1 -4.5 -8.5t-6.5 -12t-8 -11.5t-10 -11 t-12 -7t-14 -3t-28.5 -21.5t-29.5 -21.5q-6 0 -8 4q-49 -80 -84 -80q-13 0 -34 12.5t-33 12.5h-5q-17 -57 -53 -57q-21 0 -44.5 16.5t-31.5 28.5q3 7 7.5 22t7 21t9.5 12t17 6q1 0 2 1t2 1l52 39q12 16 24 33.5t18.5 27t12.5 18t9 12t5 3.5t2 -4q25 9 25 19v2q0 6 4 10 q4 15 7.5 28.5t5 18.5t2.5 9.5t3 6.5t3.5 4t7.5 6.5t12 10.5q4 -4 6 -4q1 0 12.5 -2t20 -3t12.5 1l6 57q51 37 88 37q13 0 19 -2q13 10 35 10q39 0 90 -37l37 -47q6 -6 12 -6q1 0 -5.5 -7.5t-12.5 -14.5l-7 -7q14 -12 21 -12h4q3 0 16 -49q3 -2 11 -1.5t16 1.5t8 0v-2 q0 -10 25 -19q0 4 2 4t5 -3.5t9.5 -12.5t13.5 -18.5t19.5 -27.5t23.5 -34l52 -39q1 0 1 1t1 1q10 0 17 -6t9.5 -13t7 -21.5t7.5 -22.5zM666 217l18 -18zM549 274l16 -18zM1130 313l17 -18zM991 586l21 -21zM586 565l20 -18zM666 489q29 -14 37 -22t18 -37q-25 13 -32.5 22 t-22.5 37zM565 334l21 -21zM643 721l23 -19zM975 1399q24 -19 29 -30.5t8 -47.5q21 8 45 8q20 0 40 -9.5t31.5 -19.5t38.5 -36l-20 -78q16 -24 16 -43q0 -16 -16 -53l41 -39q-2 -8 -2 -23q0 -17 3.5 -35.5t9.5 -41t9 -36.5q-28 -28 -61 -38v-60h-17l-20 60l-98 18 q-8 33 -8 51t8 45l-58 60v18h1l1 1q23 7 27 15q2 3 5 14l3 9l-94 39l21 59h-312l-20 -20h-37q-5 3 -10.5 6.5t-7.5 5.5t-5.5 3.5t-5.5 2t-6.5 1.5t-9 1h-12.5q-2 -32 -5 -45.5t-16 -32.5v-59l37 -78v-18q-13 -21 -14.5 -26t-1.5 -32l57 -20l-21 -96q95 18 156 18l-18 78 l55 20q-23 19 -27 26t-10 32l115 39l20 57h21q6 -19 12.5 -29t24.5 -28v-97h20v-98h-20v-57h-21v-58q16 -24 16 -45q0 -16 -16 -53l78 -39v-18q-37 -10 -53.5 -24.5t-40.5 -53.5q25 12 37 15.5t41 4.5q13 -21 14.5 -26.5t1.5 -32.5q-36 3 -41 8q-6 7 -16 31h-21 q-1 -6 -2 -9.5t-2 -7.5t-2 -6.5t-2 -4.5t-3 -4.5t-3 -4t-4 -4t-4.5 -4t-6.5 -6t-8 -6.5h-20l-58 39v16q0 24 -7 39t-29 41l16 78q-33 10 -38.5 16t-16.5 41q-41 -25 -60 -25q-27 0 -41 45h-16q-7 -21 -19.5 -39.5t-23.5 -28.5t-35 -30q2 -1 6 -2q29 -11 40 -23q4 -5 11 -14 q-51 -32 -75 -39v-18l96 -39q-20 -29 -32 -37.5t-46 -19.5q25 -55 25 -78t-4 -39q28 -22 28 -37q0 -1 -12 -41l135 -18q4 39 14.5 51t47.5 24l-21 -57q29 6 35.5 10.5t21.5 28.5h58q14 -23 24.5 -33.5t32.5 -23.5q-13 22 -14.5 26.5t-1.5 30.5l16 18l98 -18q18 60 21 117 l16 18v39q-9 8 -12.5 15t-3.5 10.5v19.5v14l78 37l16 78h41l78 -115q-3 -33 -9.5 -44.5t-31.5 -32.5l20 -99l-3 -9q-6 -19 -13 -23q-4 -2 -19 -6l-1 -1h-1l58 -75q-14 -22 -20.5 -32.5t-12.5 -28.5t-8 -38l-78 -96q-25 14 -45 14q-16 0 -45 -13.5t-45 -18.5 q-13 22 -14.5 26.5t-1.5 30.5q-58 -11 -119 -39h-13q-18 0 -25.5 3t-19.5 16h-20q-5 -10 -7 -19q-1 -2 -2 0q-2 9 -7 19q-27 -9 -58 -9q-18 0 -58 4.5t-61 4.5l-13.5 -9l-9 -6t-7.5 -2.5t-11 -1.5h-16q-24 8 -29 12t-12 27q-37 -37 -65 -37q-27 0 -50 17q-30 -15 -41 -15 q-9 0 -36 15q-30 -19 -86 -19h-50q-8 31 -8 62q0 17 3.5 48.5t4.5 45.5q-26 6 -30.5 10.5t-10.5 28.5q39 8 58.5 18.5t40.5 38.5h20q20 -24 32 -30t46 -9v57h37v78q7 23 12 27t29 12q-26 26 -33.5 43.5t-7.5 54.5h41q0 81 -21 136v12q0 17 3.5 24t17.5 21l-21 78 q13 32 13 49q0 15 -13 47v21l37 135v18l-37 21q12 76 37 135q-42 10 -49 10q-12 0 -45 -10h-20l-136 39v96q8 4 12 6.5t8 6.5l5.5 5.5t3.5 7t2.5 7.5t2.5 11.5t3 14.5q37 -12 47.5 -24.5t14.5 -52.5h16q3 25 12.5 38t20.5 13q13 0 25.5 -13.5t19.5 -37.5h20q2 17 6 27.5 t7 16.5t15.5 8.5t19 3t30.5 1.5q0 -11 0.5 -16.5t2 -10.5t3 -7.5t6.5 -9t9 -13.5l16 57l98 -39q-3 5 -7.5 11.5t-6 9t-3.5 6.5t-2 8t-0.5 9.5t-0.5 14.5q56 -3 98 -20q-4 -28 -4 -37t4 -41h21q3 37 10 56.5t29 41.5l5 -7.5t4 -6.5t3 -4.5t2.5 -4.5t1.5 -4t1 -4.5t0.5 -4.5 t0.5 -6.5v-7v-9.5l94 39l21 -57q31 22 54 29t65 9q4 8 8.5 14t7.5 9.5t8.5 8.5t8.5 7.5t11 8.5t13 10zM741 1167l21 -20zM840 1167l16 -20zM643 1147l23 -19zM729 1057q6 6 6 -4l-2 -9q-6 -6 -6 4zM762 1069l16 -18zM627 991l39 -18v-19l-39 -20v57zM926 864q4 0 4 -8v-6 l-4 -2q-4 0 -4 10q0 6 4 6z" />
<glyph unicode="&#xcb;" d="M842 1995q-46 -62 -60 -62q-18 9 -26 9q-2 -14 -14 -27.5t-23 -20t-14 -6.5l57 -35q-12 -21 -12 -38l20 -33v-15l-20 -26v-12q32 0 38 -29q0 -25 -32 -53l32 -39v-47h-32q-15 -4 -15 -13q18 -14 47 -14v-33q18 -62 39 -80q16 13 29 13l33 -7q12 94 33 134q-16 8 -19 8v18 l31 47v6l-12 21v18q0 21 20 54q-8 36 -8 49q11 33 20 33q0 139 -59 139q-3 17 -53 41zM575 1987h-6q-11 0 -100 -99l6 -49q-11 0 -20 -18q3 -18 34 -54v-47l-14 -20q27 0 33 -86q-12 0 -12 -21q12 -21 12 -39q-4 -33 -4 -53q4 0 39 -74l32 7l21 -13h18q0 10 29 60l-8 39 q4 0 20 8l-8 33q0 4 8 20l-8 12q0 25 -1 64t-1 53q0 56 27 72q0 12 -27 12l6 35q-11 0 -20 18l35 29q-5 4 -6.5 17t-6.5 35.5t-18 45.5h-6l-33 -8q0 12 -21 21zM666 217l18 -18zM549 274l16 -18zM1130 313l17 -18zM991 586l21 -21zM586 565l20 -18zM666 489q29 -14 37 -22 t18 -37q-25 13 -32.5 22t-22.5 37zM565 334l21 -21zM643 721l23 -19zM975 1399q24 -19 29 -30.5t8 -47.5q21 8 45 8q20 0 40 -9.5t31.5 -19.5t38.5 -36l-20 -78q16 -24 16 -43q0 -16 -16 -53l41 -39q-2 -8 -2 -23q0 -17 3.5 -35.5t9.5 -41t9 -36.5q-28 -28 -61 -38v-60h-17 l-20 60l-98 18q-8 33 -8 51t8 45l-58 60v18h1l1 1q23 7 27 15q2 3 5 14l3 9l-94 39l21 59h-312l-20 -20h-37q-5 3 -10.5 6.5t-7.5 5.5t-5.5 3.5t-5.5 2t-6.5 1.5t-9 1h-12.5q-2 -32 -5 -45.5t-16 -32.5v-59l37 -78v-18q-13 -21 -14.5 -26t-1.5 -32l57 -20l-21 -96 q95 18 156 18l-18 78l55 20q-23 19 -27 26t-10 32l115 39l20 57h21q6 -19 12.5 -29t24.5 -28v-97h20v-98h-20v-57h-21v-58q16 -24 16 -45q0 -16 -16 -53l78 -39v-18q-37 -10 -53.5 -24.5t-40.5 -53.5q25 12 37 15.5t41 4.5q13 -21 14.5 -26.5t1.5 -32.5q-36 3 -41 8 q-6 7 -16 31h-21q-1 -6 -2 -9.5t-2 -7.5t-2 -6.5t-2 -4.5t-3 -4.5t-3 -4t-4 -4t-4.5 -4t-6.5 -6t-8 -6.5h-20l-58 39v16q0 24 -7 39t-29 41l16 78q-33 10 -38.5 16t-16.5 41q-41 -25 -60 -25q-27 0 -41 45h-16q-7 -21 -19.5 -39.5t-23.5 -28.5t-35 -30q2 -1 6 -2 q29 -11 40 -23q4 -5 11 -14q-51 -32 -75 -39v-18l96 -39q-20 -29 -32 -37.5t-46 -19.5q25 -55 25 -78t-4 -39q28 -22 28 -37q0 -1 -12 -41l135 -18q4 39 14.5 51t47.5 24l-21 -57q29 6 35.5 10.5t21.5 28.5h58q14 -23 24.5 -33.5t32.5 -23.5q-13 22 -14.5 26.5t-1.5 30.5 l16 18l98 -18q18 60 21 117l16 18v39q-9 8 -12.5 15t-3.5 10.5v19.5v14l78 37l16 78h41l78 -115q-3 -33 -9.5 -44.5t-31.5 -32.5l20 -99l-3 -9q-6 -19 -13 -23q-4 -2 -19 -6l-1 -1h-1l58 -75q-14 -22 -20.5 -32.5t-12.5 -28.5t-8 -38l-78 -96q-25 14 -45 14q-16 0 -45 -13.5 t-45 -18.5q-13 22 -14.5 26.5t-1.5 30.5q-58 -11 -119 -39h-13q-18 0 -25.5 3t-19.5 16h-20q-5 -10 -7 -19q-1 -2 -2 0q-2 9 -7 19q-27 -9 -58 -9q-18 0 -58 4.5t-61 4.5l-13.5 -9l-9 -6t-7.5 -2.5t-11 -1.5h-16q-24 8 -29 12t-12 27q-37 -37 -65 -37q-27 0 -50 17 q-30 -15 -41 -15q-9 0 -36 15q-30 -19 -86 -19h-50q-8 31 -8 62q0 17 3.5 48.5t4.5 45.5q-26 6 -30.5 10.5t-10.5 28.5q39 8 58.5 18.5t40.5 38.5h20q20 -24 32 -30t46 -9v57h37v78q7 23 12 27t29 12q-26 26 -33.5 43.5t-7.5 54.5h41q0 81 -21 136v12q0 17 3.5 24t17.5 21 l-21 78q13 32 13 49q0 15 -13 47v21l37 135v18l-37 21q12 76 37 135q-42 10 -49 10q-12 0 -45 -10h-20l-136 39v96q8 4 12 6.5t8 6.5l5.5 5.5t3.5 7t2.5 7.5t2.5 11.5t3 14.5q37 -12 47.5 -24.5t14.5 -52.5h16q3 25 12.5 38t20.5 13q13 0 25.5 -13.5t19.5 -37.5h20 q2 17 6 27.5t7 16.5t15.5 8.5t19 3t30.5 1.5q0 -11 0.5 -16.5t2 -10.5t3 -7.5t6.5 -9t9 -13.5l16 57l98 -39q-3 5 -7.5 11.5t-6 9t-3.5 6.5t-2 8t-0.5 9.5t-0.5 14.5q56 -3 98 -20q-4 -28 -4 -37t4 -41h21q3 37 10 56.5t29 41.5l5 -7.5t4 -6.5t3 -4.5t2.5 -4.5t1.5 -4 t1 -4.5t0.5 -4.5t0.5 -6.5v-7v-9.5l94 39l21 -57q31 22 54 29t65 9q4 8 8.5 14t7.5 9.5t8.5 8.5t8.5 7.5t11 8.5t13 10zM741 1167l21 -20zM840 1167l16 -20zM643 1147l23 -19zM729 1057q6 6 6 -4l-2 -9q-6 -6 -6 4zM762 1069l16 -18zM627 991l39 -18v-19l-39 -20v57z M926 864q4 0 4 -8v-6l-4 -2q-4 0 -4 10q0 6 4 6z" />
<glyph unicode="&#xcc;" d="M498 1567q25 -43 63 -43q29 0 47 30q48 -79 84 -79q12 0 34 12t34 12h6q17 -57 51 -57q21 0 44.5 16.5t31.5 28.5q-3 7 -7.5 22t-7 21t-9.5 12t-17 6q-1 0 -1 1t-1 1l-51 39q-67 94 -72 94q-2 0 -2 -4q-23 9 -25 19t-4 12q-4 16 -7 28.5t-4.5 18.5t-2 10t-2.5 6t-3.5 4 t-7.5 6.5t-12 10.5q-7 -11 -20 2l-37 47q-51 37 -90 37q-26 0 -41.5 -14t-15.5 -27q2 -2 8 -4l9 -3t1 -3q-11 -14 -27 -14t-34 18l-7 -8q5 -15 5 -39q0 -31 -13 -78q9 -9 27 -76l12 -10l27 -6l6 -6q15 -35 27 -47zM1053 1311l16 -21zM201 1446h135q41 -23 57 -39q27 8 41 8 q13 0 37 -8q2 4 4.5 8.5t2.5 6t2.5 4.5t3.5 3.5t5.5 4t7.5 5.5t11 7l98 -39q13 24 20 28.5t38 10.5l20 -39l94 18l62 -36q6 19 12.5 29t24.5 28h41l16 -39q48 15 119 18q3 -7 8.5 -16t7.5 -13t4 -10t3 -10.5t1 -9.5t-8 -37q38 -23 53 -40.5t25 -55.5q-97 0 -156 -21l-73 21 q-20 -13 -34.5 -17t-43.5 -4q-5 3 -12 7.5t-9.5 6t-7 3.5t-8.5 2.5t-10 1t-15 0.5q-5 -38 -14 -51.5t-43 -26.5q18 -60 18 -156h21v-114h-21v-60q23 -33 23 -77q0 -46 -23 -76v-21q25 -40 25 -119q0 -25 -2 -70.5t-2 -62.5h18v-116h119l57 -19l21 39h37l98 -59 q-4 -13 -10.5 -23.5t-10 -14l-20.5 -20.5q30 -9 78 -39v-77l-17 -19h-98v-20h-155l-21 20h-37q-31 -20 -82 -20h-37l-16 -19h-41l-13.5 9l-9 6t-7.5 2.5t-11 1.5h-16q-33 -23 -86 -23q-56 0 -86 23h-21q-19 -13 -33 -16t-45 -3l-20 19h-37q-19 -13 -33 -16t-45 -3l-57 58v20 q24 35 30.5 67.5t6.5 86.5v20l155 39q26 -2 35 -4.5t23 -15.5h20q13 13 22 15.5t36 4.5l57 -20v84q0 75 -21 129v20q23 41 41 57q-8 27 -8 52q0 11 8 65q-20 28 -20 78v18h20v99h-20v135h20v78l21 57q-35 14 -46.5 27.5t-15.5 50.5l-151 -39h-21q-5 3 -10.5 6.5t-7 5t-6 3 t-5.5 2t-6.5 1t-9 0.5h-12.5q-19 -13 -32.5 -15.5t-45.5 -2.5l-41 39q0 11 0.5 16.5t2 10.5t3 7.5t6.5 9t9 13.5h-21v117q33 10 62 39zM1130 1389q16 -13 17 -17v-22h-37z" />
<glyph unicode="&#xcd;" d="M868 1608q-8 -14 -26 -28.5t-39 -14.5q-29 0 -47 30q-48 -79 -84 -79q-12 0 -34 12t-34 12h-4q-17 -57 -53 -57q-21 0 -44.5 16.5t-31.5 28.5q3 7 7.5 22t7 21t9.5 12t17 6q1 0 2 1t2 1l51 39q11 16 23.5 33.5t19 27t13 18t9.5 12t5 3.5t2 -4q23 9 25 19t4 12 q4 15 7.5 28.5t5 18.5t2.5 9.5t3 6.5t3.5 4t7.5 6.5t12 10.5q6 -10 18 2l39 47q51 37 88 37q26 0 41.5 -14t15.5 -27q-2 -2 -7.5 -4t-8 -3t-0.5 -3q12 -15 25 -15q15 0 34 19l7 -8q-5 -15 -5 -39q0 -31 13 -78q-9 -9 -27 -76l-12 -10l-27 -6l-6 -6q-15 -35 -27 -47z M1053 1311l16 -21zM201 1446h135q41 -23 57 -39q27 8 41 8q13 0 37 -8q2 4 4.5 8.5t2.5 6t2.5 4.5t3.5 3.5t5.5 4t7.5 5.5t11 7l98 -39q13 24 20 28.5t38 10.5l20 -39l94 18l62 -36q6 19 12.5 29t24.5 28h41l16 -39q48 15 119 18q3 -7 8.5 -16t7.5 -13t4 -10t3 -10.5t1 -9.5 t-8 -37q38 -23 53 -40.5t25 -55.5q-97 0 -156 -21l-73 21q-20 -13 -34.5 -17t-43.5 -4q-5 3 -12 7.5t-9.5 6t-7 3.5t-8.5 2.5t-10 1t-15 0.5q-5 -38 -14 -51.5t-43 -26.5q18 -60 18 -156h21v-114h-21v-60q23 -33 23 -77q0 -46 -23 -76v-21q25 -40 25 -119q0 -25 -2 -70.5 t-2 -62.5h18v-116h119l57 -19l21 39h37l98 -59q-4 -13 -10.5 -23.5t-10 -14l-20.5 -20.5q30 -9 78 -39v-77l-17 -19h-98v-20h-155l-21 20h-37q-31 -20 -82 -20h-37l-16 -19h-41l-13.5 9l-9 6t-7.5 2.5t-11 1.5h-16q-33 -23 -86 -23q-56 0 -86 23h-21q-19 -13 -33 -16t-45 -3 l-20 19h-37q-19 -13 -33 -16t-45 -3l-57 58v20q24 35 30.5 67.5t6.5 86.5v20l155 39q26 -2 35 -4.5t23 -15.5h20q13 13 22 15.5t36 4.5l57 -20v84q0 75 -21 129v20q23 41 41 57q-8 27 -8 52q0 11 8 65q-20 28 -20 78v18h20v99h-20v135h20v78l21 57q-35 14 -46.5 27.5 t-15.5 50.5l-151 -39h-21q-5 3 -10.5 6.5t-7 5t-6 3t-5.5 2t-6.5 1t-9 0.5h-12.5q-19 -13 -32.5 -15.5t-45.5 -2.5l-41 39q0 11 0.5 16.5t2 10.5t3 7.5t6.5 9t9 13.5h-21v117q33 10 62 39zM1130 1389q16 -13 17 -17v-22h-37z" />
<glyph unicode="&#xce;" d="M1073 1532q-8 -12 -31.5 -28.5t-44.5 -16.5q-34 0 -51 57h-4q-12 0 -35 -12t-35 -12q-33 0 -81 79q-9 -10 -15 -5.5t-16.5 14.5t-16.5 10q-11 0 -21 10t-16 21t-12.5 26t-7.5 17l-2 -2q-1 1 -2 1.5t-2 1.5t-2 3q-2 -4 -5 -6.5t-6.5 -5t-4.5 -3.5l-3 2q-1 -1 -4.5 -8.5 t-6.5 -12t-8 -11.5t-10 -11t-12 -7t-14 -3t-28 -21.5t-29 -21.5q-6 0 -8 4q-49 -80 -84 -80q-12 0 -33.5 12.5t-34.5 12.5h-4q-17 -57 -53 -57q-21 0 -44.5 16.5t-31.5 28.5q3 7 7.5 22t7 21t9.5 12t17 6q1 0 2 1t2 1l51 39q11 16 23.5 33.5t19 27t13 18t9.5 12t5 3.5t2 -4 q24 8 24 19v2q0 5 5 10q4 15 7.5 28.5t5 18.5t2.5 9.5t3 6.5t3.5 4t7.5 6.5t12 10.5q4 -4 6 -4q1 0 12.5 -2t20 -3t12.5 1l6 57q51 37 88 37q12 0 18 -2q13 10 35 10q39 0 90 -37l37 -47q6 -6 12 -6q1 0 -5 -7.5t-12 -14.5l-7 -7q14 -12 20 -12h4q4 0 17 -49q3 -2 11 -1.5 t16 1.5t8 0v-2q0 -11 24 -19q0 5 2 5t5.5 -3.5t10 -13l13 -19t19.5 -27.5t24 -34l51 -39q1 0 1 1t1 1q10 0 17 -6t9.5 -13t7 -21.5t7.5 -22.5zM1053 1311l16 -21zM201 1446h135q41 -23 57 -39q27 8 41 8q13 0 37 -8q2 4 4.5 8.5t2.5 6t2.5 4.5t3.5 3.5t5.5 4t7.5 5.5t11 7 l98 -39q13 24 20 28.5t38 10.5l20 -39l94 18l62 -36q6 19 12.5 29t24.5 28h41l16 -39q48 15 119 18q3 -7 8.5 -16t7.5 -13t4 -10t3 -10.5t1 -9.5t-8 -37q38 -23 53 -40.5t25 -55.5q-97 0 -156 -21l-73 21q-20 -13 -34.5 -17t-43.5 -4q-5 3 -12 7.5t-9.5 6t-7 3.5t-8.5 2.5 t-10 1t-15 0.5q-5 -38 -14 -51.5t-43 -26.5q18 -60 18 -156h21v-114h-21v-60q23 -33 23 -77q0 -46 -23 -76v-21q25 -40 25 -119q0 -25 -2 -70.5t-2 -62.5h18v-116h119l57 -19l21 39h37l98 -59q-4 -13 -10.5 -23.5t-10 -14l-20.5 -20.5q30 -9 78 -39v-77l-17 -19h-98v-20 h-155l-21 20h-37q-31 -20 -82 -20h-37l-16 -19h-41l-13.5 9l-9 6t-7.5 2.5t-11 1.5h-16q-33 -23 -86 -23q-56 0 -86 23h-21q-19 -13 -33 -16t-45 -3l-20 19h-37q-19 -13 -33 -16t-45 -3l-57 58v20q24 35 30.5 67.5t6.5 86.5v20l155 39q26 -2 35 -4.5t23 -15.5h20 q13 13 22 15.5t36 4.5l57 -20v84q0 75 -21 129v20q23 41 41 57q-8 27 -8 52q0 11 8 65q-20 28 -20 78v18h20v99h-20v135h20v78l21 57q-35 14 -46.5 27.5t-15.5 50.5l-151 -39h-21q-5 3 -10.5 6.5t-7 5t-6 3t-5.5 2t-6.5 1t-9 0.5h-12.5q-19 -13 -32.5 -15.5t-45.5 -2.5 l-41 39q0 11 0.5 16.5t2 10.5t3 7.5t6.5 9t9 13.5h-21v117q33 10 62 39zM1130 1389q16 -13 17 -17v-22h-37z" />
<glyph unicode="&#xcf;" d="M793 2044q-46 -62 -60 -62q-18 9 -26 9q-2 -14 -14.5 -27.5t-23.5 -20t-14 -6.5l58 -34q-13 -23 -13 -39l21 -33v-14l-21 -27v-12q33 0 39 -29q0 -25 -32 -53l32 -39v-47h-32q-15 -4 -15 -13q17 -14 47 -14v-33q18 -62 39 -80q16 13 29 13l33 -6q13 95 32 133 q-16 8 -18 8v18l31 47v7l-13 20v19q0 18 21 53q-8 36 -8 49q11 33 20 33q0 139 -59 139q-3 17 -53 41zM526 2036h-6q-12 0 -100 -99l6 -49q-11 0 -20 -18q3 -17 34 -53v-48l-14 -20q27 0 33 -86q-13 0 -13 -21q13 -23 13 -38q-4 -33 -4 -54q5 0 39 -73l32 6l21 -13h18 q0 10 29 60l-8 39q4 0 20 8l-8 33q0 4 8 20l-8 12q0 26 -1 65t-1 52q0 56 27 72q0 12 -27 12l6 35q-11 0 -20 18l34 29q-5 4 -6.5 17t-6 35.5t-17.5 45.5h-6l-33 -8q0 12 -21 21zM1053 1311l16 -21zM201 1446h135q41 -23 57 -39q27 8 41 8q13 0 37 -8q2 4 4.5 8.5t2.5 6 t2.5 4.5t3.5 3.5t5.5 4t7.5 5.5t11 7l98 -39q13 24 20 28.5t38 10.5l20 -39l94 18l62 -36q6 19 12.5 29t24.5 28h41l16 -39q48 15 119 18q3 -7 8.5 -16t7.5 -13t4 -10t3 -10.5t1 -9.5t-8 -37q38 -23 53 -40.5t25 -55.5q-97 0 -156 -21l-73 21q-20 -13 -34.5 -17t-43.5 -4 q-5 3 -12 7.5t-9.5 6t-7 3.5t-8.5 2.5t-10 1t-15 0.5q-5 -38 -14 -51.5t-43 -26.5q18 -60 18 -156h21v-114h-21v-60q23 -33 23 -77q0 -46 -23 -76v-21q25 -40 25 -119q0 -25 -2 -70.5t-2 -62.5h18v-116h119l57 -19l21 39h37l98 -59q-4 -13 -10.5 -23.5t-10 -14l-20.5 -20.5 q30 -9 78 -39v-77l-17 -19h-98v-20h-155l-21 20h-37q-31 -20 -82 -20h-37l-16 -19h-41l-13.5 9l-9 6t-7.5 2.5t-11 1.5h-16q-33 -23 -86 -23q-56 0 -86 23h-21q-19 -13 -33 -16t-45 -3l-20 19h-37q-19 -13 -33 -16t-45 -3l-57 58v20q24 35 30.5 67.5t6.5 86.5v20l155 39 q26 -2 35 -4.5t23 -15.5h20q13 13 22 15.5t36 4.5l57 -20v84q0 75 -21 129v20q23 41 41 57q-8 27 -8 52q0 11 8 65q-20 28 -20 78v18h20v99h-20v135h20v78l21 57q-35 14 -46.5 27.5t-15.5 50.5l-151 -39h-21q-5 3 -10.5 6.5t-7 5t-6 3t-5.5 2t-6.5 1t-9 0.5h-12.5 q-19 -13 -32.5 -15.5t-45.5 -2.5l-41 39q0 11 0.5 16.5t2 10.5t3 7.5t6.5 9t9 13.5h-21v117q33 10 62 39zM1130 1389q16 -13 17 -17v-22h-37z" />
<glyph unicode="&#xd0;" d="M696 1434q81 -13 122 -21.5t99.5 -30.5t102.5 -55q133 -97 168 -254q38 -69 53 -264q8 0 8 -10q-20 -39 -20 -117q0 -38 12 -96q-20 -39 -20 -82v-23q0 -10 8 -10q-77 -265 -180 -328q-46 -74 -283 -137h-33l-33 23h-41q-8 0 -8 -13l-24 13h-54l-28 -23h-13l-81 23h-13 q-24 -24 -147 -33q-58 33 -86 33q-29 -9 -29 -23q-127 0 -127 74v22q9 70 21.5 111t23.5 41q10 0 33 -27.5t33 -27.5q1 0 2 -20q0 -5 2 -3l20 -12h21q73 0 94 117q12 0 12 10v12q0 12 -20 82q17 0 33 33l-33 205q5 6 -19 10q-17 2 -45 2q-28 16 -45 16q-22 0 -39 -14 q-65 0 -65 8q-27 0 -27 21v63q26 15 29 3q1 -5 -3 -5q-5 -1 -5 18q-8 7 -10.5 13.5t-1 10t0 5.5t-7.5 2v21l25 30v23q0 1 -1 2t-1 2q0 9 23.5 17t56.5 8q9 -23 18 -23q6 0 17.5 11.5t17.5 11.5h2q25 -11 47 -11q9 0 17 2.5t12 5.5t4 5q0 100 8 149q-15 201 -82 201h-12 l-27 43l-6 -29q-12 1 -29 16t-24 15q-18 0 -39.5 -1t-26.5 -1q-8 0 -18 -5t-12.5 -3t-2.5 16q14 22 18 47t3.5 37.5t11.5 21.5t41 9q28 -17 127 -17q0 16 33 33l49 -10l86 20q33 -20 66 -20q21 0 41 10l61 -10zM680 680q-14 0 -40 -17.5t-50 -17.5l-25 4h-33v-63l-20 -62 v-12q0 -28 20 -61q-16 0 -32 -33q0 -40 65 -84v-10l-53 -13v-30q44 -95 127 -95l20 31l-8 53h8q68 0 127 -53q21 0 21 21q-12 20 -12 65l-29 51l41 -30h33q87 0 110 84q33 10 33 63q0 24 -53 33v20h86v21q0 53 -21 53l-8 135l-12 127q27 0 33 53l-74 64l12 53v31 q-160 160 -221 160q0 24 -45 30l-135 -43l-21 -127v-41q0 -18 29 -32q-25 -41 -25 -74v-12q33 0 33 -21v-10l-53 -10v-21q0 -2 2 -2t13.5 6t19.5 6q23 0 39 -36q11 1 39.5 6.5t44.5 5.5q43 0 69 -35q43 -6 43 -8l-41 -53l4 -19l29 -47l25 -8q-16 -19 -37 -19q-14 0 -45 9h-2 q-7 0 -15.5 7t-15.5 7zM709 307h20q21 -3 21 -20v-13h-21q-20 0 -20 23v10zM557 279h12q21 -3 21 -21v-20h-12q-21 0 -21 20v21z" />
<glyph unicode="&#xd1;" d="M868 1722q3 6 13 21h14q17 0 33 -8q51 -2 51 -39q0 -21 -12 -49q2 -4 2 -15q0 -34 -43 -37q-26 -19 -39 -30h-2q-1 -1 -7.5 -9.5t-17 -16.5t-24.5 -11q-5 3 -19 10q0 -6 -2 -22q-50 -13 -78 -13h-24v13l-6 -3q-6 1 -23.5 4t-26 5t-20.5 7t-18.5 13.5t-8.5 20.5 q-6 -2 -14 -2q-14 0 -29 10q-1 0 -14 -7.5t-28.5 -15.5t-20.5 -8h-8q-26 -22 -43 -22q-16 4 -17 4q0 -4 -10 -10.5t-14 -6.5q-2 0 -6 1t-5 1l-39 27q-8 11 -8 25q0 5 1 8t2 4t1 2t-3 21t-3 26q7 20 33 40.5t41 20.5q10 0 14 -2q15 64 58 64q15 0 32 -10l35 6q6 24 29 24 q3 -1 8.5 -2.5t8 -3t6.5 -4t7.5 -7.5t8.5 -13q6 -2 16 -7q6 3 13 3q13 0 23 -8.5t15.5 -17.5t6.5 -9q25 0 32 -23q12 6 35 -2l10 6v8q0 8 7 18.5t22 10.5q5 0 11 -1l5 -1l27 23zM643 61h39v-38h-39v38zM549 -16l16 -21zM762 313l16 -20zM561 461q3 3 11 0q5 -2 1 -6 q-3 -3 -11 0q-5 2 -1 6zM643 467l21 -18zM582 422l12 -6q-3 -3 -11 0q-5 2 -1 6zM643 371l7.5 5t6.5 4t4.5 3t4.5 2.5t4 1.5t4.5 1t4.5 0.5t6.5 0.5h7h9.5v-57q-25 0 -30.5 2t-28.5 16v21zM895 487l23 -20zM565 506l21 -19zM627 506l16 -19zM840 602l16 -18zM895 565 l-18 -59q28 22 28 33q0 6 -10 26zM778 913q24 -8 29 -12t12 -27q-24 8 -29 12t-12 27zM528 797l21 -19zM778 797q6 0 18 -0.5t15.5 -0.5t11 -1.5t10.5 -4t8 -6.5t8 -10.5t7 -15.5l-78 20v19zM492 700l16 -20zM528 700h37v-38q-23 7 -26 10.5t-11 27.5zM451 952v-24 q0 -30 -21 -74q34 -27 50 -45.5t28 -50.5q-21 -1 -26.5 -2t-13.5 -4.5t-17 -12.5q6 -28 9.5 -38.5t14.5 -20.5t33 -18q-12 -40 -12 -64q0 -18 12 -53q-29 -23 -29 -39t29 -39l-37 -135l21 -58q53 19 94 19q-4 -7 -9 -13.5t-6.5 -9t-3 -7.5t-2 -10.5t-0.5 -16.5q9 0 15 -0.5 t10 -1t8.5 -2.5t7 -3.5t9.5 -6t12 -7.5l55 21q9 -30 39 -60l98 21v18l-78 21v192q-11 7 -34.5 29.5t-42.5 29.5q0 65 -21 136l-57 -21q4 7 8.5 13t6 9t4 4.5t-1 4t-5 3t-12.5 5.5v59q-2 8 -3 18.5t-2 14.5t-4.5 9t-9.5 8.5t-18 7.5q16 37 16 63q0 35 -41 35q-2 0 -7.5 -1 t-8.5 -1l41 78zM840 991l16 -20zM459 1055q-4 -4 -1 -13q1 -4 5 0t1 13q-1 4 -5 0zM819 1106h37v-39h-1l-1 1q-23 7 -27 15q-2 3 -5 14zM451 1126v-39q24 8 29 12t12 27h-41zM139 1417q24 -6 62 0l12.5 -12.5t9.5 -8.5t10.5 -8t10 -5t14.5 -5l16 39q74 -12 99 -12 q35 0 78 12l-21 -20q46 -25 74 -25q21 0 45 6q33 -24 54.5 -31.5t60.5 -7.5v-16q0 -37 -6 -56t-31 -44h16t10 -1.5t7 -3t9 -6t13 -8.5v-20q-24 -13 -36 -16t-40 -3v-20h16.5t11 -2t7.5 -2.5t9.5 -6t13.5 -8.5v-59l77 -18v-97h-59v-20q28 -6 42 -13t38 -26v-135l78 -19 l-21 -77q8 -6 13 -10t8.5 -10.5t5 -9.5t5 -13.5l5.5 -16.5q30 48 39 78q-23 8 -27.5 12t-11.5 27l62 20q-41 41 -41 107v47h18v59q-18 24 -18 49q0 33 41 48q-23 53 -23 96l-76 20q-8 25 -24 42t-29 23t-41.5 16t-42.5 16q10 33 19.5 44.5t39.5 32.5l-9 13.5t-6 9.5t-3 7.5 t-2 11v16.5q10 -3 25 -9t23.5 -8t16.5 -2q23 0 54 19l37 -39v39h18v-39q31 31 39 31t20 -31h58q11 28 18 32t41 7l-18 -58q11 7 29 21t32.5 23t32.5 14l20 -19l-20 -39l78 -20q-2 -41 -8.5 -62.5t-28.5 -52.5h-96v-78h-21v-116l39 -39v-39h-39q14 -47 14 -70q0 -26 -14 -45 v-20l39 -19q-4 -28 -4 -37q0 -21 24 -61q-12 -22 -18 -69t-20 -66v-39q14 -14 38 -57v-21q-5 -7 -10.5 -14t-7.5 -10t-2 -5q0 -1 1.5 -3.5t4 -5t6.5 -8t8 -11.5v-21q-3 -5 -6.5 -10.5t-5.5 -7.5t-3.5 -5.5t-2 -5.5t-1.5 -6.5t-1 -9v-12.5l37 -39q-24 -37 -30.5 -67.5 t-6.5 -86.5l-5 -7.5t-4 -6.5t-3 -4.5t-2.5 -4.5t-1.5 -4t-1 -4.5t-0.5 -4.5t-0.5 -6.5v-7v-9.5q-55 0 -101 20q-14 -24 -20.5 -28t-36.5 -10q-13 22 -14.5 26.5t-1.5 30.5h-78q-34 55 -41 78q-27 -8 -41 -8q-16 0 -37 8l-19 -39h-59l-16 -19v-20l-21 -19l-9 -3l-7.5 -2.5 t-5.5 -2t-4.5 -2t-3.5 -3t-3 -4t-2 -5.5t-3 -7l-3 -9q-97 18 -250 18q-5 3 -10.5 6.5t-7.5 5.5t-5.5 3.5t-5.5 2t-6.5 1.5t-9 1h-12.5q-15 -35 -28 -45t-50 -14l21 21q-30 25 -119 57l-37 39l16 78q11 3 37.5 11.5t40.5 13t36 9t42 5.5q-13 22 -14.5 26.5t-1.5 30.5h57 v-16.5t-2 -10.5t-3 -7t-6 -9.5l-9 -13.5q24 20 34.5 39t22.5 57q-17 9 -20 12.5t-17 26.5v18l37 21q-12 22 -12 36q0 17 12 41h-21l21 58q-17 9 -20 12.5t-17 26.5q1 4 2.5 12t2 10t2 6.5t3 6.5t3.5 5t5.5 5t7.5 5t11 7q-14 26 -17.5 38t-3.5 40q7 23 12 27t29 12 q-14 13 -23 28t-13 25.5t-10 30.5t-11 32v39q13 21 14.5 26t1.5 32l-36 20v19q20 31 20 51v26q13 21 14.5 26t1.5 32l-73 59l16 -39q-33 10 -45.5 19t-32.5 39q-29 0 -41 3t-37 17q12 29 23.5 43t38.5 33q0 59 16 98zM1221 1358q0 -7 -2 -6q-5 2 -4 12l2 4q4 0 4 -10z M702 1165q8 23 12 27t27 12l21 -39h-60z" />
<glyph unicode="&#xd2;" d="M539 1587q25 -43 63 -43q28 0 47 31q49 -80 84 -80q13 0 34 12.5t34 12.5h6q17 -58 51 -58q21 0 44.5 16.5t31.5 28.5q-3 7 -7.5 22t-7 21.5t-9.5 12.5t-17 6q-1 0 -1 1t-1 1l-51 39q-67 94 -72 94q-2 0 -2 -4q-23 9 -25 19t-4 12q-4 16 -7 28.5t-4.5 18.5t-2 10t-2.5 6 t-3.5 4t-7.5 6.5t-12 10.5q-7 -11 -20 2l-37 47q-51 37 -90 37q-26 0 -41.5 -14t-15.5 -27q2 -2 8 -4t9 -3.5t1 -3.5q-11 -14 -27 -14t-34 18l-7 -8q5 -15 5 -39q0 -30 -13 -77q9 -9 27 -76l12 -11l27 -6l6 -6q15 -35 27 -47zM535 1221l7.5 5t6.5 4t4.5 3t4.5 2.5t4 1.5 t4.5 1t4.5 0.5t6.5 0.5h7h9.5v-57q-25 0 -30.5 2t-28.5 16v21zM352 551h58v-16.5t-1.5 -10.5t-2.5 -7.5l-6 -9l-9 -13.5h-20l-9 13.5l-6 9t-2.5 7.5t-1.5 10.5v16.5zM391 455q4 -2 10 -4.5t6.5 -2.5t2 -3t1 -4.5t-0.5 -9.5v-15h-39zM881 993h57v-14.5t-0.5 -9t-2 -7.5 t-2.5 -5.5t-5.5 -9t-7.5 -11.5h-21q-3 5 -6.5 10.5t-5 7t-3 6t-2 5.5t-1 6.5t-0.5 9v12.5zM920 897l10 -5l6 -2l2 -3q2 -3 1 -5t-1 -9.5v-14.5h-39zM666 1458q151 -43 235.5 -80t118.5 -88q24 0 47 -59t69 -217q17 -59 27 -92l-20 -33v-31l31 -61q-21 -37 -21 -84 q21 -67 21 -82q-21 -34 -21 -62v-53q0 -8 10 -8q-37 -58 -82 -229q-44 -68 -94 -103q-102 -96 -102 -125l-54 10h-10q-33 -41 -196 -41l-21 9q-31 0 -31 -29h-20q-9 0 -64 61h-10l-30 -20h-11q-33 47 -111.5 111.5t-113.5 64.5q0 4 7 10t7 15q0 23 -47 98q-14 39 -25.5 65 t-16.5 33.5t-8 14.5t-3 18v160l-31 61q31 64 31 74v22q0 22 3 47t7.5 45t8.5 36.5t7 26.5t3 11q6 0 7.5 3t1.5 19q2 59 15 130q64 47 133 197q46 0 125 104q191 36 228 51zM573 1262l-53 12q-6 -10 -6 -35q0 -13 4 -44t4 -44q0 -38 -24 -51q0 -15 -31 -15q-12 0 -38 3.5 t-36 3.5q-13 0 -16 -7l59 -43q0 -8 -28 -54.5t-61.5 -102.5t-41.5 -82l60 -66q-6 -10 -23.5 -16.5t-32 -11t-14.5 -9.5q10 0 42.5 -36.5t43.5 -69.5q-7 -12 -36.5 -16t-29.5 -13q32 -26 41 -135q59 -115 166 -197q0 -12 15 -12q7 0 25 4t28 4q6 0 14 -4q11 7 38 56t36 49h2 l131 -43q0 -12 -57 -41l-58 -29h21q73 0 168 92l-13 23v8q24 12 40 38t21.5 45.5t17.5 73.5q3 14 5 21q11 0 11 10v11l-21 30v11l21 30q0 37 -11 105l11 51q-10 33 -21 33q6 10 19 20t22.5 17t9.5 12l-10 41l10 20q-3 24 -11.5 42.5t-24.5 35t-28 26.5t-36.5 27.5 t-36.5 26.5v20q0 11 10 11q-27 67 -51 73h-12q-8 0 -13 16q-1 3 -2 -1q0 -3 -1 -12l-17 24l-29 -68l11 41q-15 48 -62 72l-30 -67l2 -7q4 0 4 45q0 29 -6 29q0 30 -4 40.5t-15 10.5h-10q-62 -6 -62 -32zM893 309h33v23h-13q-20 -3 -20 -23z" />
</font>
</defs>
</svg>
